STARTFONT 2.3
FONT -FontForge-Bungee Shade-Book-R-Normal--10-100-72-72-P-85-ISO10646-1
SIZE 10 72 72  2
FONTBOUNDINGBOX 26 26 -6 -9
COMMENT "Generated by fontforge, http://fontforge.sourceforge.net"
COMMENT "Copyright 2008 The Bungee Project Authors (david@djr.com)"
STARTPROPERTIES 40
FOUNDRY "FontForge"
FAMILY_NAME "Bungee Shade"
WEIGHT_NAME "Book"
SLANT "R"
SETWIDTH_NAME "Normal"
ADD_STYLE_NAME ""
PIXEL_SIZE 10
POINT_SIZE 100
RESOLUTION_X 72
RESOLUTION_Y 72
SPACING "P"
AVERAGE_WIDTH 85
CHARSET_REGISTRY "ISO10646"
CHARSET_ENCODING "1"
FONTNAME_REGISTRY ""
CHARSET_COLLECTIONS "ISO8859-2 ISO8859-9 ISO8859-4 ISO10646-1"
BITS_PER_PIXEL 2
FONT_NAME "BungeeShade-Regular"
FACE_NAME "Bungee Shade"
COPYRIGHT "Copyright 2008 The Bungee Project Authors (david@djr.com)"
FONT_VERSION "1.000;PS 1.0;hotconv 1.0.72;makeotf.lib2.5.5900"
FONT_ASCENT 9
FONT_DESCENT 1
UNDERLINE_POSITION 0
UNDERLINE_THICKNESS 0
X_HEIGHT 7
CAP_HEIGHT 7
RAW_ASCENT 860
RAW_DESCENT 140
NORM_SPACE 3
RELATIVE_WEIGHT 40
RELATIVE_SETWIDTH 50
SUPERSCRIPT_X 0
SUPERSCRIPT_Y 3
SUPERSCRIPT_SIZE 6
SUBSCRIPT_X 0
SUBSCRIPT_Y 0
SUBSCRIPT_SIZE 6
AVG_LOWERCASE_WIDTH 81
AVG_UPPERCASE_WIDTH 83
ENDPROPERTIES
CHARS 1065
STARTCHAR space
ENCODING 32
SWIDTH 325 0
DWIDTH 3 0
BBX 1 1 0 0
BITMAP
00
ENDCHAR
STARTCHAR exclam
ENCODING 33
SWIDTH 524 0
DWIDTH 5 0
BBX 5 9 0 -1
BITMAP
1000
7000
7000
7000
7400
7A00
3000
7540
7E00
ENDCHAR
STARTCHAR quotedbl
ENCODING 34
SWIDTH 746 0
DWIDTH 7 0
BBX 7 6 0 2
BITMAP
1080
A080
A080
A080
BFF4
1050
ENDCHAR
STARTCHAR numbersign
ENCODING 35
SWIDTH 850 0
DWIDTH 9 0
BBX 8 9 0 -1
BITMAP
0450
1810
6104
B451
6451
9104
F081
B5D4
7DE0
ENDCHAR
STARTCHAR dollar
ENCODING 36
SWIDTH 750 0
DWIDTH 8 0
BBX 7 12 0 -3
BITMAP
0100
0004
1000
A0B4
A000
B500
6A80
6000
A018
BD10
0F80
0500
ENDCHAR
STARTCHAR percent
ENCODING 37
SWIDTH 1131 0
DWIDTH 11 0
BBX 11 9 0 -1
BITMAP
055400
613000
A22000
A01140
B45110
7EC620
01C600
029B54
02D7E0
ENDCHAR
STARTCHAR ampersand
ENCODING 38
SWIDTH 866 0
DWIDTH 9 0
BBX 9 9 0 -1
BITMAP
040000
240000
346000
741000
202000
A1F040
E00000
B55500
7FF400
ENDCHAR
STARTCHAR quotesingle
ENCODING 39
SWIDTH 456 0
DWIDTH 5 0
BBX 4 6 0 2
BITMAP
10
A0
A0
A0
BD
14
ENDCHAR
STARTCHAR parenleft
ENCODING 40
SWIDTH 529 0
DWIDTH 5 0
BBX 5 11 0 -2
BITMAP
1000
6000
A040
A000
A000
A000
A000
A000
B500
7F80
0400
ENDCHAR
STARTCHAR parenright
ENCODING 41
SWIDTH 529 0
DWIDTH 5 0
BBX 4 11 0 -2
BITMAP
60
A0
B8
68
28
28
28
24
A1
BD
10
ENDCHAR
STARTCHAR asterisk
ENCODING 42
SWIDTH 818 0
DWIDTH 8 0
BBX 8 8 0 0
BITMAP
0110
0700
2000
7945
6804
1894
3EE0
0440
ENDCHAR
STARTCHAR plus
ENCODING 43
SWIDTH 834 0
DWIDTH 8 0
BBX 7 8 0 -1
BITMAP
0600
0500
2040
B000
BF1C
1B10
0BD0
0100
ENDCHAR
STARTCHAR comma
ENCODING 44
SWIDTH 484 0
DWIDTH 5 0
BBX 4 5 0 -3
BITMAP
60
B4
B0
B9
64
ENDCHAR
STARTCHAR hyphen
ENCODING 45
SWIDTH 520 0
DWIDTH 5 0
BBX 5 4 0 1
BITMAP
6000
E000
FF40
1400
ENDCHAR
STARTCHAR period
ENCODING 46
SWIDTH 484 0
DWIDTH 5 0
BBX 4 4 0 -1
BITMAP
60
A0
A5
BE
ENDCHAR
STARTCHAR slash
ENCODING 47
SWIDTH 487 0
DWIDTH 5 0
BBX 3 12 0 -3
BITMAP
18
24
34
34
70
70
60
A0
A0
90
F8
50
ENDCHAR
STARTCHAR zero
ENCODING 48
SWIDTH 827 0
DWIDTH 8 0
BBX 7 9 0 -1
BITMAP
0550
2000
60E0
A0E0
A0E0
A090
B000
7954
2FE0
ENDCHAR
STARTCHAR one
ENCODING 49
SWIDTH 701 0
DWIDTH 7 0
BBX 7 9 0 -1
BITMAP
1000
7000
BC00
1C00
1C00
1800
6000
A554
BFE0
ENDCHAR
STARTCHAR two
ENCODING 50
SWIDTH 739 0
DWIDTH 7 0
BBX 7 9 0 -1
BITMAP
1000
7000
7F40
1400
2010
A090
E000
E554
BFF4
ENDCHAR
STARTCHAR three
ENCODING 51
SWIDTH 737 0
DWIDTH 7 0
BBX 7 9 0 -1
BITMAP
1000
A000
BE00
6404
3400
3F80
6000
A554
BFD0
ENDCHAR
STARTCHAR four
ENCODING 52
SWIDTH 809 0
DWIDTH 8 0
BBX 8 9 0 -1
BITMAP
1050
A0D0
A0D0
A040
A000
B400
7FD0
05E5
00F8
ENDCHAR
STARTCHAR five
ENCODING 53
SWIDTH 747 0
DWIDTH 7 0
BBX 7 9 0 -1
BITMAP
1004
A000
A0A4
A000
A000
BF80
6000
A554
BFD0
ENDCHAR
STARTCHAR six
ENCODING 54
SWIDTH 793 0
DWIDTH 8 0
BBX 7 9 0 -1
BITMAP
0154
2000
60A4
A140
A0D0
A040
B000
7954
2FE0
ENDCHAR
STARTCHAR seven
ENCODING 55
SWIDTH 727 0
DWIDTH 7 0
BBX 7 9 0 -1
BITMAP
1004
A000
FF80
1500
1400
3450
3400
3540
3E00
ENDCHAR
STARTCHAR eight
ENCODING 56
SWIDTH 811 0
DWIDTH 8 0
BBX 7 9 0 -1
BITMAP
0150
2000
70D0
7550
2000
A0E0
A050
B954
2FE0
ENDCHAR
STARTCHAR nine
ENCODING 57
SWIDTH 793 0
DWIDTH 8 0
BBX 7 9 0 -1
BITMAP
0150
2000
A0D0
A040
B400
7E80
2400
3954
3FE0
ENDCHAR
STARTCHAR colon
ENCODING 58
SWIDTH 484 0
DWIDTH 5 0
BBX 4 8 0 -1
BITMAP
60
A0
A5
B9
60
A0
A5
BE
ENDCHAR
STARTCHAR semicolon
ENCODING 59
SWIDTH 484 0
DWIDTH 5 0
BBX 4 9 0 -3
BITMAP
60
A0
A5
B5
60
B4
B0
B9
64
ENDCHAR
STARTCHAR less
ENCODING 60
SWIDTH 814 0
DWIDTH 8 0
BBX 7 6 0 -1
BITMAP
1004
70A4
7000
7E40
1BF8
0064
ENDCHAR
STARTCHAR equal
ENCODING 61
SWIDTH 834 0
DWIDTH 8 0
BBX 8 7 0 -1
BITMAP
6000
BAA9
6AA4
2000
B000
BFFC
1550
ENDCHAR
STARTCHAR greater
ENCODING 62
SWIDTH 814 0
DWIDTH 8 0
BBX 7 8 0 -1
BITMAP
1540
7014
7900
2F90
1400
7054
7A90
1400
ENDCHAR
STARTCHAR question
ENCODING 63
SWIDTH 756 0
DWIDTH 8 0
BBX 7 9 0 -1
BITMAP
1000
A000
BE80
2400
3954
3960
2400
3940
3F00
ENDCHAR
STARTCHAR at
ENCODING 64
SWIDTH 967 0
DWIDTH 10 0
BBX 9 12 0 -3
BITMAP
040000
22FE00
655640
A51140
A53140
A53140
A50000
A79540
B56900
794100
1FFD00
015000
ENDCHAR
STARTCHAR A
ENCODING 65
SWIDTH 830 0
DWIDTH 8 0
BBX 8 9 0 -1
BITMAP
0400
1800
2440
30D0
6000
A000
A0E0
A5A5
BCBC
ENDCHAR
STARTCHAR B
ENCODING 66
SWIDTH 825 0
DWIDTH 8 0
BBX 7 9 0 -1
BITMAP
1000
7000
B0D0
B054
B000
B0E0
B050
B554
7FF4
ENDCHAR
STARTCHAR C
ENCODING 67
SWIDTH 728 0
DWIDTH 7 0
BBX 7 8 0 -1
BITMAP
2000
60F4
A040
A000
A000
B000
7954
2FF4
ENDCHAR
STARTCHAR D
ENCODING 68
SWIDTH 846 0
DWIDTH 8 0
BBX 7 9 0 -1
BITMAP
1000
7000
B090
B0A0
B0A0
B050
B000
B554
7FE4
ENDCHAR
STARTCHAR E
ENCODING 69
SWIDTH 754 0
DWIDTH 8 0
BBX 7 9 0 -1
BITMAP
1000
7000
B0A8
B000
B050
B090
B000
B554
7FF4
ENDCHAR
STARTCHAR F
ENCODING 70
SWIDTH 718 0
DWIDTH 7 0
BBX 7 9 0 -1
BITMAP
1000
7000
B0F4
B000
B000
B0E0
B040
B500
7D00
ENDCHAR
STARTCHAR G
ENCODING 71
SWIDTH 808 0
DWIDTH 8 0
BBX 8 8 0 -1
BITMAP
2000
60F4
A050
A090
A050
B000
7955
2FF8
ENDCHAR
STARTCHAR H
ENCODING 72
SWIDTH 859 0
DWIDTH 9 0
BBX 8 9 0 -1
BITMAP
1010
70A0
B050
B004
B000
B0E0
B0A0
B5B5
7DBD
ENDCHAR
STARTCHAR I
ENCODING 73
SWIDTH 705 0
DWIDTH 7 0
BBX 7 9 0 -1
BITMAP
1000
A000
BC24
1C00
1C00
1800
6000
A554
BFE0
ENDCHAR
STARTCHAR J
ENCODING 74
SWIDTH 788 0
DWIDTH 8 0
BBX 7 9 0 -1
BITMAP
0050
01C0
01C0
01C0
61C0
A040
A000
B954
2FD0
ENDCHAR
STARTCHAR K
ENCODING 75
SWIDTH 846 0
DWIDTH 8 0
BBX 8 9 0 -1
BITMAP
1011
7080
B040
B000
B050
B0E0
B0A0
B5B5
7DBD
ENDCHAR
STARTCHAR L
ENCODING 76
SWIDTH 795 0
DWIDTH 8 0
BBX 8 9 0 -1
BITMAP
1000
7000
B000
B010
B090
B050
B000
B555
7FF8
ENDCHAR
STARTCHAR M
ENCODING 77
SWIDTH 949 0
DWIDTH 9 0
BBX 9 9 0 -1
BITMAP
100400
702000
B01000
B00000
B08800
B0F800
B06800
B52940
7D2F40
ENDCHAR
STARTCHAR N
ENCODING 78
SWIDTH 853 0
DWIDTH 9 0
BBX 8 9 0 -1
BITMAP
1010
7060
B010
B000
B080
B0D0
B0E0
B5B5
7DBD
ENDCHAR
STARTCHAR O
ENCODING 79
SWIDTH 837 0
DWIDTH 8 0
BBX 7 9 0 -1
BITMAP
0154
2000
60E0
A0E0
A0A0
A0A0
B000
7954
2FE0
ENDCHAR
STARTCHAR P
ENCODING 80
SWIDTH 782 0
DWIDTH 8 0
BBX 7 9 0 -1
BITMAP
1000
7000
B0D0
B090
B000
B004
B0F0
B540
7D00
ENDCHAR
STARTCHAR Q
ENCODING 81
SWIDTH 837 0
DWIDTH 8 0
BBX 6 10 0 -3
BITMAP
2000
60E0
A0E0
A0A0
A0A0
A000
B440
3E00
0BD0
0100
ENDCHAR
STARTCHAR R
ENCODING 82
SWIDTH 843 0
DWIDTH 8 0
BBX 8 9 0 -1
BITMAP
1000
7040
B0D0
B041
B000
B0F0
B0B0
B5B5
7D7D
ENDCHAR
STARTCHAR S
ENCODING 83
SWIDTH 750 0
DWIDTH 8 0
BBX 7 9 0 -1
BITMAP
0004
2000
A0B4
A000
B500
6A80
6000
A554
BFD0
ENDCHAR
STARTCHAR T
ENCODING 84
SWIDTH 756 0
DWIDTH 8 0
BBX 7 9 0 -1
BITMAP
1000
D000
FD18
1D10
0D00
0D00
0D00
0D50
0F80
ENDCHAR
STARTCHAR U
ENCODING 85
SWIDTH 846 0
DWIDTH 8 0
BBX 7 9 0 -1
BITMAP
1010
A0A0
A0A0
A0A0
A0A0
A050
B000
7954
2FE0
ENDCHAR
STARTCHAR V
ENCODING 86
SWIDTH 830 0
DWIDTH 8 0
BBX 8 9 0 -1
BITMAP
1011
A0A0
A0E0
A0E0
B090
B400
7800
2D54
1FE0
ENDCHAR
STARTCHAR W
ENCODING 87
SWIDTH 931 0
DWIDTH 9 0
BBX 8 9 0 -1
BITMAP
1004
A028
A058
A044
A000
B010
B020
79B5
3E7D
ENDCHAR
STARTCHAR X
ENCODING 88
SWIDTH 837 0
DWIDTH 8 0
BBX 8 9 0 -1
BITMAP
1011
A0A0
B400
7800
2400
2090
A0E0
B5A5
BDBC
ENDCHAR
STARTCHAR Y
ENCODING 89
SWIDTH 805 0
DWIDTH 8 0
BBX 6 9 0 -1
BITMAP
1110
A0A0
A0D0
B000
B800
3D00
1E00
0E50
0B80
ENDCHAR
STARTCHAR Z
ENCODING 90
SWIDTH 760 0
DWIDTH 8 0
BBX 7 9 0 -1
BITMAP
1000
A000
BF00
1900
1400
2000
A000
A554
BFF4
ENDCHAR
STARTCHAR bracketleft
ENCODING 91
SWIDTH 529 0
DWIDTH 5 0
BBX 5 11 0 -2
BITMAP
6000
A000
A040
A000
A000
A000
A000
A000
A000
BF80
1400
ENDCHAR
STARTCHAR backslash
ENCODING 92
SWIDTH 487 0
DWIDTH 5 0
BBX 5 13 0 -3
BITMAP
1000
9000
E000
A000
B000
B000
7000
7400
7400
3400
3800
2F40
0400
ENDCHAR
STARTCHAR bracketright
ENCODING 93
SWIDTH 529 0
DWIDTH 5 0
BBX 5 11 0 -2
BITMAP
6000
A100
B800
6800
2800
2800
2800
2400
A100
BF40
1400
ENDCHAR
STARTCHAR asciicircum
ENCODING 94
SWIDTH 814 0
DWIDTH 8 0
BBX 7 7 0 0
BITMAP
1800
2400
3080
70D0
A1E0
BCFC
1010
ENDCHAR
STARTCHAR underscore
ENCODING 95
SWIDTH 834 0
DWIDTH 8 0
BBX 8 4 0 -3
BITMAP
6000
B000
BFFD
1550
ENDCHAR
STARTCHAR grave
ENCODING 96
SWIDTH 600 0
DWIDTH 6 0
BBX 6 4 0 6
BITMAP
1000
A000
FE90
1640
ENDCHAR
STARTCHAR a
ENCODING 97
SWIDTH 830 0
DWIDTH 8 0
BBX 8 9 0 -1
BITMAP
0400
1800
2440
30D0
6000
A000
A0E0
A5A5
BCBC
ENDCHAR
STARTCHAR b
ENCODING 98
SWIDTH 825 0
DWIDTH 8 0
BBX 7 9 0 -1
BITMAP
1000
7000
B0D0
B054
B000
B0E0
B050
B554
7FF4
ENDCHAR
STARTCHAR c
ENCODING 99
SWIDTH 728 0
DWIDTH 7 0
BBX 7 8 0 -1
BITMAP
2000
60F4
A040
A000
A000
B000
7954
2FF4
ENDCHAR
STARTCHAR d
ENCODING 100
SWIDTH 846 0
DWIDTH 8 0
BBX 7 9 0 -1
BITMAP
1000
7000
B090
B0A0
B0A0
B050
B000
B554
7FE4
ENDCHAR
STARTCHAR e
ENCODING 101
SWIDTH 754 0
DWIDTH 8 0
BBX 7 9 0 -1
BITMAP
1000
7000
B0A8
B000
B050
B090
B000
B554
7FF4
ENDCHAR
STARTCHAR f
ENCODING 102
SWIDTH 718 0
DWIDTH 7 0
BBX 7 9 0 -1
BITMAP
1000
7000
B0F4
B000
B000
B0E0
B040
B500
7D00
ENDCHAR
STARTCHAR g
ENCODING 103
SWIDTH 808 0
DWIDTH 8 0
BBX 8 8 0 -1
BITMAP
2000
60F4
A050
A090
A050
B000
7955
2FF8
ENDCHAR
STARTCHAR h
ENCODING 104
SWIDTH 859 0
DWIDTH 9 0
BBX 8 9 0 -1
BITMAP
1010
70A0
B050
B004
B000
B0E0
B0A0
B5B5
7DBD
ENDCHAR
STARTCHAR i
ENCODING 105
SWIDTH 705 0
DWIDTH 7 0
BBX 7 9 0 -1
BITMAP
1000
A000
BC24
1C00
1C00
1800
6000
A554
BFE0
ENDCHAR
STARTCHAR j
ENCODING 106
SWIDTH 788 0
DWIDTH 8 0
BBX 7 9 0 -1
BITMAP
0050
01C0
01C0
01C0
61C0
A040
A000
B954
2FD0
ENDCHAR
STARTCHAR k
ENCODING 107
SWIDTH 846 0
DWIDTH 8 0
BBX 8 9 0 -1
BITMAP
1011
7080
B040
B000
B050
B0E0
B0A0
B5B5
7DBD
ENDCHAR
STARTCHAR l
ENCODING 108
SWIDTH 795 0
DWIDTH 8 0
BBX 8 9 0 -1
BITMAP
1000
7000
B000
B010
B090
B050
B000
B555
7FF8
ENDCHAR
STARTCHAR m
ENCODING 109
SWIDTH 949 0
DWIDTH 9 0
BBX 9 9 0 -1
BITMAP
100400
702000
B01000
B00000
B08800
B0F800
B06800
B52940
7D2F40
ENDCHAR
STARTCHAR n
ENCODING 110
SWIDTH 853 0
DWIDTH 9 0
BBX 8 9 0 -1
BITMAP
1010
7060
B010
B000
B080
B0D0
B0E0
B5B5
7DBD
ENDCHAR
STARTCHAR o
ENCODING 111
SWIDTH 837 0
DWIDTH 8 0
BBX 7 9 0 -1
BITMAP
0154
2000
60E0
A0E0
A0A0
A0A0
B000
7954
2FE0
ENDCHAR
STARTCHAR p
ENCODING 112
SWIDTH 782 0
DWIDTH 8 0
BBX 7 9 0 -1
BITMAP
1000
7000
B0D0
B090
B000
B004
B0F0
B540
7D00
ENDCHAR
STARTCHAR q
ENCODING 113
SWIDTH 837 0
DWIDTH 8 0
BBX 6 10 0 -3
BITMAP
2000
60E0
A0E0
A0A0
A0A0
A000
B440
3E00
0BD0
0100
ENDCHAR
STARTCHAR r
ENCODING 114
SWIDTH 843 0
DWIDTH 8 0
BBX 8 9 0 -1
BITMAP
1000
7040
B0D0
B041
B000
B0F0
B0B0
B5B5
7D7D
ENDCHAR
STARTCHAR s
ENCODING 115
SWIDTH 750 0
DWIDTH 8 0
BBX 7 9 0 -1
BITMAP
0004
2000
A0B4
A000
B500
6A80
6000
A554
BFD0
ENDCHAR
STARTCHAR t
ENCODING 116
SWIDTH 756 0
DWIDTH 8 0
BBX 7 9 0 -1
BITMAP
1000
D000
FD18
1D10
0D00
0D00
0D00
0D50
0F80
ENDCHAR
STARTCHAR u
ENCODING 117
SWIDTH 846 0
DWIDTH 8 0
BBX 7 9 0 -1
BITMAP
1010
A0A0
A0A0
A0A0
A0A0
A050
B000
7954
2FE0
ENDCHAR
STARTCHAR v
ENCODING 118
SWIDTH 830 0
DWIDTH 8 0
BBX 8 9 0 -1
BITMAP
1011
A0A0
A0E0
A0E0
B090
B400
7800
2D54
1FE0
ENDCHAR
STARTCHAR w
ENCODING 119
SWIDTH 931 0
DWIDTH 9 0
BBX 8 9 0 -1
BITMAP
1004
A028
A058
A044
A000
B010
B020
79B5
3E7D
ENDCHAR
STARTCHAR x
ENCODING 120
SWIDTH 837 0
DWIDTH 8 0
BBX 8 9 0 -1
BITMAP
1011
A0A0
B400
7800
2400
2090
A0E0
B5A5
BDBC
ENDCHAR
STARTCHAR y
ENCODING 121
SWIDTH 805 0
DWIDTH 8 0
BBX 6 9 0 -1
BITMAP
1110
A0A0
A0D0
B000
B800
3D00
1E00
0E50
0B80
ENDCHAR
STARTCHAR z
ENCODING 122
SWIDTH 760 0
DWIDTH 8 0
BBX 7 9 0 -1
BITMAP
1000
A000
BF00
1900
1400
2000
A000
A554
BFF4
ENDCHAR
STARTCHAR braceleft
ENCODING 123
SWIDTH 555 0
DWIDTH 6 0
BBX 5 11 0 -2
BITMAP
0400
2000
7040
7000
5100
E000
F000
7000
7900
3F80
0100
ENDCHAR
STARTCHAR bar
ENCODING 124
SWIDTH 447 0
DWIDTH 4 0
BBX 4 12 0 -3
BITMAP
60
A0
A0
A0
A0
A0
A0
A0
A0
B0
BD
10
ENDCHAR
STARTCHAR braceright
ENCODING 125
SWIDTH 555 0
DWIDTH 6 0
BBX 5 11 0 -2
BITMAP
6000
A000
B800
7800
2C00
2800
2800
2000
A140
BD00
1000
ENDCHAR
STARTCHAR asciitilde
ENCODING 126
SWIDTH 834 0
DWIDTH 8 0
BBX 8 3 0 2
BITMAP
2000
B655
7BF8
ENDCHAR
STARTCHAR uni00A0
ENCODING 160
SWIDTH 325 0
DWIDTH 3 0
BBX 1 1 0 0
BITMAP
00
ENDCHAR
STARTCHAR exclamdown
ENCODING 161
SWIDTH 523 0
DWIDTH 5 0
BBX 5 9 0 -1
BITMAP
1000
7000
7A40
7000
7000
7000
7000
7540
7E00
ENDCHAR
STARTCHAR cent
ENCODING 162
SWIDTH 728 0
DWIDTH 7 0
BBX 7 11 0 -3
BITMAP
0004
0504
1000
60F8
A040
A000
B000
BD04
3E14
0BD0
0100
ENDCHAR
STARTCHAR sterling
ENCODING 163
SWIDTH 795 0
DWIDTH 8 0
BBX 8 9 0 -1
BITMAP
0400
2000
70A0
9000
D010
E090
B000
B555
7FF8
ENDCHAR
STARTCHAR currency
ENCODING 164
SWIDTH 921 0
DWIDTH 9 0
BBX 9 9 0 -2
BITMAP
000400
740440
787400
28B000
285000
200000
71A800
7AAE00
100400
ENDCHAR
STARTCHAR yen
ENCODING 165
SWIDTH 803 0
DWIDTH 8 0
BBX 8 9 0 -1
BITMAP
1011
A0A0
A0D0
B440
7800
3040
7908
2E50
0B80
ENDCHAR
STARTCHAR brokenbar
ENCODING 166
SWIDTH 447 0
DWIDTH 4 0
BBX 4 12 0 -3
BITMAP
60
A0
A0
A0
B5
79
60
A0
A0
B0
BD
10
ENDCHAR
STARTCHAR section
ENCODING 167
SWIDTH 750 0
DWIDTH 8 0
BBX 7 9 0 -1
BITMAP
0154
20A4
A000
A080
B400
7A80
2000
B550
BFD0
ENDCHAR
STARTCHAR dieresis
ENCODING 168
SWIDTH 600 0
DWIDTH 6 0
BBX 6 5 0 6
BITMAP
0100
9200
D200
FFD0
5100
ENDCHAR
STARTCHAR copyright
ENCODING 169
SWIDTH 967 0
DWIDTH 10 0
BBX 9 12 0 -3
BITMAP
040000
22FE00
664240
A62B40
A61740
A60740
A64240
A2FE00
B40000
795500
2FFD00
014000
ENDCHAR
STARTCHAR ordfeminine
ENCODING 170
SWIDTH 620 0
DWIDTH 6 0
BBX 6 9 0 -1
BITMAP
0540
2100
6100
A000
E240
E340
E690
A550
FFD0
ENDCHAR
STARTCHAR guillemotleft
ENCODING 171
SWIDTH 912 0
DWIDTH 9 0
BBX 9 5 0 0
BITMAP
101000
A09100
A01000
B93940
2FAF00
ENDCHAR
STARTCHAR logicalnot
ENCODING 172
SWIDTH 834 0
DWIDTH 8 0
BBX 8 6 0 -1
BITMAP
7000
BFE0
15A0
00B0
00BD
0010
ENDCHAR
STARTCHAR uni00AD
ENCODING 173
SWIDTH 520 0
DWIDTH 5 0
BBX 5 4 0 1
BITMAP
6000
E000
FF40
1400
ENDCHAR
STARTCHAR registered
ENCODING 174
SWIDTH 660 0
DWIDTH 7 0
BBX 6 7 0 1
BITMAP
0AE0
6420
A560
A550
A690
7940
1A00
ENDCHAR
STARTCHAR macron
ENCODING 175
SWIDTH 600 0
DWIDTH 6 0
BBX 6 3 0 6
BITMAP
A000
FFD0
5500
ENDCHAR
STARTCHAR degree
ENCODING 176
SWIDTH 583 0
DWIDTH 6 0
BBX 5 6 0 2
BITMAP
0540
6100
A300
A000
BE80
1900
ENDCHAR
STARTCHAR plusminus
ENCODING 177
SWIDTH 834 0
DWIDTH 8 0
BBX 8 9 0 -1
BITMAP
0110
0700
0500
6040
BA09
6904
6000
B555
7FF8
ENDCHAR
STARTCHAR twosuperior
ENCODING 178
SWIDTH 585 0
DWIDTH 6 0
BBX 5 8 0 0
BITMAP
1140
7900
7400
1040
A140
E000
FF80
5500
ENDCHAR
STARTCHAR threesuperior
ENCODING 179
SWIDTH 584 0
DWIDTH 6 0
BBX 5 8 0 0
BITMAP
1500
B900
7440
3A00
6000
A000
BF40
1400
ENDCHAR
STARTCHAR acute
ENCODING 180
SWIDTH 600 0
DWIDTH 6 0
BBX 6 3 0 6
BITMAP
5000
EA90
A500
ENDCHAR
STARTCHAR mu
ENCODING 181
SWIDTH 813 0
DWIDTH 8 0
BBX 6 8 0 -2
BITMAP
6050
A0D0
A0D0
A090
A000
A000
B5E0
6800
ENDCHAR
STARTCHAR paragraph
ENCODING 182
SWIDTH 782 0
DWIDTH 8 0
BBX 7 8 0 -1
BITMAP
2000
A000
E000
E000
B810
2C10
1D64
1FF4
ENDCHAR
STARTCHAR periodcentered
ENCODING 183
SWIDTH 464 0
DWIDTH 5 0
BBX 4 4 0 1
BITMAP
60
A0
A5
BD
ENDCHAR
STARTCHAR cedilla
ENCODING 184
SWIDTH 600 0
DWIDTH 6 0
BBX 3 5 1 -3
BITMAP
10
60
90
F8
50
ENDCHAR
STARTCHAR onesuperior
ENCODING 185
SWIDTH 557 0
DWIDTH 6 0
BBX 5 8 0 0
BITMAP
1100
6000
B800
2800
2400
A000
BF80
1500
ENDCHAR
STARTCHAR ordmasculine
ENCODING 186
SWIDTH 625 0
DWIDTH 6 0
BBX 6 9 0 -1
BITMAP
0540
6140
A240
E240
E000
F410
AA80
6550
BFD0
ENDCHAR
STARTCHAR guillemotright
ENCODING 187
SWIDTH 912 0
DWIDTH 9 0
BBX 9 7 0 0
BITMAP
041400
659640
A01040
B83400
201000
A5D500
A8E400
ENDCHAR
STARTCHAR onequarter
ENCODING 188
SWIDTH 1303 0
DWIDTH 13 0
BBX 13 9 0 -1
BITMAP
11040000
A0240000
78344400
28708D00
24618400
A0118100
BFE28000
00A5BD40
00F41E00
ENDCHAR
STARTCHAR onehalf
ENCODING 189
SWIDTH 1260 0
DWIDTH 13 0
BBX 12 9 0 -1
BITMAP
210400
A02400
783455
287080
2460A4
A01141
BFE244
15A655
00F7FD
ENDCHAR
STARTCHAR threequarters
ENCODING 190
SWIDTH 1313 0
DWIDTH 13 0
BBX 13 9 0 -1
BITMAP
15180000
B9280000
74644400
3A148900
60108400
A0218100
BFA1C000
00A5AD40
00B41F00
ENDCHAR
STARTCHAR questiondown
ENCODING 191
SWIDTH 756 0
DWIDTH 8 0
BBX 7 9 0 -1
BITMAP
0100
0700
0750
0000
6014
A090
A000
B954
7FF4
ENDCHAR
STARTCHAR Agrave
ENCODING 192
SWIDTH 830 0
DWIDTH 8 0
BBX 8 12 0 -1
BITMAP
0550
19A8
2800
1854
1400
2440
30D0
6000
A000
A0E0
A5A5
BCBC
ENDCHAR
STARTCHAR Aacute
ENCODING 193
SWIDTH 830 0
DWIDTH 8 0
BBX 8 12 0 -1
BITMAP
0014
0AA4
2804
2940
1800
2440
30D0
6000
A000
A0E0
A5A5
BCBC
ENDCHAR
STARTCHAR Acircumflex
ENCODING 194
SWIDTH 830 0
DWIDTH 8 0
BBX 8 11 0 -1
BITMAP
0400
2EA4
2C00
1800
2440
20D0
6000
A000
A0E0
A5A5
BCBC
ENDCHAR
STARTCHAR Atilde
ENCODING 195
SWIDTH 830 0
DWIDTH 8 0
BBX 8 11 0 -1
BITMAP
0800
2944
2D54
1800
2440
30D0
6000
A000
A0E0
A5A5
BCBC
ENDCHAR
STARTCHAR Adieresis
ENCODING 196
SWIDTH 830 0
DWIDTH 8 0
BBX 8 12 0 -1
BITMAP
0040
1440
3480
3D54
1800
2440
30D0
6000
A000
A0E0
A5A5
BCBC
ENDCHAR
STARTCHAR Aring
ENCODING 197
SWIDTH 830 0
DWIDTH 8 0
BBX 8 11 0 -1
BITMAP
0400
2890
2850
2800
2440
30D0
6000
A000
A0E0
A5A5
BCBC
ENDCHAR
STARTCHAR AE
ENCODING 198
SWIDTH 1105 0
DWIDTH 11 0
BBX 11 9 0 -1
BITMAP
040000
180000
24A0A4
309000
6000A0
A00090
A0E000
A5E554
BCBFE0
ENDCHAR
STARTCHAR Ccedilla
ENCODING 199
SWIDTH 728 0
DWIDTH 7 0
BBX 7 10 0 -3
BITMAP
2000
60F4
A040
A000
A000
B000
7904
2E10
0F80
0500
ENDCHAR
STARTCHAR Egrave
ENCODING 200
SWIDTH 754 0
DWIDTH 8 0
BBX 7 12 0 -1
BITMAP
0540
2AA4
3400
2010
7000
B0A8
B000
B050
B090
B000
B554
7FF4
ENDCHAR
STARTCHAR Eacute
ENCODING 201
SWIDTH 754 0
DWIDTH 8 0
BBX 7 12 0 -1
BITMAP
0014
0AA4
2804
2140
7000
B0A8
B000
B050
B090
B000
B554
7FF4
ENDCHAR
STARTCHAR Ecircumflex
ENCODING 202
SWIDTH 754 0
DWIDTH 8 0
BBX 7 11 0 -1
BITMAP
0400
3AA4
3000
7000
B0A8
B000
B050
B090
B000
B554
7FF4
ENDCHAR
STARTCHAR Edieresis
ENCODING 203
SWIDTH 754 0
DWIDTH 8 0
BBX 7 12 0 -1
BITMAP
0040
2480
3480
3554
7000
B0A8
B000
B050
B090
B000
B554
7FF4
ENDCHAR
STARTCHAR Igrave
ENCODING 204
SWIDTH 705 0
DWIDTH 7 0
BBX 7 12 0 -1
BITMAP
0500
26A4
7000
6050
A000
BC24
1C00
1C00
1800
6000
A554
BFE0
ENDCHAR
STARTCHAR Iacute
ENCODING 205
SWIDTH 705 0
DWIDTH 7 0
BBX 7 12 0 -1
BITMAP
0050
1A94
7000
6500
6000
BC24
1C00
1C00
1800
6000
A554
BFE0
ENDCHAR
STARTCHAR Icircumflex
ENCODING 206
SWIDTH 705 0
DWIDTH 7 0
BBX 7 11 0 -1
BITMAP
1000
7690
6000
A000
BC24
1C00
1C00
1800
6000
A554
BFE0
ENDCHAR
STARTCHAR Idieresis
ENCODING 207
SWIDTH 705 0
DWIDTH 7 0
BBX 7 12 0 -1
BITMAP
0040
2040
B040
B554
A000
BC24
1C00
1C00
1800
6000
A554
BFE0
ENDCHAR
STARTCHAR Eth
ENCODING 208
SWIDTH 856 0
DWIDTH 9 0
BBX 7 9 0 -1
BITMAP
1000
7000
70A0
9130
D030
F0A0
B000
7554
7FE4
ENDCHAR
STARTCHAR Ntilde
ENCODING 209
SWIDTH 853 0
DWIDTH 9 0
BBX 8 11 0 -1
BITMAP
0800
2D40
21E0
7060
B010
B000
B080
B0D0
B0E0
B5B5
7DBD
ENDCHAR
STARTCHAR Ograve
ENCODING 210
SWIDTH 837 0
DWIDTH 8 0
BBX 7 12 0 -1
BITMAP
0AA4
2DAC
2954
1014
6000
A0E0
A0E0
A0A0
A0A0
B000
7954
2FE0
ENDCHAR
STARTCHAR Oacute
ENCODING 211
SWIDTH 837 0
DWIDTH 8 0
BBX 7 12 0 -1
BITMAP
01A8
1EA4
2958
2140
6000
A0E0
A0E0
A0A0
A0A0
B000
7954
2FE0
ENDCHAR
STARTCHAR Ocircumflex
ENCODING 212
SWIDTH 837 0
DWIDTH 8 0
BBX 8 11 0 -1
BITMAP
0400
2DA4
2401
6000
A0E0
A0E0
A0A0
A0A0
B000
7954
2FE0
ENDCHAR
STARTCHAR Otilde
ENCODING 213
SWIDTH 837 0
DWIDTH 8 0
BBX 7 11 0 -1
BITMAP
1800
2940
2954
7000
A0E0
A0E0
A0A0
A0A0
B000
7954
2FE0
ENDCHAR
STARTCHAR Odieresis
ENCODING 214
SWIDTH 837 0
DWIDTH 8 0
BBX 7 12 0 -1
BITMAP
0440
2440
3840
2A54
7000
A0E0
A0E0
A0A0
A0A0
B000
7954
2FE0
ENDCHAR
STARTCHAR multiply
ENCODING 215
SWIDTH 834 0
DWIDTH 8 0
BBX 8 7 0 0
BITMAP
1010
3800
3D40
1800
2491
7DF4
1460
ENDCHAR
STARTCHAR Oslash
ENCODING 216
SWIDTH 837 0
DWIDTH 8 0
BBX 7 10 0 -2
BITMAP
0154
2014
6090
A190
A060
A560
B100
7454
3AE0
2400
ENDCHAR
STARTCHAR Ugrave
ENCODING 217
SWIDTH 846 0
DWIDTH 8 0
BBX 7 12 0 -1
BITMAP
0540
19A8
2800
2094
A0A0
A0A0
A0A0
A0A0
A050
B000
7954
2FE0
ENDCHAR
STARTCHAR Uacute
ENCODING 218
SWIDTH 846 0
DWIDTH 8 0
BBX 7 12 0 -1
BITMAP
0014
0AA4
1C04
2160
A0A0
A0A0
A0A0
A0A0
A050
B000
7954
2FE0
ENDCHAR
STARTCHAR Ucircumflex
ENCODING 219
SWIDTH 846 0
DWIDTH 8 0
BBX 7 11 0 -1
BITMAP
0400
2EF8
20A0
A0A0
A0A0
A0A0
A0A0
A050
B000
7954
2FE0
ENDCHAR
STARTCHAR Udieresis
ENCODING 220
SWIDTH 846 0
DWIDTH 8 0
BBX 8 12 0 -1
BITMAP
0400
1840
3840
25F5
A0A0
A0A0
A0A0
A0A0
A050
B000
7954
2FE0
ENDCHAR
STARTCHAR Yacute
ENCODING 221
SWIDTH 805 0
DWIDTH 8 0
BBX 7 12 0 -1
BITMAP
0014
0AA4
2804
2050
A0A0
A0D0
B000
B800
3D00
1E00
0E50
0B80
ENDCHAR
STARTCHAR Thorn
ENCODING 222
SWIDTH 792 0
DWIDTH 8 0
BBX 7 9 0 -1
BITMAP
1000
7000
B000
B0D0
B090
B000
B004
B5E0
7D00
ENDCHAR
STARTCHAR germandbls
ENCODING 223
SWIDTH 859 0
DWIDTH 9 0
BBX 8 9 0 -1
BITMAP
1000
7000
B080
B080
B080
B0F0
B080
B595
7EF8
ENDCHAR
STARTCHAR agrave
ENCODING 224
SWIDTH 830 0
DWIDTH 8 0
BBX 8 12 0 -1
BITMAP
0550
19A8
2800
1854
1400
2440
30D0
6000
A000
A0E0
A5A5
BCBC
ENDCHAR
STARTCHAR aacute
ENCODING 225
SWIDTH 830 0
DWIDTH 8 0
BBX 8 12 0 -1
BITMAP
0014
0AA4
2804
2940
1800
2440
30D0
6000
A000
A0E0
A5A5
BCBC
ENDCHAR
STARTCHAR acircumflex
ENCODING 226
SWIDTH 830 0
DWIDTH 8 0
BBX 8 11 0 -1
BITMAP
0400
2EA4
2C00
1800
2440
20D0
6000
A000
A0E0
A5A5
BCBC
ENDCHAR
STARTCHAR atilde
ENCODING 227
SWIDTH 830 0
DWIDTH 8 0
BBX 8 11 0 -1
BITMAP
0800
2944
2D54
1800
2440
30D0
6000
A000
A0E0
A5A5
BCBC
ENDCHAR
STARTCHAR adieresis
ENCODING 228
SWIDTH 830 0
DWIDTH 8 0
BBX 8 12 0 -1
BITMAP
0040
1440
3480
3D54
1800
2440
30D0
6000
A000
A0E0
A5A5
BCBC
ENDCHAR
STARTCHAR aring
ENCODING 229
SWIDTH 830 0
DWIDTH 8 0
BBX 8 11 0 -1
BITMAP
0400
2890
2850
2800
2440
30D0
6000
A000
A0E0
A5A5
BCBC
ENDCHAR
STARTCHAR ae
ENCODING 230
SWIDTH 1105 0
DWIDTH 11 0
BBX 11 9 0 -1
BITMAP
040000
180000
24A0A4
309000
6000A0
A00090
A0E000
A5E554
BCBFE0
ENDCHAR
STARTCHAR ccedilla
ENCODING 231
SWIDTH 728 0
DWIDTH 7 0
BBX 7 10 0 -3
BITMAP
2000
60F4
A040
A000
A000
B000
7904
2E10
0F80
0500
ENDCHAR
STARTCHAR egrave
ENCODING 232
SWIDTH 754 0
DWIDTH 8 0
BBX 7 12 0 -1
BITMAP
0540
2AA4
3400
2010
7000
B0A8
B000
B050
B090
B000
B554
7FF4
ENDCHAR
STARTCHAR eacute
ENCODING 233
SWIDTH 754 0
DWIDTH 8 0
BBX 7 12 0 -1
BITMAP
0014
0AA4
2804
2140
7000
B0A8
B000
B050
B090
B000
B554
7FF4
ENDCHAR
STARTCHAR ecircumflex
ENCODING 234
SWIDTH 754 0
DWIDTH 8 0
BBX 7 11 0 -1
BITMAP
0400
3AA4
3000
7000
B0A8
B000
B050
B090
B000
B554
7FF4
ENDCHAR
STARTCHAR edieresis
ENCODING 235
SWIDTH 754 0
DWIDTH 8 0
BBX 7 12 0 -1
BITMAP
0040
2480
3480
3554
7000
B0A8
B000
B050
B090
B000
B554
7FF4
ENDCHAR
STARTCHAR igrave
ENCODING 236
SWIDTH 705 0
DWIDTH 7 0
BBX 7 12 0 -1
BITMAP
0500
26A4
7000
6050
A000
BC24
1C00
1C00
1800
6000
A554
BFE0
ENDCHAR
STARTCHAR iacute
ENCODING 237
SWIDTH 705 0
DWIDTH 7 0
BBX 7 12 0 -1
BITMAP
0050
1A94
7000
6500
6000
BC24
1C00
1C00
1800
6000
A554
BFE0
ENDCHAR
STARTCHAR icircumflex
ENCODING 238
SWIDTH 705 0
DWIDTH 7 0
BBX 7 11 0 -1
BITMAP
1000
7690
6000
A000
BC24
1C00
1C00
1800
6000
A554
BFE0
ENDCHAR
STARTCHAR idieresis
ENCODING 239
SWIDTH 705 0
DWIDTH 7 0
BBX 7 12 0 -1
BITMAP
0040
2040
B040
B554
A000
BC24
1C00
1C00
1800
6000
A554
BFE0
ENDCHAR
STARTCHAR eth
ENCODING 240
SWIDTH 856 0
DWIDTH 9 0
BBX 7 9 0 -1
BITMAP
1000
7000
70A0
9130
D030
F0A0
B000
7554
7FE4
ENDCHAR
STARTCHAR ntilde
ENCODING 241
SWIDTH 853 0
DWIDTH 9 0
BBX 8 11 0 -1
BITMAP
0800
2D40
21E0
7060
B010
B000
B080
B0D0
B0E0
B5B5
7DBD
ENDCHAR
STARTCHAR ograve
ENCODING 242
SWIDTH 837 0
DWIDTH 8 0
BBX 7 12 0 -1
BITMAP
0AA4
2DAC
2954
1014
6000
A0E0
A0E0
A0A0
A0A0
B000
7954
2FE0
ENDCHAR
STARTCHAR oacute
ENCODING 243
SWIDTH 837 0
DWIDTH 8 0
BBX 7 12 0 -1
BITMAP
01A8
1EA4
2958
2140
6000
A0E0
A0E0
A0A0
A0A0
B000
7954
2FE0
ENDCHAR
STARTCHAR ocircumflex
ENCODING 244
SWIDTH 837 0
DWIDTH 8 0
BBX 8 11 0 -1
BITMAP
0400
2DA4
2401
6000
A0E0
A0E0
A0A0
A0A0
B000
7954
2FE0
ENDCHAR
STARTCHAR otilde
ENCODING 245
SWIDTH 837 0
DWIDTH 8 0
BBX 7 11 0 -1
BITMAP
1800
2940
2954
7000
A0E0
A0E0
A0A0
A0A0
B000
7954
2FE0
ENDCHAR
STARTCHAR odieresis
ENCODING 246
SWIDTH 837 0
DWIDTH 8 0
BBX 7 12 0 -1
BITMAP
0440
2440
3840
2A54
7000
A0E0
A0E0
A0A0
A0A0
B000
7954
2FE0
ENDCHAR
STARTCHAR divide
ENCODING 247
SWIDTH 834 0
DWIDTH 8 0
BBX 8 9 0 -2
BITMAP
0100
0A00
0650
6000
BA59
6A04
0A00
0BD0
0100
ENDCHAR
STARTCHAR oslash
ENCODING 248
SWIDTH 837 0
DWIDTH 8 0
BBX 7 10 0 -2
BITMAP
0154
2014
6090
A190
A060
A560
B100
7454
3AE0
2400
ENDCHAR
STARTCHAR ugrave
ENCODING 249
SWIDTH 846 0
DWIDTH 8 0
BBX 7 12 0 -1
BITMAP
0540
19A8
2800
2094
A0A0
A0A0
A0A0
A0A0
A050
B000
7954
2FE0
ENDCHAR
STARTCHAR uacute
ENCODING 250
SWIDTH 846 0
DWIDTH 8 0
BBX 7 12 0 -1
BITMAP
0014
0AA4
1C04
2160
A0A0
A0A0
A0A0
A0A0
A050
B000
7954
2FE0
ENDCHAR
STARTCHAR ucircumflex
ENCODING 251
SWIDTH 846 0
DWIDTH 8 0
BBX 7 11 0 -1
BITMAP
0400
2EF8
20A0
A0A0
A0A0
A0A0
A0A0
A050
B000
7954
2FE0
ENDCHAR
STARTCHAR udieresis
ENCODING 252
SWIDTH 846 0
DWIDTH 8 0
BBX 8 12 0 -1
BITMAP
0400
1840
3840
25F5
A0A0
A0A0
A0A0
A0A0
A050
B000
7954
2FE0
ENDCHAR
STARTCHAR yacute
ENCODING 253
SWIDTH 805 0
DWIDTH 8 0
BBX 7 12 0 -1
BITMAP
0014
0AA4
2804
2050
A0A0
A0D0
B000
B800
3D00
1E00
0E50
0B80
ENDCHAR
STARTCHAR thorn
ENCODING 254
SWIDTH 792 0
DWIDTH 8 0
BBX 7 9 0 -1
BITMAP
1000
7000
B000
B0D0
B090
B000
B004
B5E0
7D00
ENDCHAR
STARTCHAR ydieresis
ENCODING 255
SWIDTH 805 0
DWIDTH 8 0
BBX 8 12 0 -1
BITMAP
0440
2480
3480
26E5
A0A0
A0D0
A040
B800
3D00
1E00
0E50
0B80
ENDCHAR
STARTCHAR Amacron
ENCODING 256
SWIDTH 830 0
DWIDTH 8 0
BBX 8 11 0 -1
BITMAP
0800
2800
2D54
1800
2440
30D0
6000
A000
A0E0
A5A5
BCBC
ENDCHAR
STARTCHAR amacron
ENCODING 257
SWIDTH 830 0
DWIDTH 8 0
BBX 8 11 0 -1
BITMAP
0800
2800
2D54
1800
2440
30D0
6000
A000
A0E0
A5A5
BCBC
ENDCHAR
STARTCHAR Abreve
ENCODING 258
SWIDTH 830 0
DWIDTH 8 0
BBX 8 12 0 -1
BITMAP
0010
1800
2D00
2D54
1800
2441
30D0
6000
A000
A0E0
A5A5
BCBC
ENDCHAR
STARTCHAR abreve
ENCODING 259
SWIDTH 830 0
DWIDTH 8 0
BBX 8 12 0 -1
BITMAP
0010
1800
2D00
2D54
1800
2441
30D0
6000
A000
A0E0
A5A5
BCBC
ENDCHAR
STARTCHAR Aogonek
ENCODING 260
SWIDTH 830 0
DWIDTH 8 0
BBX 8 12 0 -4
BITMAP
0400
1800
2440
30D0
6000
A000
A0E0
A5A0
BC91
00E0
00FD
0010
ENDCHAR
STARTCHAR aogonek
ENCODING 261
SWIDTH 830 0
DWIDTH 8 0
BBX 8 12 0 -4
BITMAP
0400
1800
2440
30D0
6000
A000
A0E0
A5A0
BC91
00E0
00FD
0010
ENDCHAR
STARTCHAR Cacute
ENCODING 262
SWIDTH 728 0
DWIDTH 7 0
BBX 7 12 0 -1
BITMAP
0014
0AA4
2804
2940
1000
60F4
A040
A000
A000
B000
7954
2FF4
ENDCHAR
STARTCHAR cacute
ENCODING 263
SWIDTH 728 0
DWIDTH 7 0
BBX 7 12 0 -1
BITMAP
0014
0AA4
2804
2940
1000
60F4
A040
A000
A000
B000
7954
2FF4
ENDCHAR
STARTCHAR Ccircumflex
ENCODING 264
SWIDTH 728 0
DWIDTH 7 0
BBX 7 11 0 -1
BITMAP
0400
29A4
3900
2000
60F4
A040
A000
A000
B000
7954
2FF4
ENDCHAR
STARTCHAR ccircumflex
ENCODING 265
SWIDTH 728 0
DWIDTH 7 0
BBX 7 11 0 -1
BITMAP
0400
29A4
3900
2000
60F4
A040
A000
A000
B000
7954
2FF4
ENDCHAR
STARTCHAR Cdotaccent
ENCODING 266
SWIDTH 728 0
DWIDTH 7 0
BBX 7 11 0 -1
BITMAP
0600
0A00
0500
2000
60F4
A040
A000
A000
B000
7954
2FF4
ENDCHAR
STARTCHAR cdotaccent
ENCODING 267
SWIDTH 728 0
DWIDTH 7 0
BBX 7 11 0 -1
BITMAP
0600
0A00
0500
2000
60F4
A040
A000
A000
B000
7954
2FF4
ENDCHAR
STARTCHAR Ccaron
ENCODING 268
SWIDTH 728 0
DWIDTH 7 0
BBX 7 12 0 -1
BITMAP
0404
2800
3D10
1900
1000
60F4
A040
A000
A000
B000
7954
2FF4
ENDCHAR
STARTCHAR ccaron
ENCODING 269
SWIDTH 728 0
DWIDTH 7 0
BBX 7 12 0 -1
BITMAP
0404
2800
3D10
1900
1000
60F4
A040
A000
A000
B000
7954
2FF4
ENDCHAR
STARTCHAR Dcaron
ENCODING 270
SWIDTH 846 0
DWIDTH 8 0
BBX 7 12 0 -1
BITMAP
0400
1800
2E10
2000
7000
B090
B0A0
B0A0
B050
B000
B554
7FE4
ENDCHAR
STARTCHAR dcaron
ENCODING 271
SWIDTH 846 0
DWIDTH 8 0
BBX 7 12 0 -1
BITMAP
0400
1800
2E10
2000
7000
B090
B0A0
B0A0
B050
B000
B554
7FE4
ENDCHAR
STARTCHAR Dcroat
ENCODING 272
SWIDTH 856 0
DWIDTH 9 0
BBX 7 9 0 -1
BITMAP
1000
7000
70A0
9130
D030
F0A0
B000
7554
7FE4
ENDCHAR
STARTCHAR dcroat
ENCODING 273
SWIDTH 856 0
DWIDTH 9 0
BBX 7 9 0 -1
BITMAP
1000
7000
70A0
9130
D030
F0A0
B000
7554
7FE4
ENDCHAR
STARTCHAR Emacron
ENCODING 274
SWIDTH 754 0
DWIDTH 8 0
BBX 7 11 0 -1
BITMAP
1400
3400
3000
7000
B0A8
B000
B050
B090
B000
B554
7FF4
ENDCHAR
STARTCHAR emacron
ENCODING 275
SWIDTH 754 0
DWIDTH 8 0
BBX 7 11 0 -1
BITMAP
1400
3400
3000
7000
B0A8
B000
B050
B090
B000
B554
7FF4
ENDCHAR
STARTCHAR Ebreve
ENCODING 276
SWIDTH 754 0
DWIDTH 8 0
BBX 7 12 0 -1
BITMAP
0410
2400
3900
2000
7000
B0A8
B000
B050
B090
B000
B554
7FF4
ENDCHAR
STARTCHAR ebreve
ENCODING 277
SWIDTH 754 0
DWIDTH 8 0
BBX 7 12 0 -1
BITMAP
0410
2400
3900
2000
7000
B0A8
B000
B050
B090
B000
B554
7FF4
ENDCHAR
STARTCHAR Edotaccent
ENCODING 278
SWIDTH 754 0
DWIDTH 8 0
BBX 7 12 0 -1
BITMAP
0100
0900
0D00
1000
7000
B0A8
B000
B050
B090
B000
B554
7FF4
ENDCHAR
STARTCHAR edotaccent
ENCODING 279
SWIDTH 754 0
DWIDTH 8 0
BBX 7 12 0 -1
BITMAP
0100
0900
0D00
1000
7000
B0A8
B000
B050
B090
B000
B554
7FF4
ENDCHAR
STARTCHAR Eogonek
ENCODING 280
SWIDTH 754 0
DWIDTH 8 0
BBX 7 12 0 -4
BITMAP
1000
7000
B0A8
B000
B050
B090
B000
B540
7F84
02C0
02F8
0050
ENDCHAR
STARTCHAR eogonek
ENCODING 281
SWIDTH 754 0
DWIDTH 8 0
BBX 7 12 0 -4
BITMAP
1000
7000
B0A8
B000
B050
B090
B000
B540
7F84
02C0
02F8
0050
ENDCHAR
STARTCHAR Ecaron
ENCODING 282
SWIDTH 754 0
DWIDTH 8 0
BBX 7 12 0 -1
BITMAP
0404
2400
3D10
2000
7000
B0A8
B000
B050
B090
B000
B554
7FF4
ENDCHAR
STARTCHAR ecaron
ENCODING 283
SWIDTH 754 0
DWIDTH 8 0
BBX 7 12 0 -1
BITMAP
0404
2400
3D10
2000
7000
B0A8
B000
B050
B090
B000
B554
7FF4
ENDCHAR
STARTCHAR Gcircumflex
ENCODING 284
SWIDTH 808 0
DWIDTH 8 0
BBX 8 11 0 -1
BITMAP
0400
1EA4
2400
1000
60F4
A050
A090
A050
B000
7955
2FF8
ENDCHAR
STARTCHAR gcircumflex
ENCODING 285
SWIDTH 808 0
DWIDTH 8 0
BBX 8 11 0 -1
BITMAP
0400
1EA4
2400
1000
60F4
A050
A090
A050
B000
7955
2FF8
ENDCHAR
STARTCHAR Gbreve
ENCODING 286
SWIDTH 808 0
DWIDTH 8 0
BBX 8 12 0 -1
BITMAP
0010
1800
2D00
1900
1000
60F4
A050
A090
A050
B000
7955
2FF8
ENDCHAR
STARTCHAR gbreve
ENCODING 287
SWIDTH 808 0
DWIDTH 8 0
BBX 8 12 0 -1
BITMAP
0010
1800
2D00
1900
1000
60F4
A050
A090
A050
B000
7955
2FF8
ENDCHAR
STARTCHAR Gdotaccent
ENCODING 288
SWIDTH 808 0
DWIDTH 8 0
BBX 8 11 0 -1
BITMAP
0600
0A00
0500
2000
60F4
A050
A090
A050
B000
7955
2FF8
ENDCHAR
STARTCHAR gdotaccent
ENCODING 289
SWIDTH 808 0
DWIDTH 8 0
BBX 8 11 0 -1
BITMAP
0600
0A00
0500
2000
60F4
A050
A090
A050
B000
7955
2FF8
ENDCHAR
STARTCHAR Gcommaaccent
ENCODING 290
SWIDTH 808 0
DWIDTH 8 0
BBX 8 13 0 -5
BITMAP
0150
2000
60F4
A050
A090
A050
B400
7E5A
2E08
0A00
0B50
07D0
0500
ENDCHAR
STARTCHAR gcommaaccent
ENCODING 291
SWIDTH 808 0
DWIDTH 8 0
BBX 8 13 0 -5
BITMAP
0150
2000
60F4
A050
A090
A050
B400
7E5A
2E08
0A00
0B50
07D0
0500
ENDCHAR
STARTCHAR Hcircumflex
ENCODING 292
SWIDTH 859 0
DWIDTH 9 0
BBX 8 11 0 -1
BITMAP
0400
1DA4
20A0
70A0
B050
B004
B000
B0E0
B0A0
B5B5
7DBD
ENDCHAR
STARTCHAR hcircumflex
ENCODING 293
SWIDTH 859 0
DWIDTH 9 0
BBX 8 11 0 -1
BITMAP
0400
1DA4
20A0
70A0
B050
B004
B000
B0E0
B0A0
B5B5
7DBD
ENDCHAR
STARTCHAR Hbar
ENCODING 294
SWIDTH 879 0
DWIDTH 9 0
BBX 9 9 0 -1
BITMAP
101000
606000
910000
F0A040
B00000
710000
70B000
75B500
7D7D00
ENDCHAR
STARTCHAR hbar
ENCODING 295
SWIDTH 879 0
DWIDTH 9 0
BBX 9 9 0 -1
BITMAP
101000
606000
910000
F0A040
B00000
710000
70B000
75B500
7D7D00
ENDCHAR
STARTCHAR Itilde
ENCODING 296
SWIDTH 705 0
DWIDTH 7 0
BBX 7 11 0 -1
BITMAP
2000
7500
6000
A000
BC24
1C00
1C00
1800
6000
A554
BFE0
ENDCHAR
STARTCHAR itilde
ENCODING 297
SWIDTH 705 0
DWIDTH 7 0
BBX 7 11 0 -1
BITMAP
2000
7500
6000
A000
BC24
1C00
1C00
1800
6000
A554
BFE0
ENDCHAR
STARTCHAR Imacron
ENCODING 298
SWIDTH 705 0
DWIDTH 7 0
BBX 7 11 0 -1
BITMAP
2000
7000
7554
6000
BC24
1C00
1C00
1800
6000
A554
BFE0
ENDCHAR
STARTCHAR imacron
ENCODING 299
SWIDTH 705 0
DWIDTH 7 0
BBX 7 11 0 -1
BITMAP
2000
7000
7554
6000
BC24
1C00
1C00
1800
6000
A554
BFE0
ENDCHAR
STARTCHAR Ibreve
ENCODING 300
SWIDTH 705 0
DWIDTH 7 0
BBX 7 11 0 -1
BITMAP
3000
7400
2000
A000
BC24
1C00
1C00
1800
6000
A554
BFE0
ENDCHAR
STARTCHAR ibreve
ENCODING 301
SWIDTH 705 0
DWIDTH 7 0
BBX 7 11 0 -1
BITMAP
3000
7400
2000
A000
BC24
1C00
1C00
1800
6000
A554
BFE0
ENDCHAR
STARTCHAR Iogonek
ENCODING 302
SWIDTH 705 0
DWIDTH 7 0
BBX 7 12 0 -4
BITMAP
1000
A000
BC24
1C00
1C00
1800
6000
A504
BF54
0740
03F4
0040
ENDCHAR
STARTCHAR iogonek
ENCODING 303
SWIDTH 705 0
DWIDTH 7 0
BBX 7 12 0 -4
BITMAP
1000
A000
BC24
1C00
1C00
1800
6000
A504
BF54
0740
03F4
0040
ENDCHAR
STARTCHAR Idotaccent
ENCODING 304
SWIDTH 705 0
DWIDTH 7 0
BBX 7 11 0 -1
BITMAP
0C00
1C00
1000
A000
BC24
1C00
1C00
1800
6000
A554
BFE0
ENDCHAR
STARTCHAR dotlessi
ENCODING 305
SWIDTH 705 0
DWIDTH 7 0
BBX 7 9 0 -1
BITMAP
1000
A000
BC24
1C00
1C00
1800
6000
A554
BFE0
ENDCHAR
STARTCHAR IJ
ENCODING 306
SWIDTH 844 0
DWIDTH 8 0
BBX 7 9 0 -1
BITMAP
1010
70A0
B0E0
B0E0
B9E0
6890
6000
B554
7FE0
ENDCHAR
STARTCHAR ij
ENCODING 307
SWIDTH 844 0
DWIDTH 8 0
BBX 7 9 0 -1
BITMAP
1010
70A0
B0E0
B0E0
B9E0
6890
6000
B554
7FE0
ENDCHAR
STARTCHAR Jcircumflex
ENCODING 308
SWIDTH 788 0
DWIDTH 8 0
BBX 8 11 0 -1
BITMAP
0100
07AA
06C1
01C0
01C0
01C0
61C0
A040
A000
B954
2FD0
ENDCHAR
STARTCHAR jcircumflex
ENCODING 309
SWIDTH 788 0
DWIDTH 8 0
BBX 8 11 0 -1
BITMAP
0100
07AA
06C1
01C0
01C0
01C0
61C0
A040
A000
B954
2FD0
ENDCHAR
STARTCHAR Kcommaaccent
ENCODING 310
SWIDTH 846 0
DWIDTH 8 0
BBX 8 13 0 -5
BITMAP
1011
7080
B040
B000
B050
B0E0
B0A0
B555
7F0D
0A00
0B50
07D0
0500
ENDCHAR
STARTCHAR kcommaaccent
ENCODING 311
SWIDTH 846 0
DWIDTH 8 0
BBX 8 13 0 -5
BITMAP
1011
7080
B040
B000
B050
B0E0
B0A0
B555
7F0D
0A00
0B50
07D0
0500
ENDCHAR
STARTCHAR kgreenlandic
ENCODING 312
SWIDTH 846 0
DWIDTH 8 0
BBX 8 9 0 -1
BITMAP
1011
7080
B040
B000
B050
B0E0
B0A0
B5B5
7DBD
ENDCHAR
STARTCHAR Lacute
ENCODING 313
SWIDTH 795 0
DWIDTH 8 0
BBX 8 12 0 -1
BITMAP
0150
2A90
7010
6540
7000
B000
B010
B090
B050
B000
B555
7FF8
ENDCHAR
STARTCHAR lacute
ENCODING 314
SWIDTH 795 0
DWIDTH 8 0
BBX 8 12 0 -1
BITMAP
0150
2A90
7010
6540
7000
B000
B010
B090
B050
B000
B555
7FF8
ENDCHAR
STARTCHAR Lcommaaccent
ENCODING 315
SWIDTH 795 0
DWIDTH 8 0
BBX 8 13 0 -5
BITMAP
1000
7000
B000
B010
B090
B050
B000
BA5A
7E08
0A00
0A50
0BD0
0500
ENDCHAR
STARTCHAR lcommaaccent
ENCODING 316
SWIDTH 795 0
DWIDTH 8 0
BBX 8 13 0 -5
BITMAP
1000
7000
B000
B010
B090
B050
B000
BA5A
7E08
0A00
0A50
0BD0
0500
ENDCHAR
STARTCHAR Lcaron
ENCODING 317
SWIDTH 795 0
DWIDTH 8 0
BBX 8 9 0 -1
BITMAP
1050
70D0
B0D0
B0E4
B090
B050
B000
B555
7FF8
ENDCHAR
STARTCHAR lcaron
ENCODING 318
SWIDTH 795 0
DWIDTH 8 0
BBX 8 9 0 -1
BITMAP
1050
70D0
B0D0
B0E4
B090
B050
B000
B555
7FF8
ENDCHAR
STARTCHAR Ldot
ENCODING 319
SWIDTH 795 0
DWIDTH 8 0
BBX 8 9 0 -1
BITMAP
1000
7010
B090
B0E1
B0E8
B050
B000
B555
7FF8
ENDCHAR
STARTCHAR ldot
ENCODING 320
SWIDTH 795 0
DWIDTH 8 0
BBX 8 9 0 -1
BITMAP
1000
7010
B090
B0E1
B0E8
B050
B000
B555
7FF8
ENDCHAR
STARTCHAR Lslash
ENCODING 321
SWIDTH 805 0
DWIDTH 8 0
BBX 8 9 0 -1
BITMAP
1000
7000
6000
9110
E0A0
F050
7000
7555
7FF8
ENDCHAR
STARTCHAR lslash
ENCODING 322
SWIDTH 805 0
DWIDTH 8 0
BBX 8 9 0 -1
BITMAP
1000
7000
6000
9110
E0A0
F050
7000
7555
7FF8
ENDCHAR
STARTCHAR Nacute
ENCODING 323
SWIDTH 853 0
DWIDTH 9 0
BBX 8 12 0 -1
BITMAP
0014
06A4
1C04
2160
7060
B010
B000
B080
B0D0
B0E0
B5B5
7DBD
ENDCHAR
STARTCHAR nacute
ENCODING 324
SWIDTH 853 0
DWIDTH 9 0
BBX 8 12 0 -1
BITMAP
0014
06A4
1C04
2160
7060
B010
B000
B080
B0D0
B0E0
B5B5
7DBD
ENDCHAR
STARTCHAR Ncommaaccent
ENCODING 325
SWIDTH 853 0
DWIDTH 9 0
BBX 8 13 0 -5
BITMAP
1010
7060
B010
B000
B080
B0D0
B0E0
B555
7F0D
0A00
0B50
07D0
0540
ENDCHAR
STARTCHAR ncommaaccent
ENCODING 326
SWIDTH 853 0
DWIDTH 9 0
BBX 8 13 0 -5
BITMAP
1010
7060
B010
B000
B080
B0D0
B0E0
B555
7F0D
0A00
0B50
07D0
0540
ENDCHAR
STARTCHAR Ncaron
ENCODING 327
SWIDTH 853 0
DWIDTH 9 0
BBX 8 12 0 -1
BITMAP
0404
2800
2E10
21A0
7060
B010
B000
B080
B0D0
B0E0
B5B5
7DBD
ENDCHAR
STARTCHAR ncaron
ENCODING 328
SWIDTH 853 0
DWIDTH 9 0
BBX 8 12 0 -1
BITMAP
0404
2800
2E10
21A0
7060
B010
B000
B080
B0D0
B0E0
B5B5
7DBD
ENDCHAR
STARTCHAR napostrophe
ENCODING 329
SWIDTH 853 0
DWIDTH 9 0
BBX 8 12 0 -1
BITMAP
6000
B400
B000
B525
7060
B010
B000
B080
B0D0
B0E0
B5B5
7DBD
ENDCHAR
STARTCHAR Eng
ENCODING 330
SWIDTH 846 0
DWIDTH 8 0
BBX 7 10 0 -2
BITMAP
0554
2000
60E0
A0E0
A0A0
A0A0
A090
B580
BF94
02E4
ENDCHAR
STARTCHAR eng
ENCODING 331
SWIDTH 846 0
DWIDTH 8 0
BBX 7 10 0 -2
BITMAP
0554
2000
60E0
A0E0
A0A0
A0A0
A090
B580
BF94
02E4
ENDCHAR
STARTCHAR Omacron
ENCODING 332
SWIDTH 837 0
DWIDTH 8 0
BBX 7 11 0 -1
BITMAP
1800
2800
2A54
7000
A0E0
A0E0
A0A0
A0A0
B000
7954
2FE0
ENDCHAR
STARTCHAR omacron
ENCODING 333
SWIDTH 837 0
DWIDTH 8 0
BBX 7 11 0 -1
BITMAP
1800
2800
2A54
7000
A0E0
A0E0
A0A0
A0A0
B000
7954
2FE0
ENDCHAR
STARTCHAR Obreve
ENCODING 334
SWIDTH 837 0
DWIDTH 8 0
BBX 7 12 0 -1
BITMAP
0410
1800
2D04
1954
7000
A0E0
A0E0
A0A0
A0A0
B000
7954
2FE0
ENDCHAR
STARTCHAR obreve
ENCODING 335
SWIDTH 837 0
DWIDTH 8 0
BBX 7 12 0 -1
BITMAP
0410
1800
2D04
1954
7000
A0E0
A0E0
A0A0
A0A0
B000
7954
2FE0
ENDCHAR
STARTCHAR Ohungarumlaut
ENCODING 336
SWIDTH 837 0
DWIDTH 8 0
BBX 7 13 0 -1
BITMAP
0100
0860
1C50
2890
2A54
7000
A0E0
A0E0
A0A0
A0A0
B000
7954
2FE0
ENDCHAR
STARTCHAR ohungarumlaut
ENCODING 337
SWIDTH 837 0
DWIDTH 8 0
BBX 7 13 0 -1
BITMAP
0100
0860
1C50
2890
2A54
7000
A0E0
A0E0
A0A0
A0A0
B000
7954
2FE0
ENDCHAR
STARTCHAR OE
ENCODING 338
SWIDTH 1115 0
DWIDTH 11 0
BBX 11 8 0 -1
BITMAP
200000
60E0A4
A0E000
A0E050
A05090
B00000
795554
2FFFE0
ENDCHAR
STARTCHAR oe
ENCODING 339
SWIDTH 1115 0
DWIDTH 11 0
BBX 11 8 0 -1
BITMAP
200000
60E0A4
A0E000
A0E050
A05090
B00000
795554
2FFFE0
ENDCHAR
STARTCHAR Racute
ENCODING 340
SWIDTH 843 0
DWIDTH 8 0
BBX 8 12 0 -1
BITMAP
0054
0AA4
2804
2140
7040
B0D0
B041
B000
B0F0
B0B0
B5B5
7D7D
ENDCHAR
STARTCHAR racute
ENCODING 341
SWIDTH 843 0
DWIDTH 8 0
BBX 8 12 0 -1
BITMAP
0054
0AA4
2804
2140
7040
B0D0
B041
B000
B0F0
B0B0
B5B5
7D7D
ENDCHAR
STARTCHAR Rcommaaccent
ENCODING 342
SWIDTH 843 0
DWIDTH 8 0
BBX 8 13 0 -5
BITMAP
1150
7000
B0D0
B050
B000
B0F0
B0B0
B555
7F09
0A00
0B50
07D0
0540
ENDCHAR
STARTCHAR rcommaaccent
ENCODING 343
SWIDTH 843 0
DWIDTH 8 0
BBX 8 13 0 -5
BITMAP
1150
7000
B0D0
B050
B000
B0F0
B0B0
B555
7F09
0A00
0B50
07D0
0540
ENDCHAR
STARTCHAR Rcaron
ENCODING 344
SWIDTH 843 0
DWIDTH 8 0
BBX 8 12 0 -1
BITMAP
0400
2800
2E10
2000
7040
B0D0
B041
B000
B0F0
B0B0
B5B5
7D7D
ENDCHAR
STARTCHAR rcaron
ENCODING 345
SWIDTH 843 0
DWIDTH 8 0
BBX 8 12 0 -1
BITMAP
0400
2800
2E10
2000
7040
B0D0
B041
B000
B0F0
B0B0
B5B5
7D7D
ENDCHAR
STARTCHAR Sacute
ENCODING 346
SWIDTH 750 0
DWIDTH 8 0
BBX 7 12 0 -1
BITMAP
0054
0AA4
3404
3500
2000
A0B4
A000
B500
6A80
6000
A554
BFD0
ENDCHAR
STARTCHAR sacute
ENCODING 347
SWIDTH 750 0
DWIDTH 8 0
BBX 7 12 0 -1
BITMAP
0054
0AA4
3404
3500
2000
A0B4
A000
B500
6A80
6000
A554
BFD0
ENDCHAR
STARTCHAR Scircumflex
ENCODING 348
SWIDTH 750 0
DWIDTH 8 0
BBX 7 11 0 -1
BITMAP
0400
3A94
3404
2000
A0B4
A000
B500
6A80
6000
A554
BFD0
ENDCHAR
STARTCHAR scircumflex
ENCODING 349
SWIDTH 750 0
DWIDTH 8 0
BBX 7 11 0 -1
BITMAP
0400
3A94
3404
2000
A0B4
A000
B500
6A80
6000
A554
BFD0
ENDCHAR
STARTCHAR Scedilla
ENCODING 350
SWIDTH 750 0
DWIDTH 8 0
BBX 7 11 0 -3
BITMAP
0004
2000
A0B4
A000
B500
6A80
6000
A414
BC10
1F40
0400
ENDCHAR
STARTCHAR scedilla
ENCODING 351
SWIDTH 750 0
DWIDTH 8 0
BBX 7 11 0 -3
BITMAP
0004
2000
A0B4
A000
B500
6A80
6000
A414
BC10
1F40
0400
ENDCHAR
STARTCHAR Scaron
ENCODING 352
SWIDTH 750 0
DWIDTH 8 0
BBX 7 12 0 -1
BITMAP
0400
3400
3D10
2404
1000
A0B4
A000
B500
6A80
6000
A554
BFD0
ENDCHAR
STARTCHAR scaron
ENCODING 353
SWIDTH 750 0
DWIDTH 8 0
BBX 7 12 0 -1
BITMAP
0400
3400
3D10
2404
1000
A0B4
A000
B500
6A80
6000
A554
BFD0
ENDCHAR
STARTCHAR Tcommaaccent
ENCODING 354
SWIDTH 756 0
DWIDTH 8 0
BBX 7 13 0 -5
BITMAP
1550
D000
FD18
1D10
0D00
0D00
0D00
0E50
0D00
0D00
0E40
0F80
0500
ENDCHAR
STARTCHAR tcommaaccent
ENCODING 355
SWIDTH 756 0
DWIDTH 8 0
BBX 7 13 0 -5
BITMAP
1550
D000
FD18
1D10
0D00
0D00
0D00
0E50
0D00
0D00
0E40
0F80
0500
ENDCHAR
STARTCHAR Tcaron
ENCODING 356
SWIDTH 756 0
DWIDTH 8 0
BBX 7 12 0 -1
BITMAP
1400
3400
3D10
1000
D000
FD18
1D10
0D00
0D00
0D00
0D50
0F80
ENDCHAR
STARTCHAR tcaron
ENCODING 357
SWIDTH 756 0
DWIDTH 8 0
BBX 7 12 0 -1
BITMAP
1400
3400
3D10
1000
D000
FD18
1D10
0D00
0D00
0D00
0D50
0F80
ENDCHAR
STARTCHAR Tbar
ENCODING 358
SWIDTH 756 0
DWIDTH 8 0
BBX 7 9 0 -1
BITMAP
1000
D000
F918
6814
2040
7814
2D00
0D50
0F80
ENDCHAR
STARTCHAR tbar
ENCODING 359
SWIDTH 756 0
DWIDTH 8 0
BBX 7 9 0 -1
BITMAP
1000
D000
F918
6814
2040
7814
2D00
0D50
0F80
ENDCHAR
STARTCHAR Utilde
ENCODING 360
SWIDTH 846 0
DWIDTH 8 0
BBX 7 11 0 -1
BITMAP
0800
2940
20E0
A0A0
A0A0
A0A0
A0A0
A050
B000
7954
2FE0
ENDCHAR
STARTCHAR utilde
ENCODING 361
SWIDTH 846 0
DWIDTH 8 0
BBX 7 11 0 -1
BITMAP
0800
2940
20E0
A0A0
A0A0
A0A0
A0A0
A050
B000
7954
2FE0
ENDCHAR
STARTCHAR Umacron
ENCODING 362
SWIDTH 846 0
DWIDTH 8 0
BBX 8 11 0 -1
BITMAP
0800
2800
25F5
60A0
A0A0
A0A0
A0A0
A050
B000
7954
2FE0
ENDCHAR
STARTCHAR umacron
ENCODING 363
SWIDTH 846 0
DWIDTH 8 0
BBX 8 11 0 -1
BITMAP
0800
2800
25F5
60A0
A0A0
A0A0
A0A0
A050
B000
7954
2FE0
ENDCHAR
STARTCHAR Ubreve
ENCODING 364
SWIDTH 846 0
DWIDTH 8 0
BBX 7 12 0 -1
BITMAP
0010
1800
2D00
20E0
60A0
A0A0
A0A0
A0A0
A050
B000
7954
2FE0
ENDCHAR
STARTCHAR ubreve
ENCODING 365
SWIDTH 846 0
DWIDTH 8 0
BBX 7 12 0 -1
BITMAP
0010
1800
2D00
20E0
60A0
A0A0
A0A0
A0A0
A050
B000
7954
2FE0
ENDCHAR
STARTCHAR Uring
ENCODING 366
SWIDTH 846 0
DWIDTH 8 0
BBX 7 13 0 -1
BITMAP
0400
1890
2840
2D00
20E0
A0A0
A0A0
A0A0
A0A0
A0A0
B050
7954
2FE0
ENDCHAR
STARTCHAR uring
ENCODING 367
SWIDTH 846 0
DWIDTH 8 0
BBX 7 13 0 -1
BITMAP
0400
1890
2840
2D00
20E0
A0A0
A0A0
A0A0
A0A0
A0A0
B050
7954
2FE0
ENDCHAR
STARTCHAR Uhungarumlaut
ENCODING 368
SWIDTH 846 0
DWIDTH 8 0
BBX 8 13 0 -1
BITMAP
0100
0920
1C60
1890
25F5
60A0
A0A0
A0A0
A0A0
A050
B000
7954
2FE0
ENDCHAR
STARTCHAR uhungarumlaut
ENCODING 369
SWIDTH 846 0
DWIDTH 8 0
BBX 8 13 0 -1
BITMAP
0100
0920
1C60
1890
25F5
60A0
A0A0
A0A0
A0A0
A050
B000
7954
2FE0
ENDCHAR
STARTCHAR Uogonek
ENCODING 370
SWIDTH 846 0
DWIDTH 8 0
BBX 8 12 0 -4
BITMAP
1010
A0A0
A0A0
A0A0
A0A0
A050
B001
7D05
2F04
0740
07E0
0140
ENDCHAR
STARTCHAR uogonek
ENCODING 371
SWIDTH 846 0
DWIDTH 8 0
BBX 8 12 0 -4
BITMAP
1010
A0A0
A0A0
A0A0
A0A0
A050
B001
7D05
2F04
0740
07E0
0140
ENDCHAR
STARTCHAR Wcircumflex
ENCODING 372
SWIDTH 931 0
DWIDTH 9 0
BBX 8 11 0 -1
BITMAP
0500
0D64
20B8
A028
A058
A044
A000
B010
B020
79B5
3E7D
ENDCHAR
STARTCHAR wcircumflex
ENCODING 373
SWIDTH 931 0
DWIDTH 9 0
BBX 8 11 0 -1
BITMAP
0500
0D64
20B8
A028
A058
A044
A000
B010
B020
79B5
3E7D
ENDCHAR
STARTCHAR Ycircumflex
ENCODING 374
SWIDTH 805 0
DWIDTH 8 0
BBX 7 11 0 -1
BITMAP
0400
2AE4
21A0
A0A0
A0D0
B040
B800
3D00
1E00
0E50
0B80
ENDCHAR
STARTCHAR ycircumflex
ENCODING 375
SWIDTH 805 0
DWIDTH 8 0
BBX 7 11 0 -1
BITMAP
0400
2AE4
21A0
A0A0
A0D0
B040
B800
3D00
1E00
0E50
0B80
ENDCHAR
STARTCHAR Ydieresis
ENCODING 376
SWIDTH 805 0
DWIDTH 8 0
BBX 8 12 0 -1
BITMAP
0440
2480
3480
26E5
A0A0
A0D0
A040
B800
3D00
1E00
0E50
0B80
ENDCHAR
STARTCHAR Zacute
ENCODING 377
SWIDTH 760 0
DWIDTH 8 0
BBX 7 12 0 -1
BITMAP
0054
0AA4
3404
2100
A000
BF00
1900
1400
2000
A000
A554
BFF4
ENDCHAR
STARTCHAR zacute
ENCODING 378
SWIDTH 760 0
DWIDTH 8 0
BBX 7 12 0 -1
BITMAP
0054
0AA4
3404
2100
A000
BF00
1900
1400
2000
A000
A554
BFF4
ENDCHAR
STARTCHAR Zdotaccent
ENCODING 379
SWIDTH 760 0
DWIDTH 8 0
BBX 7 12 0 -1
BITMAP
0100
0900
0D00
1000
A000
BF00
1900
1400
2000
A000
A554
BFF4
ENDCHAR
STARTCHAR zdotaccent
ENCODING 380
SWIDTH 760 0
DWIDTH 8 0
BBX 7 12 0 -1
BITMAP
0100
0900
0D00
1000
A000
BF00
1900
1400
2000
A000
A554
BFF4
ENDCHAR
STARTCHAR Zcaron
ENCODING 381
SWIDTH 760 0
DWIDTH 8 0
BBX 7 12 0 -1
BITMAP
1400
3400
3D10
2000
6000
BF00
1900
1400
2000
A000
A554
BFF4
ENDCHAR
STARTCHAR zcaron
ENCODING 382
SWIDTH 760 0
DWIDTH 8 0
BBX 7 12 0 -1
BITMAP
1400
3400
3D10
2000
6000
BF00
1900
1400
2000
A000
A554
BFF4
ENDCHAR
STARTCHAR Schwa
ENCODING 399
SWIDTH 815 0
DWIDTH 8 0
BBX 7 9 0 -1
BITMAP
0554
3400
3FE0
2000
A000
A0E0
B000
B954
2FE0
ENDCHAR
STARTCHAR florin
ENCODING 402
SWIDTH 674 0
DWIDTH 7 0
BBX 7 8 0 -1
BITMAP
0814
1410
1000
A000
B810
6000
A500
B900
ENDCHAR
STARTCHAR Ohorn
ENCODING 416
SWIDTH 847 0
DWIDTH 8 0
BBX 7 10 0 -1
BITMAP
0004
0004
2000
60E0
A0E0
A0A0
A0A0
B000
B954
2FE0
ENDCHAR
STARTCHAR ohorn
ENCODING 417
SWIDTH 847 0
DWIDTH 8 0
BBX 7 10 0 -1
BITMAP
0004
0004
2000
60E0
A0E0
A0A0
A0A0
B000
B954
2FE0
ENDCHAR
STARTCHAR Uhorn
ENCODING 431
SWIDTH 856 0
DWIDTH 9 0
BBX 7 10 0 -1
BITMAP
0008
1020
A0A0
A0A0
A0A0
A0A0
A050
B000
7954
2FE0
ENDCHAR
STARTCHAR uhorn
ENCODING 432
SWIDTH 856 0
DWIDTH 9 0
BBX 7 10 0 -1
BITMAP
0008
1020
A0A0
A0A0
A0A0
A0A0
A050
B000
7954
2FE0
ENDCHAR
STARTCHAR Acaron
ENCODING 461
SWIDTH 830 0
DWIDTH 8 0
BBX 8 12 0 -1
BITMAP
0404
2800
2E10
1C00
1800
2440
30D0
6000
A000
A0E0
A5A5
BCBC
ENDCHAR
STARTCHAR acaron
ENCODING 462
SWIDTH 830 0
DWIDTH 8 0
BBX 8 12 0 -1
BITMAP
0404
2800
2E10
1C00
1800
2440
30D0
6000
A000
A0E0
A5A5
BCBC
ENDCHAR
STARTCHAR Icaron
ENCODING 463
SWIDTH 705 0
DWIDTH 7 0
BBX 7 12 0 -1
BITMAP
1000
7000
7910
2000
A000
BC24
1C00
1C00
1800
6000
A554
BFE0
ENDCHAR
STARTCHAR icaron
ENCODING 464
SWIDTH 705 0
DWIDTH 7 0
BBX 7 12 0 -1
BITMAP
1000
7000
7910
2000
A000
BC24
1C00
1C00
1800
6000
A554
BFE0
ENDCHAR
STARTCHAR Ocaron
ENCODING 465
SWIDTH 837 0
DWIDTH 8 0
BBX 7 12 0 -1
BITMAP
0404
2800
2E14
1900
2000
A0E0
A0E0
A0A0
A0A0
B000
7954
2FE0
ENDCHAR
STARTCHAR ocaron
ENCODING 466
SWIDTH 837 0
DWIDTH 8 0
BBX 7 12 0 -1
BITMAP
0404
2800
2E14
1900
2000
A0E0
A0E0
A0A0
A0A0
B000
7954
2FE0
ENDCHAR
STARTCHAR Ucaron
ENCODING 467
SWIDTH 846 0
DWIDTH 8 0
BBX 7 12 0 -1
BITMAP
0400
1800
2E10
20A0
A0A0
A0A0
A0A0
A0A0
A050
B000
7954
2FE0
ENDCHAR
STARTCHAR ucaron
ENCODING 468
SWIDTH 846 0
DWIDTH 8 0
BBX 7 12 0 -1
BITMAP
0400
1800
2E10
20A0
A0A0
A0A0
A0A0
A0A0
A050
B000
7954
2FE0
ENDCHAR
STARTCHAR Udieresismacron
ENCODING 469
SWIDTH 846 0
DWIDTH 8 0
BBX 8 13 0 -1
BITMAP
1800
2994
2840
3840
25F5
A0A0
A0A0
A0A0
A0A0
A050
B000
7954
2FE0
ENDCHAR
STARTCHAR udieresismacron
ENCODING 470
SWIDTH 846 0
DWIDTH 8 0
BBX 8 13 0 -1
BITMAP
1800
2994
2840
3840
25F5
A0A0
A0A0
A0A0
A0A0
A050
B000
7954
2FE0
ENDCHAR
STARTCHAR Udieresisacute
ENCODING 471
SWIDTH 846 0
DWIDTH 8 0
BBX 8 14 0 -1
BITMAP
00B4
0390
0610
1840
3840
25F5
A0A0
A0A0
A0A0
A0A0
A050
B000
7954
2FE0
ENDCHAR
STARTCHAR udieresisacute
ENCODING 472
SWIDTH 846 0
DWIDTH 8 0
BBX 8 14 0 -1
BITMAP
00B4
0390
0610
1840
3840
25F5
A0A0
A0A0
A0A0
A0A0
A050
B000
7954
2FE0
ENDCHAR
STARTCHAR Udieresiscaron
ENCODING 473
SWIDTH 846 0
DWIDTH 8 0
BBX 8 14 0 -1
BITMAP
0900
2D04
1AA4
1840
3840
25F5
A0A0
A0A0
A0A0
A0A0
A050
B000
7954
2FE0
ENDCHAR
STARTCHAR udieresiscaron
ENCODING 474
SWIDTH 846 0
DWIDTH 8 0
BBX 8 14 0 -1
BITMAP
0900
2D04
1AA4
1840
3840
25F5
A0A0
A0A0
A0A0
A0A0
A050
B000
7954
2FE0
ENDCHAR
STARTCHAR Udieresisgrave
ENCODING 475
SWIDTH 846 0
DWIDTH 8 0
BBX 8 14 0 -1
BITMAP
02E0
0A50
0950
1840
3840
25F5
A0A0
A0A0
A0A0
A0A0
A050
B000
7954
2FE0
ENDCHAR
STARTCHAR udieresisgrave
ENCODING 476
SWIDTH 846 0
DWIDTH 8 0
BBX 8 14 0 -1
BITMAP
02E0
0A50
0950
1840
3840
25F5
A0A0
A0A0
A0A0
A0A0
A050
B000
7954
2FE0
ENDCHAR
STARTCHAR Gcaron
ENCODING 486
SWIDTH 808 0
DWIDTH 8 0
BBX 8 12 0 -1
BITMAP
0404
2800
2E10
1900
1000
60F4
A050
A090
A050
B000
7955
2FF8
ENDCHAR
STARTCHAR gcaron
ENCODING 487
SWIDTH 808 0
DWIDTH 8 0
BBX 8 12 0 -1
BITMAP
0404
2800
2E10
1900
1000
60F4
A050
A090
A050
B000
7955
2FF8
ENDCHAR
STARTCHAR Scommaaccent
ENCODING 536
SWIDTH 750 0
DWIDTH 8 0
BBX 7 13 0 -5
BITMAP
0154
2000
A0A4
A000
B500
6A80
6000
BA64
BD00
0D10
0E50
0F80
0500
ENDCHAR
STARTCHAR scommaaccent
ENCODING 537
SWIDTH 750 0
DWIDTH 8 0
BBX 7 13 0 -5
BITMAP
0154
2000
A0A4
A000
B500
6A80
6000
BA64
BD00
0D10
0E50
0F80
0500
ENDCHAR
STARTCHAR uni021A
ENCODING 538
SWIDTH 756 0
DWIDTH 8 0
BBX 7 13 0 -5
BITMAP
1550
D000
FD18
1D10
0D00
0D00
0D00
0E50
0D00
0D00
0E40
0F80
0500
ENDCHAR
STARTCHAR uni021B
ENCODING 539
SWIDTH 756 0
DWIDTH 8 0
BBX 7 13 0 -5
BITMAP
1550
D000
FD18
1D10
0D00
0D00
0D00
0E50
0D00
0D00
0E40
0F80
0500
ENDCHAR
STARTCHAR dotlessj
ENCODING 567
SWIDTH 788 0
DWIDTH 8 0
BBX 7 9 0 -1
BITMAP
0050
01C0
01C0
01C0
61C0
A040
A000
B954
2FD0
ENDCHAR
STARTCHAR ascript
ENCODING 593
SWIDTH 846 0
DWIDTH 8 0
BBX 8 9 0 -1
BITMAP
0554
2000
60E0
A0E0
A0A0
A0A0
B000
B955
2FFC
ENDCHAR
STARTCHAR schwa
ENCODING 601
SWIDTH 815 0
DWIDTH 8 0
BBX 7 9 0 -1
BITMAP
0554
3400
3FE0
2000
A000
A0E0
B000
B954
2FE0
ENDCHAR
STARTCHAR gscript
ENCODING 609
SWIDTH 815 0
DWIDTH 8 0
BBX 7 11 0 -3
BITMAP
0400
2000
60D0
A090
A004
B400
7FD0
1400
3804
3FF4
1540
ENDCHAR
STARTCHAR commaturnedmod
ENCODING 699
SWIDTH 600 0
DWIDTH 6 0
BBX 4 6 1 2
BITMAP
15
65
D0
E0
FD
10
ENDCHAR
STARTCHAR apostrophemod
ENCODING 700
SWIDTH 600 0
DWIDTH 6 0
BBX 4 6 1 4
BITMAP
10
50
D1
A5
B8
50
ENDCHAR
STARTCHAR ringhalfright
ENCODING 702
SWIDTH 412 0
DWIDTH 4 0
BBX 4 6 0 2
BITMAP
15
F4
A0
A1
F8
50
ENDCHAR
STARTCHAR ringhalfleft
ENCODING 703
SWIDTH 412 0
DWIDTH 4 0
BBX 4 6 0 2
BITMAP
15
91
D1
E4
BD
10
ENDCHAR
STARTCHAR circumflex
ENCODING 710
SWIDTH 600 0
DWIDTH 6 0
BBX 6 3 0 7
BITMAP
1000
A650
ABC0
ENDCHAR
STARTCHAR caron
ENCODING 711
SWIDTH 600 0
DWIDTH 6 0
BBX 6 5 0 6
BITMAP
1000
6410
E450
BF80
1400
ENDCHAR
STARTCHAR verticallinemod
ENCODING 712
SWIDTH 456 0
DWIDTH 5 0
BBX 4 6 0 2
BITMAP
10
A0
A0
A0
BE
14
ENDCHAR
STARTCHAR firsttonechinese
ENCODING 713
SWIDTH 600 0
DWIDTH 6 0
BBX 6 3 0 6
BITMAP
A000
FFD0
5500
ENDCHAR
STARTCHAR secondtonechinese
ENCODING 714
SWIDTH 600 0
DWIDTH 6 0
BBX 6 3 0 6
BITMAP
5000
EA90
A500
ENDCHAR
STARTCHAR fourthtonechinese
ENCODING 715
SWIDTH 600 0
DWIDTH 6 0
BBX 6 4 0 6
BITMAP
1000
A000
FE90
1640
ENDCHAR
STARTCHAR verticallinelowmod
ENCODING 716
SWIDTH 456 0
DWIDTH 5 0
BBX 4 6 0 -3
BITMAP
10
A0
A0
A0
BE
14
ENDCHAR
STARTCHAR breve
ENCODING 728
SWIDTH 600 0
DWIDTH 6 0
BBX 6 5 0 6
BITMAP
1040
6100
F450
BF80
1500
ENDCHAR
STARTCHAR dotaccent
ENCODING 729
SWIDTH 600 0
DWIDTH 6 0
BBX 4 4 1 6
BITMAP
60
E0
FD
50
ENDCHAR
STARTCHAR ring
ENCODING 730
SWIDTH 600 0
DWIDTH 6 0
BBX 6 6 0 6
BITMAP
1000
9340
E000
F450
BF80
1500
ENDCHAR
STARTCHAR ogonek
ENCODING 731
SWIDTH 600 0
DWIDTH 6 0
BBX 4 5 1 -4
BITMAP
10
60
A0
BD
14
ENDCHAR
STARTCHAR tilde
ENCODING 732
SWIDTH 600 0
DWIDTH 6 0
BBX 6 4 0 6
BITMAP
1000
A510
FFC0
5500
ENDCHAR
STARTCHAR hungarumlaut
ENCODING 733
SWIDTH 600 0
DWIDTH 6 0
BBX 8 6 -1 6
BITMAP
0010
1890
24C0
3480
7FE0
1040
ENDCHAR
STARTCHAR gravecmb
ENCODING 768
SWIDTH 100 0
DWIDTH 1 0
BBX 6 4 -3 6
BITMAP
1000
7000
7EA0
1680
ENDCHAR
STARTCHAR acutecmb
ENCODING 769
SWIDTH 100 0
DWIDTH 1 0
BBX 6 3 -3 6
BITMAP
2000
7AA0
6540
ENDCHAR
STARTCHAR circumflexcmb
ENCODING 770
SWIDTH 100 0
DWIDTH 1 0
BBX 6 3 -3 7
BITMAP
1000
7590
7AE0
ENDCHAR
STARTCHAR tildecmb
ENCODING 771
SWIDTH 100 0
DWIDTH 1 0
BBX 6 4 -3 6
BITMAP
2000
7500
7FD0
1540
ENDCHAR
STARTCHAR uni0304
ENCODING 772
SWIDTH 600 0
DWIDTH 6 0
BBX 6 3 0 6
BITMAP
A000
FFD0
5500
ENDCHAR
STARTCHAR brevecmb
ENCODING 774
SWIDTH 100 0
DWIDTH 1 0
BBX 6 5 -3 6
BITMAP
0040
3040
7510
7FD0
1500
ENDCHAR
STARTCHAR dotaccentcmb
ENCODING 775
SWIDTH 100 0
DWIDTH 1 0
BBX 4 4 -2 6
BITMAP
20
70
7E
14
ENDCHAR
STARTCHAR dieresiscmb
ENCODING 776
SWIDTH 100 0
DWIDTH 1 0
BBX 6 5 -3 6
BITMAP
0040
2040
B040
BFE0
1140
ENDCHAR
STARTCHAR hookcmb
ENCODING 777
SWIDTH 100 0
DWIDTH 1 0
BBX 5 5 -2 6
BITMAP
3000
7900
7940
3E00
1000
ENDCHAR
STARTCHAR ringcmb
ENCODING 778
SWIDTH 100 0
DWIDTH 1 0
BBX 6 6 -3 6
BITMAP
1000
3180
7000
7910
7FD0
1500
ENDCHAR
STARTCHAR hungarumlautcmb
ENCODING 779
SWIDTH 100 0
DWIDTH 1 0
BBX 6 5 -3 6
BITMAP
1480
34C0
3180
7FE0
1040
ENDCHAR
STARTCHAR caroncmb
ENCODING 780
SWIDTH 100 0
DWIDTH 1 0
BBX 6 5 -3 6
BITMAP
0400
3500
7550
7F90
0500
ENDCHAR
STARTCHAR horncmb
ENCODING 795
SWIDTH 100 0
DWIDTH 1 0
BBX 3 4 -2 5
BITMAP
04
20
74
74
ENDCHAR
STARTCHAR dotbelowcmb
ENCODING 803
SWIDTH 100 0
DWIDTH 1 0
BBX 4 4 -2 -5
BITMAP
20
70
7E
14
ENDCHAR
STARTCHAR dieresisbelowcmb
ENCODING 804
SWIDTH 100 0
DWIDTH 1 0
BBX 6 5 -3 -4
BITMAP
0040
2040
B040
BFE0
1140
ENDCHAR
STARTCHAR commaaccent
ENCODING 806
SWIDTH 600 0
DWIDTH 6 0
BBX 4 6 1 -5
BITMAP
10
50
D1
A5
B8
50
ENDCHAR
STARTCHAR cedillacmb
ENCODING 807
SWIDTH 100 0
DWIDTH 1 0
BBX 4 5 -2 -3
BITMAP
04
20
70
BD
10
ENDCHAR
STARTCHAR ogonekcmb
ENCODING 808
SWIDTH 100 0
DWIDTH 1 0
BBX 4 5 -1 -4
BITMAP
10
94
D0
FD
10
ENDCHAR
STARTCHAR brevebelowcmb
ENCODING 814
SWIDTH 100 0
DWIDTH 1 0
BBX 6 5 -3 -5
BITMAP
0040
3040
7510
7FD0
1500
ENDCHAR
STARTCHAR macronbelowcmb
ENCODING 817
SWIDTH 100 0
DWIDTH 1 0
BBX 6 3 -3 -5
BITMAP
3000
7FE0
1540
ENDCHAR
STARTCHAR uni0394
ENCODING 916
SWIDTH 830 0
DWIDTH 8 0
BBX 8 9 0 -2
BITMAP
0800
2800
3480
30D0
60E0
A000
A000
BFFD
1550
ENDCHAR
STARTCHAR uni03A9
ENCODING 937
SWIDTH 877 0
DWIDTH 9 0
BBX 8 9 0 -2
BITMAP
0400
3050
70B0
70B0
70B0
6050
A050
FFFE
1414
ENDCHAR
STARTCHAR uni03BC
ENCODING 956
SWIDTH 813 0
DWIDTH 8 0
BBX 6 8 0 -2
BITMAP
6050
A0D0
A0D0
A090
A000
A000
B5E0
6800
ENDCHAR
STARTCHAR pi
ENCODING 960
SWIDTH 821 0
DWIDTH 8 0
BBX 8 8 0 -2
BITMAP
1000
6000
A090
A0D0
A0D0
A0E0
BDFD
1010
ENDCHAR
STARTCHAR Ddotbelow
ENCODING 7692
SWIDTH 846 0
DWIDTH 8 0
BBX 8 12 0 -4
BITMAP
1000
7000
B090
B0A0
B0A0
B050
B001
BA59
7E04
0A00
0BD0
0100
ENDCHAR
STARTCHAR ddotbelow
ENCODING 7693
SWIDTH 846 0
DWIDTH 8 0
BBX 8 12 0 -4
BITMAP
1000
7000
B090
B0A0
B0A0
B050
B001
BA59
7E04
0A00
0BD0
0100
ENDCHAR
STARTCHAR Dlinebelow
ENCODING 7694
SWIDTH 846 0
DWIDTH 8 0
BBX 7 12 0 -4
BITMAP
1000
7000
B090
B0A0
B0A0
B050
B000
B000
7AA8
1800
2FF4
0540
ENDCHAR
STARTCHAR dlinebelow
ENCODING 7695
SWIDTH 846 0
DWIDTH 8 0
BBX 7 12 0 -4
BITMAP
1000
7000
B090
B0A0
B0A0
B050
B000
B000
7AA8
1800
2FF4
0540
ENDCHAR
STARTCHAR Gmacron
ENCODING 7712
SWIDTH 808 0
DWIDTH 8 0
BBX 8 11 0 -1
BITMAP
0800
2C00
2E54
1000
60F4
A050
A090
A050
B000
7955
2FF8
ENDCHAR
STARTCHAR gmacron
ENCODING 7713
SWIDTH 808 0
DWIDTH 8 0
BBX 8 11 0 -1
BITMAP
0800
2C00
2E54
1000
60F4
A050
A090
A050
B000
7955
2FF8
ENDCHAR
STARTCHAR Hdotbelow
ENCODING 7716
SWIDTH 859 0
DWIDTH 9 0
BBX 8 12 0 -4
BITMAP
1010
70A0
B050
B004
B000
B0E0
B0A0
B5B5
7D6D
0600
0BE0
0100
ENDCHAR
STARTCHAR hdotbelow
ENCODING 7717
SWIDTH 859 0
DWIDTH 9 0
BBX 8 12 0 -4
BITMAP
1010
70A0
B050
B004
B000
B0E0
B0A0
B5B5
7D6D
0600
0BE0
0100
ENDCHAR
STARTCHAR Hbrevebelow
ENCODING 7722
SWIDTH 859 0
DWIDTH 9 0
BBX 7 12 0 -4
BITMAP
1010
70A0
B050
B004
B000
B0E0
B0A0
B0A0
79A4
1C00
1FA0
0540
ENDCHAR
STARTCHAR hbrevebelow
ENCODING 7723
SWIDTH 859 0
DWIDTH 9 0
BBX 7 12 0 -4
BITMAP
1010
70A0
B050
B004
B000
B0E0
B0A0
B0A0
79A4
1C00
1FA0
0540
ENDCHAR
STARTCHAR Ldotbelow
ENCODING 7734
SWIDTH 795 0
DWIDTH 8 0
BBX 8 12 0 -4
BITMAP
1000
7000
B000
B010
B090
B050
B000
BA59
7E08
0A00
0BD0
0100
ENDCHAR
STARTCHAR ldotbelow
ENCODING 7735
SWIDTH 795 0
DWIDTH 8 0
BBX 8 12 0 -4
BITMAP
1000
7000
B000
B010
B090
B050
B000
BA59
7E08
0A00
0BD0
0100
ENDCHAR
STARTCHAR Ldotbelowmacron
ENCODING 7736
SWIDTH 795 0
DWIDTH 8 0
BBX 8 14 0 -4
BITMAP
1800
3800
35F0
B040
B000
B010
B090
B050
B000
BA59
7E08
0A00
0BD0
0100
ENDCHAR
STARTCHAR ldotbelowmacron
ENCODING 7737
SWIDTH 795 0
DWIDTH 8 0
BBX 8 14 0 -4
BITMAP
1800
3800
35F0
B040
B000
B010
B090
B050
B000
BA59
7E08
0A00
0BD0
0100
ENDCHAR
STARTCHAR Llinebelow
ENCODING 7738
SWIDTH 795 0
DWIDTH 8 0
BBX 8 12 0 -4
BITMAP
1000
7000
B000
B010
B090
B050
B000
B959
7800
2800
3FF0
0540
ENDCHAR
STARTCHAR llinebelow
ENCODING 7739
SWIDTH 795 0
DWIDTH 8 0
BBX 8 12 0 -4
BITMAP
1000
7000
B000
B010
B090
B050
B000
B959
7800
2800
3FF0
0540
ENDCHAR
STARTCHAR Mdotbelow
ENCODING 7746
SWIDTH 949 0
DWIDTH 9 0
BBX 9 12 0 -4
BITMAP
100400
702000
B01000
B00000
B08800
B0F800
B06800
B52940
7D1B40
034000
03F000
014000
ENDCHAR
STARTCHAR mdotbelow
ENCODING 7747
SWIDTH 949 0
DWIDTH 9 0
BBX 9 12 0 -4
BITMAP
100400
702000
B01000
B00000
B08800
B0F800
B06800
B52940
7D1B40
034000
03F000
014000
ENDCHAR
STARTCHAR Ndotaccent
ENCODING 7748
SWIDTH 853 0
DWIDTH 9 0
BBX 8 11 0 -1
BITMAP
0600
0A00
11F0
7060
B010
B000
B080
B0D0
B0E0
B5B5
7DBD
ENDCHAR
STARTCHAR ndotaccent
ENCODING 7749
SWIDTH 853 0
DWIDTH 9 0
BBX 8 11 0 -1
BITMAP
0600
0A00
11F0
7060
B010
B000
B080
B0D0
B0E0
B5B5
7DBD
ENDCHAR
STARTCHAR Ndotbelow
ENCODING 7750
SWIDTH 853 0
DWIDTH 9 0
BBX 8 12 0 -4
BITMAP
1010
7060
B010
B000
B080
B0D0
B0E0
B5B5
7D6D
0600
0BE0
0100
ENDCHAR
STARTCHAR ndotbelow
ENCODING 7751
SWIDTH 853 0
DWIDTH 9 0
BBX 8 12 0 -4
BITMAP
1010
7060
B010
B000
B080
B0D0
B0E0
B5B5
7D6D
0600
0BE0
0100
ENDCHAR
STARTCHAR Nlinebelow
ENCODING 7752
SWIDTH 853 0
DWIDTH 9 0
BBX 8 12 0 -4
BITMAP
1010
7060
B010
B000
B080
B0D0
B0E0
B0A0
7965
1C00
2FF4
0540
ENDCHAR
STARTCHAR nlinebelow
ENCODING 7753
SWIDTH 853 0
DWIDTH 9 0
BBX 8 12 0 -4
BITMAP
1010
7060
B010
B000
B080
B0D0
B0E0
B0A0
7965
1C00
2FF4
0540
ENDCHAR
STARTCHAR Rdotbelow
ENCODING 7770
SWIDTH 843 0
DWIDTH 8 0
BBX 8 12 0 -4
BITMAP
1000
7040
B0D0
B041
B000
B0F0
B0B0
B5B5
7D6D
0700
0BE0
0140
ENDCHAR
STARTCHAR rdotbelow
ENCODING 7771
SWIDTH 843 0
DWIDTH 8 0
BBX 8 12 0 -4
BITMAP
1000
7040
B0D0
B041
B000
B0F0
B0B0
B5B5
7D6D
0700
0BE0
0140
ENDCHAR
STARTCHAR Rdotbelowmacron
ENCODING 7772
SWIDTH 843 0
DWIDTH 8 0
BBX 8 14 0 -4
BITMAP
1400
3400
3554
7040
B0D0
B041
B000
B0F0
B0B0
B5B5
7D6D
0700
0BE0
0140
ENDCHAR
STARTCHAR rdotbelowmacron
ENCODING 7773
SWIDTH 843 0
DWIDTH 8 0
BBX 8 14 0 -4
BITMAP
1400
3400
3554
7040
B0D0
B041
B000
B0F0
B0B0
B5B5
7D6D
0700
0BE0
0140
ENDCHAR
STARTCHAR Rlinebelow
ENCODING 7774
SWIDTH 843 0
DWIDTH 8 0
BBX 8 12 0 -4
BITMAP
1150
7000
B0D0
B041
B000
B050
B0F0
B0B0
7965
2800
2FF4
0540
ENDCHAR
STARTCHAR rlinebelow
ENCODING 7775
SWIDTH 843 0
DWIDTH 8 0
BBX 8 12 0 -4
BITMAP
1150
7000
B0D0
B041
B000
B050
B0F0
B0B0
7965
2800
2FF4
0540
ENDCHAR
STARTCHAR Sdotaccent
ENCODING 7776
SWIDTH 750 0
DWIDTH 8 0
BBX 7 12 0 -1
BITMAP
0100
0900
0D00
0404
2000
A0B4
A000
B500
6A80
6000
A554
BFD0
ENDCHAR
STARTCHAR sdotaccent
ENCODING 7777
SWIDTH 750 0
DWIDTH 8 0
BBX 7 12 0 -1
BITMAP
0100
0900
0D00
0404
2000
A0B4
A000
B500
6A80
6000
A554
BFD0
ENDCHAR
STARTCHAR Sdotbelow
ENCODING 7778
SWIDTH 750 0
DWIDTH 8 0
BBX 7 12 0 -4
BITMAP
0004
2000
A0A4
A000
B500
6A80
6000
BA64
BD00
0D00
0FC0
0500
ENDCHAR
STARTCHAR sdotbelow
ENCODING 7779
SWIDTH 750 0
DWIDTH 8 0
BBX 7 12 0 -4
BITMAP
0004
2000
A0A4
A000
B500
6A80
6000
BA64
BD00
0D00
0FC0
0500
ENDCHAR
STARTCHAR Tdotbelow
ENCODING 7788
SWIDTH 756 0
DWIDTH 8 0
BBX 7 12 0 -4
BITMAP
1000
D000
FD18
1D10
0D00
0D00
0D00
0E50
0D00
0D00
0F80
0500
ENDCHAR
STARTCHAR tdotbelow
ENCODING 7789
SWIDTH 756 0
DWIDTH 8 0
BBX 7 12 0 -4
BITMAP
1000
D000
FD18
1D10
0D00
0D00
0D00
0E50
0D00
0D00
0F80
0500
ENDCHAR
STARTCHAR Tlinebelow
ENCODING 7790
SWIDTH 756 0
DWIDTH 8 0
BBX 7 12 0 -4
BITMAP
1550
D000
FD18
1D10
0D00
0D00
0D00
0D00
0A90
3400
3FF0
1540
ENDCHAR
STARTCHAR tlinebelow
ENCODING 7791
SWIDTH 756 0
DWIDTH 8 0
BBX 7 12 0 -4
BITMAP
1550
D000
FD18
1D10
0D00
0D00
0D00
0D00
0A90
3400
3FF0
1540
ENDCHAR
STARTCHAR Wgrave
ENCODING 7808
SWIDTH 931 0
DWIDTH 9 0
BBX 8 12 0 -1
BITMAP
0140
09A9
1C00
10A4
A028
A058
A044
A000
B010
B020
79B5
3E7D
ENDCHAR
STARTCHAR wgrave
ENCODING 7809
SWIDTH 931 0
DWIDTH 9 0
BBX 8 12 0 -1
BITMAP
0140
09A9
1C00
10A4
A028
A058
A044
A000
B010
B020
79B5
3E7D
ENDCHAR
STARTCHAR Wacute
ENCODING 7810
SWIDTH 931 0
DWIDTH 9 0
BBX 8 12 0 -1
BITMAP
0015
06A9
0D01
1058
A028
A058
A044
A000
B010
B020
79B5
3E7D
ENDCHAR
STARTCHAR wacute
ENCODING 7811
SWIDTH 931 0
DWIDTH 9 0
BBX 8 12 0 -1
BITMAP
0015
06A9
0D01
1058
A028
A058
A044
A000
B010
B020
79B5
3E7D
ENDCHAR
STARTCHAR Wdieresis
ENCODING 7812
SWIDTH 931 0
DWIDTH 9 0
BBX 9 12 0 -1
BITMAP
001000
082000
1C2000
15FD40
606800
A05800
A04400
A00000
A01000
B02000
79B500
3E7D00
ENDCHAR
STARTCHAR wdieresis
ENCODING 7813
SWIDTH 931 0
DWIDTH 9 0
BBX 9 12 0 -1
BITMAP
001000
082000
1C2000
15FD40
606800
A05800
A04400
A00000
A01000
B02000
79B500
3E7D00
ENDCHAR
STARTCHAR Ydotaccent
ENCODING 7822
SWIDTH 805 0
DWIDTH 8 0
BBX 6 11 0 -1
BITMAP
0600
0E00
11E0
A0E0
A0D0
B040
B800
3D00
1E00
0E50
0B80
ENDCHAR
STARTCHAR ydotaccent
ENCODING 7823
SWIDTH 805 0
DWIDTH 8 0
BBX 6 11 0 -1
BITMAP
0600
0E00
11E0
A0E0
A0D0
B040
B800
3D00
1E00
0E50
0B80
ENDCHAR
STARTCHAR Zdotbelow
ENCODING 7826
SWIDTH 760 0
DWIDTH 8 0
BBX 8 12 0 -4
BITMAP
1000
A000
BE00
1800
1400
2000
A000
BA69
BD14
0D00
0FD0
0500
ENDCHAR
STARTCHAR zdotbelow
ENCODING 7827
SWIDTH 760 0
DWIDTH 8 0
BBX 8 12 0 -4
BITMAP
1000
A000
BE00
1800
1400
2000
A000
BA69
BD14
0D00
0FD0
0500
ENDCHAR
STARTCHAR tdieresis
ENCODING 7831
SWIDTH 756 0
DWIDTH 8 0
BBX 7 12 0 -1
BITMAP
0040
2080
7080
6000
D000
FD18
1D10
0D00
0D00
0D00
0D50
0F80
ENDCHAR
STARTCHAR Germandbls
ENCODING 7838
SWIDTH 859 0
DWIDTH 9 0
BBX 8 9 0 -1
BITMAP
1000
7000
B080
B080
B080
B0F0
B080
B595
7EF8
ENDCHAR
STARTCHAR Adotbelow
ENCODING 7840
SWIDTH 830 0
DWIDTH 8 0
BBX 8 12 0 -4
BITMAP
0400
1800
2440
30D0
6000
A000
A0E0
A5A5
BD6C
0A00
0BD0
0100
ENDCHAR
STARTCHAR adotbelow
ENCODING 7841
SWIDTH 830 0
DWIDTH 8 0
BBX 8 12 0 -4
BITMAP
0400
1800
2440
30D0
6000
A000
A0E0
A5A5
BD6C
0A00
0BD0
0100
ENDCHAR
STARTCHAR Ahookabove
ENCODING 7842
SWIDTH 830 0
DWIDTH 8 0
BBX 8 13 0 -1
BITMAP
0100
0900
0F40
0B50
0400
1800
2440
30D0
6000
A000
A0E0
A5A5
BCBC
ENDCHAR
STARTCHAR ahookabove
ENCODING 7843
SWIDTH 830 0
DWIDTH 8 0
BBX 8 13 0 -1
BITMAP
0100
0900
0F40
0B50
0400
1800
2440
30D0
6000
A000
A0E0
A5A5
BCBC
ENDCHAR
STARTCHAR Acircumflexacute
ENCODING 7844
SWIDTH 830 0
DWIDTH 8 0
BBX 8 14 0 -1
BITMAP
0019
00A4
0084
0400
2EA4
2C00
1800
2440
20D0
6000
A000
A0E0
A5A5
BCBC
ENDCHAR
STARTCHAR acircumflexacute
ENCODING 7845
SWIDTH 830 0
DWIDTH 8 0
BBX 8 14 0 -1
BITMAP
0019
00A4
0084
0400
2EA4
2C00
1800
2440
20D0
6000
A000
A0E0
A5A5
BCBC
ENDCHAR
STARTCHAR Acircumflexgrave
ENCODING 7846
SWIDTH 830 0
DWIDTH 8 0
BBX 8 14 0 -1
BITMAP
0024
00D8
0190
0404
2EA4
2C00
1800
2440
20D0
6000
A000
A0E0
A5A5
BCBC
ENDCHAR
STARTCHAR acircumflexgrave
ENCODING 7847
SWIDTH 830 0
DWIDTH 8 0
BBX 8 14 0 -1
BITMAP
0024
00D8
0190
0404
2EA4
2C00
1800
2440
20D0
6000
A000
A0E0
A5A5
BCBC
ENDCHAR
STARTCHAR Acircumflexhookabove
ENCODING 7848
SWIDTH 830 0
DWIDTH 8 0
BBX 9 14 0 -1
BITMAP
00E400
00E640
006E00
040000
2EA400
2C0000
180000
244000
20D000
600000
A00000
A0E000
A5A500
BCBC00
ENDCHAR
STARTCHAR acircumflexhookabove
ENCODING 7849
SWIDTH 830 0
DWIDTH 8 0
BBX 9 14 0 -1
BITMAP
00E400
00E640
006E00
040000
2EA400
2C0000
180000
244000
20D000
600000
A00000
A0E000
A5A500
BCBC00
ENDCHAR
STARTCHAR Acircumflextilde
ENCODING 7850
SWIDTH 830 0
DWIDTH 8 0
BBX 8 14 0 -1
BITMAP
0800
2944
2E64
1800
2EA4
2C00
1800
2440
20D0
6000
A000
A0E0
A5A5
BCBC
ENDCHAR
STARTCHAR acircumflextilde
ENCODING 7851
SWIDTH 830 0
DWIDTH 8 0
BBX 8 14 0 -1
BITMAP
0800
2944
2E64
1800
2EA4
2C00
1800
2440
20D0
6000
A000
A0E0
A5A5
BCBC
ENDCHAR
STARTCHAR Acircumflexdotbelow
ENCODING 7852
SWIDTH 830 0
DWIDTH 8 0
BBX 8 14 0 -4
BITMAP
0400
2EA4
2C00
1800
2440
20D0
6000
A000
A0E0
A5A5
BD6C
0A00
0BD0
0100
ENDCHAR
STARTCHAR acircumflexdotbelow
ENCODING 7853
SWIDTH 830 0
DWIDTH 8 0
BBX 8 14 0 -4
BITMAP
0400
2EA4
2C00
1800
2440
20D0
6000
A000
A0E0
A5A5
BD6C
0A00
0BD0
0100
ENDCHAR
STARTCHAR Abreveacute
ENCODING 7854
SWIDTH 830 0
DWIDTH 8 0
BBX 8 14 0 -1
BITMAP
0064
0290
0640
1800
2D00
2D54
1800
2441
30D0
6000
A000
A0E0
A5A5
BCBC
ENDCHAR
STARTCHAR abreveacute
ENCODING 7855
SWIDTH 830 0
DWIDTH 8 0
BBX 8 14 0 -1
BITMAP
0064
0290
0640
1800
2D00
2D54
1800
2441
30D0
6000
A000
A0E0
A5A5
BCBC
ENDCHAR
STARTCHAR Abrevegrave
ENCODING 7856
SWIDTH 830 0
DWIDTH 8 0
BBX 8 14 0 -1
BITMAP
0280
0D50
0C00
2800
2D00
2D54
1800
2441
30D0
6000
A000
A0E0
A5A5
BCBC
ENDCHAR
STARTCHAR abrevegrave
ENCODING 7857
SWIDTH 830 0
DWIDTH 8 0
BBX 8 14 0 -1
BITMAP
0280
0D50
0C00
2800
2D00
2D54
1800
2441
30D0
6000
A000
A0E0
A5A5
BCBC
ENDCHAR
STARTCHAR Abrevehookabove
ENCODING 7858
SWIDTH 830 0
DWIDTH 8 0
BBX 8 14 0 -1
BITMAP
0640
0B44
06A4
1850
2D00
2D54
1800
2441
30D0
6000
A000
A0E0
A5A5
BCBC
ENDCHAR
STARTCHAR abrevehookabove
ENCODING 7859
SWIDTH 830 0
DWIDTH 8 0
BBX 8 14 0 -1
BITMAP
0640
0B44
06A4
1850
2D00
2D54
1800
2441
30D0
6000
A000
A0E0
A5A5
BCBC
ENDCHAR
STARTCHAR Abrevetilde
ENCODING 7860
SWIDTH 830 0
DWIDTH 8 0
BBX 8 14 0 -1
BITMAP
0800
2800
2EE4
2800
2D00
1D54
1800
2441
30D0
6000
A000
A0E0
A5A5
BCBC
ENDCHAR
STARTCHAR abrevetilde
ENCODING 7861
SWIDTH 830 0
DWIDTH 8 0
BBX 8 14 0 -1
BITMAP
0800
2800
2EE4
2800
2D00
1D54
1800
2441
30D0
6000
A000
A0E0
A5A5
BCBC
ENDCHAR
STARTCHAR Abrevedotbelow
ENCODING 7862
SWIDTH 830 0
DWIDTH 8 0
BBX 8 15 0 -4
BITMAP
0010
1800
2D00
2D54
1800
2441
30D0
6000
A000
A0E0
A5A5
BD6C
0A00
0BD0
0100
ENDCHAR
STARTCHAR abrevedotbelow
ENCODING 7863
SWIDTH 830 0
DWIDTH 8 0
BBX 8 15 0 -4
BITMAP
0010
1800
2D00
2D54
1800
2441
30D0
6000
A000
A0E0
A5A5
BD6C
0A00
0BD0
0100
ENDCHAR
STARTCHAR Edotbelow
ENCODING 7864
SWIDTH 754 0
DWIDTH 8 0
BBX 8 12 0 -4
BITMAP
1000
7000
B0A8
B000
B050
B090
B000
BA69
7D14
0D10
0FD0
0500
ENDCHAR
STARTCHAR edotbelow
ENCODING 7865
SWIDTH 754 0
DWIDTH 8 0
BBX 8 12 0 -4
BITMAP
1000
7000
B0A8
B000
B050
B090
B000
BA69
7D14
0D10
0FD0
0500
ENDCHAR
STARTCHAR Ehookabove
ENCODING 7866
SWIDTH 754 0
DWIDTH 8 0
BBX 7 12 0 -1
BITMAP
0800
1E40
0A50
1000
7000
B0A8
B000
B050
B090
B000
B554
7FF4
ENDCHAR
STARTCHAR ehookabove
ENCODING 7867
SWIDTH 754 0
DWIDTH 8 0
BBX 7 12 0 -1
BITMAP
0800
1E40
0A50
1000
7000
B0A8
B000
B050
B090
B000
B554
7FF4
ENDCHAR
STARTCHAR Etilde
ENCODING 7868
SWIDTH 754 0
DWIDTH 8 0
BBX 7 11 0 -1
BITMAP
1400
3500
3000
B000
B0A8
B000
B050
B090
B000
B554
7FF4
ENDCHAR
STARTCHAR etilde
ENCODING 7869
SWIDTH 754 0
DWIDTH 8 0
BBX 7 11 0 -1
BITMAP
1400
3500
3000
B000
B0A8
B000
B050
B090
B000
B554
7FF4
ENDCHAR
STARTCHAR Ecircumflexacute
ENCODING 7870
SWIDTH 754 0
DWIDTH 8 0
BBX 7 14 0 -1
BITMAP
0028
00D0
0154
0400
3AA4
3000
7000
B0A8
B000
B050
B090
B000
B554
7FF4
ENDCHAR
STARTCHAR ecircumflexacute
ENCODING 7871
SWIDTH 754 0
DWIDTH 8 0
BBX 7 14 0 -1
BITMAP
0028
00D0
0154
0400
3AA4
3000
7000
B0A8
B000
B050
B090
B000
B554
7FF4
ENDCHAR
STARTCHAR Ecircumflexgrave
ENCODING 7872
SWIDTH 754 0
DWIDTH 8 0
BBX 7 14 0 -1
BITMAP
0054
0198
0250
0400
3AA4
3000
7000
B0A8
B000
B050
B090
B000
B554
7FF4
ENDCHAR
STARTCHAR ecircumflexgrave
ENCODING 7873
SWIDTH 754 0
DWIDTH 8 0
BBX 7 14 0 -1
BITMAP
0054
0198
0250
0400
3AA4
3000
7000
B0A8
B000
B050
B090
B000
B554
7FF4
ENDCHAR
STARTCHAR Ecircumflexhookabove
ENCODING 7874
SWIDTH 754 0
DWIDTH 8 0
BBX 8 14 0 -1
BITMAP
01E4
01E6
016D
1400
3AA4
3000
7000
B0A8
B000
B050
B090
B000
B554
7FF4
ENDCHAR
STARTCHAR ecircumflexhookabove
ENCODING 7875
SWIDTH 754 0
DWIDTH 8 0
BBX 8 14 0 -1
BITMAP
01E4
01E6
016D
1400
3AA4
3000
7000
B0A8
B000
B050
B090
B000
B554
7FF4
ENDCHAR
STARTCHAR Ecircumflextilde
ENCODING 7876
SWIDTH 754 0
DWIDTH 8 0
BBX 7 14 0 -1
BITMAP
1400
3504
3E60
1400
2AA4
3000
7000
B0A8
B000
B050
B090
B000
B554
7FF4
ENDCHAR
STARTCHAR ecircumflextilde
ENCODING 7877
SWIDTH 754 0
DWIDTH 8 0
BBX 7 14 0 -1
BITMAP
1400
3504
3E60
1400
2AA4
3000
7000
B0A8
B000
B050
B090
B000
B554
7FF4
ENDCHAR
STARTCHAR Ecircumflexdotbelow
ENCODING 7878
SWIDTH 754 0
DWIDTH 8 0
BBX 7 14 0 -4
BITMAP
0400
3AA4
3000
7000
B0A8
B000
B050
B090
B000
BA68
7D14
0D00
0FD0
0500
ENDCHAR
STARTCHAR ecircumflexdotbelow
ENCODING 7879
SWIDTH 754 0
DWIDTH 8 0
BBX 7 14 0 -4
BITMAP
0400
3AA4
3000
7000
B0A8
B000
B050
B090
B000
BA68
7D14
0D00
0FD0
0500
ENDCHAR
STARTCHAR Ihookabove
ENCODING 7880
SWIDTH 705 0
DWIDTH 7 0
BBX 7 12 0 -1
BITMAP
1800
2D40
1E90
2000
A000
BC24
1C00
1C00
1800
6000
A554
BFE0
ENDCHAR
STARTCHAR ihookabove
ENCODING 7881
SWIDTH 705 0
DWIDTH 7 0
BBX 7 12 0 -1
BITMAP
1800
2D40
1E90
2000
A000
BC24
1C00
1C00
1800
6000
A554
BFE0
ENDCHAR
STARTCHAR Idotbelow
ENCODING 7882
SWIDTH 705 0
DWIDTH 7 0
BBX 7 12 0 -4
BITMAP
1000
A000
BC24
1C00
1C00
1800
6000
B968
BC20
1C00
1F80
0500
ENDCHAR
STARTCHAR idotbelow
ENCODING 7883
SWIDTH 705 0
DWIDTH 7 0
BBX 7 12 0 -4
BITMAP
1000
A000
BC24
1C00
1C00
1800
6000
B968
BC20
1C00
1F80
0500
ENDCHAR
STARTCHAR Odotbelow
ENCODING 7884
SWIDTH 837 0
DWIDTH 8 0
BBX 7 12 0 -5
BITMAP
2000
60A0
A0E0
A0A0
A0A0
A000
B400
7E54
0A00
0A00
0BD0
0100
ENDCHAR
STARTCHAR odotbelow
ENCODING 7885
SWIDTH 837 0
DWIDTH 8 0
BBX 7 12 0 -5
BITMAP
2000
60A0
A0E0
A0A0
A0A0
A000
B400
7E54
0A00
0A00
0BD0
0100
ENDCHAR
STARTCHAR Ohookabove
ENCODING 7886
SWIDTH 837 0
DWIDTH 8 0
BBX 7 13 0 -1
BITMAP
0100
0900
0F40
0B50
0400
2000
A0E0
A0E0
A0A0
A0A0
B000
7954
2FE0
ENDCHAR
STARTCHAR ohookabove
ENCODING 7887
SWIDTH 837 0
DWIDTH 8 0
BBX 7 13 0 -1
BITMAP
0100
0900
0F40
0B50
0400
2000
A0E0
A0E0
A0A0
A0A0
B000
7954
2FE0
ENDCHAR
STARTCHAR Ocircumflexacute
ENCODING 7888
SWIDTH 837 0
DWIDTH 8 0
BBX 8 14 0 -1
BITMAP
003D
00E0
0029
1800
2DA4
2401
6000
A0E0
A0E0
A0A0
A0A0
B000
7954
2FE0
ENDCHAR
STARTCHAR ocircumflexacute
ENCODING 7889
SWIDTH 837 0
DWIDTH 8 0
BBX 8 14 0 -1
BITMAP
003D
00E0
0029
1800
2DA4
2401
6000
A0E0
A0E0
A0A0
A0A0
B000
7954
2FE0
ENDCHAR
STARTCHAR Ocircumflexgrave
ENCODING 7890
SWIDTH 837 0
DWIDTH 8 0
BBX 8 14 0 -1
BITMAP
0078
01D9
0024
1800
2DA4
2401
6000
A0E0
A0E0
A0A0
A0A0
B000
7954
2FE0
ENDCHAR
STARTCHAR ocircumflexgrave
ENCODING 7891
SWIDTH 837 0
DWIDTH 8 0
BBX 8 14 0 -1
BITMAP
0078
01D9
0024
1800
2DA4
2401
6000
A0E0
A0E0
A0A0
A0A0
B000
7954
2FE0
ENDCHAR
STARTCHAR Ocircumflexhookabove
ENCODING 7892
SWIDTH 837 0
DWIDTH 8 0
BBX 9 14 0 -1
BITMAP
00E400
00E540
016E00
180000
2DA400
240100
600000
A0E000
A0E000
A0A000
A0A000
B00000
795400
2FE000
ENDCHAR
STARTCHAR ocircumflexhookabove
ENCODING 7893
SWIDTH 837 0
DWIDTH 8 0
BBX 9 14 0 -1
BITMAP
00E400
00E540
016E00
180000
2DA400
240100
600000
A0E000
A0E000
A0A000
A0A000
B00000
795400
2FE000
ENDCHAR
STARTCHAR Ocircumflextilde
ENCODING 7894
SWIDTH 837 0
DWIDTH 8 0
BBX 8 14 0 -1
BITMAP
0800
2944
2E64
1800
2DA4
2401
6000
A0E0
A0E0
A0A0
A0A0
B000
7954
2FE0
ENDCHAR
STARTCHAR ocircumflextilde
ENCODING 7895
SWIDTH 837 0
DWIDTH 8 0
BBX 8 14 0 -1
BITMAP
0800
2944
2E64
1800
2DA4
2401
6000
A0E0
A0E0
A0A0
A0A0
B000
7954
2FE0
ENDCHAR
STARTCHAR Ocircumflexdotbelow
ENCODING 7896
SWIDTH 837 0
DWIDTH 8 0
BBX 8 15 0 -5
BITMAP
0504
1800
2DA4
2401
6000
A0E0
A0E0
A0A0
A0A0
B400
7E54
0A00
0A00
0BD0
0100
ENDCHAR
STARTCHAR ocircumflexdotbelow
ENCODING 7897
SWIDTH 837 0
DWIDTH 8 0
BBX 8 15 0 -5
BITMAP
0504
1800
2DA4
2401
6000
A0E0
A0E0
A0A0
A0A0
B400
7E54
0A00
0A00
0BD0
0100
ENDCHAR
STARTCHAR Ohornacute
ENCODING 7898
SWIDTH 847 0
DWIDTH 8 0
BBX 7 12 0 -1
BITMAP
0050
0A94
3404
2544
7000
A0E0
A0E0
A0A0
A0A0
B000
B954
2FE0
ENDCHAR
STARTCHAR ohornacute
ENCODING 7899
SWIDTH 847 0
DWIDTH 8 0
BBX 7 12 0 -1
BITMAP
0050
0A94
3404
2544
7000
A0E0
A0E0
A0A0
A0A0
B000
B954
2FE0
ENDCHAR
STARTCHAR Ohorngrave
ENCODING 7900
SWIDTH 847 0
DWIDTH 8 0
BBX 7 12 0 -1
BITMAP
1FE4
39A8
3404
1810
2000
A0E0
A0E0
A0A0
A0A0
B000
B954
2FE0
ENDCHAR
STARTCHAR ohorngrave
ENCODING 7901
SWIDTH 847 0
DWIDTH 8 0
BBX 7 12 0 -1
BITMAP
1FE4
39A8
3404
1810
2000
A0E0
A0E0
A0A0
A0A0
B000
B954
2FE0
ENDCHAR
STARTCHAR Ohornhookabove
ENCODING 7902
SWIDTH 847 0
DWIDTH 8 0
BBX 7 13 0 -1
BITMAP
0100
0900
0B44
0B58
0404
2000
A0E0
A0E0
A0A0
A0A0
B000
B954
2FE0
ENDCHAR
STARTCHAR ohornhookabove
ENCODING 7903
SWIDTH 847 0
DWIDTH 8 0
BBX 7 13 0 -1
BITMAP
0100
0900
0B44
0B58
0404
2000
A0E0
A0E0
A0A0
A0A0
B000
B954
2FE0
ENDCHAR
STARTCHAR Ohorntilde
ENCODING 7904
SWIDTH 847 0
DWIDTH 8 0
BBX 7 11 0 -1
BITMAP
1404
3504
2804
6000
A0E0
A0E0
A0A0
A0A0
B000
B954
2FE0
ENDCHAR
STARTCHAR ohorntilde
ENCODING 7905
SWIDTH 847 0
DWIDTH 8 0
BBX 7 11 0 -1
BITMAP
1404
3504
2804
6000
A0E0
A0E0
A0A0
A0A0
B000
B954
2FE0
ENDCHAR
STARTCHAR Ohorndotbelow
ENCODING 7906
SWIDTH 847 0
DWIDTH 8 0
BBX 7 13 0 -4
BITMAP
0004
0000
2004
60A0
A0E0
A0A0
A0A0
A000
B400
7E54
0A00
0BE0
0100
ENDCHAR
STARTCHAR ohorndotbelow
ENCODING 7907
SWIDTH 847 0
DWIDTH 8 0
BBX 7 13 0 -4
BITMAP
0004
0000
2004
60A0
A0E0
A0A0
A0A0
A000
B400
7E54
0A00
0BE0
0100
ENDCHAR
STARTCHAR Udotbelow
ENCODING 7908
SWIDTH 846 0
DWIDTH 8 0
BBX 7 12 0 -4
BITMAP
1010
60A0
A0A0
A0A0
A0A0
A050
B000
B400
3E54
0A00
0BE0
0100
ENDCHAR
STARTCHAR udotbelow
ENCODING 7909
SWIDTH 846 0
DWIDTH 8 0
BBX 7 12 0 -4
BITMAP
1010
60A0
A0A0
A0A0
A0A0
A050
B000
B400
3E54
0A00
0BE0
0100
ENDCHAR
STARTCHAR Uhookabove
ENCODING 7910
SWIDTH 846 0
DWIDTH 8 0
BBX 7 12 0 -1
BITMAP
0600
0B50
07A4
10A0
A0A0
A0A0
A0A0
A0A0
A050
B000
7954
2FE0
ENDCHAR
STARTCHAR uhookabove
ENCODING 7911
SWIDTH 846 0
DWIDTH 8 0
BBX 7 12 0 -1
BITMAP
0600
0B50
07A4
10A0
A0A0
A0A0
A0A0
A0A0
A050
B000
7954
2FE0
ENDCHAR
STARTCHAR Uhornacute
ENCODING 7912
SWIDTH 856 0
DWIDTH 9 0
BBX 7 12 0 -1
BITMAP
0054
0A94
3404
3160
A0A0
A0A0
A0A0
A0A0
A050
B000
7954
2FE0
ENDCHAR
STARTCHAR uhornacute
ENCODING 7913
SWIDTH 856 0
DWIDTH 9 0
BBX 7 12 0 -1
BITMAP
0054
0A94
3404
3160
A0A0
A0A0
A0A0
A0A0
A050
B000
7954
2FE0
ENDCHAR
STARTCHAR Uhorngrave
ENCODING 7914
SWIDTH 856 0
DWIDTH 9 0
BBX 7 12 0 -1
BITMAP
1BA4
3AA8
3404
2090
A0A0
A0A0
A0A0
A0A0
A050
B000
7954
2FE0
ENDCHAR
STARTCHAR uhorngrave
ENCODING 7915
SWIDTH 856 0
DWIDTH 9 0
BBX 7 12 0 -1
BITMAP
1BA4
3AA8
3404
2090
A0A0
A0A0
A0A0
A0A0
A050
B000
7954
2FE0
ENDCHAR
STARTCHAR Uhornhookabove
ENCODING 7916
SWIDTH 856 0
DWIDTH 9 0
BBX 7 13 0 -1
BITMAP
0100
0A40
0B44
07AC
10A0
A0A0
A0A0
A0A0
A0A0
A050
B000
7954
2FE0
ENDCHAR
STARTCHAR uhornhookabove
ENCODING 7917
SWIDTH 856 0
DWIDTH 9 0
BBX 7 13 0 -1
BITMAP
0100
0A40
0B44
07AC
10A0
A0A0
A0A0
A0A0
A0A0
A050
B000
7954
2FE0
ENDCHAR
STARTCHAR Uhorntilde
ENCODING 7918
SWIDTH 856 0
DWIDTH 9 0
BBX 7 11 0 -1
BITMAP
1404
3508
30E0
A0A0
A0A0
A0A0
A0A0
A050
B000
7954
2FE0
ENDCHAR
STARTCHAR uhorntilde
ENCODING 7919
SWIDTH 856 0
DWIDTH 9 0
BBX 7 11 0 -1
BITMAP
1404
3508
30E0
A0A0
A0A0
A0A0
A0A0
A050
B000
7954
2FE0
ENDCHAR
STARTCHAR Uhorndotbelow
ENCODING 7920
SWIDTH 856 0
DWIDTH 9 0
BBX 7 13 0 -4
BITMAP
0004
1010
60A0
A0A0
A0A0
A0A0
A050
B000
B400
3E54
0A00
0BE0
0100
ENDCHAR
STARTCHAR uhorndotbelow
ENCODING 7921
SWIDTH 856 0
DWIDTH 9 0
BBX 7 13 0 -4
BITMAP
0004
1010
60A0
A0A0
A0A0
A0A0
A050
B000
B400
3E54
0A00
0BE0
0100
ENDCHAR
STARTCHAR Ygrave
ENCODING 7922
SWIDTH 805 0
DWIDTH 8 0
BBX 7 12 0 -1
BITMAP
0540
1AA8
3400
2090
A0A0
A0D0
B000
B800
3D00
1E00
0E50
0B80
ENDCHAR
STARTCHAR ygrave
ENCODING 7923
SWIDTH 805 0
DWIDTH 8 0
BBX 7 12 0 -1
BITMAP
0540
1AA8
3400
2090
A0A0
A0D0
B000
B800
3D00
1E00
0E50
0B80
ENDCHAR
STARTCHAR Ydotbelow
ENCODING 7924
SWIDTH 805 0
DWIDTH 8 0
BBX 6 12 0 -4
BITMAP
1110
A0A0
A0D0
B000
B800
2D00
0E00
0E50
0A00
0A00
0FD0
0100
ENDCHAR
STARTCHAR ydotbelow
ENCODING 7925
SWIDTH 805 0
DWIDTH 8 0
BBX 6 12 0 -4
BITMAP
1110
A0A0
A0D0
B000
B800
2D00
0E00
0E50
0A00
0A00
0FD0
0100
ENDCHAR
STARTCHAR Yhookabove
ENCODING 7926
SWIDTH 805 0
DWIDTH 8 0
BBX 6 13 0 -1
BITMAP
0100
0900
0F40
0B50
1190
A0A0
A0D0
B000
B800
3D00
1E00
0E50
0B80
ENDCHAR
STARTCHAR yhookabove
ENCODING 7927
SWIDTH 805 0
DWIDTH 8 0
BBX 6 13 0 -1
BITMAP
0100
0900
0F40
0B50
1190
A0A0
A0D0
B000
B800
3D00
1E00
0E50
0B80
ENDCHAR
STARTCHAR Ytilde
ENCODING 7928
SWIDTH 805 0
DWIDTH 8 0
BBX 6 11 0 -1
BITMAP
1800
2940
21E0
A0A0
A0D0
B000
B800
3D00
1E00
0E50
0B80
ENDCHAR
STARTCHAR ytilde
ENCODING 7929
SWIDTH 805 0
DWIDTH 8 0
BBX 6 11 0 -1
BITMAP
1800
2940
21E0
A0A0
A0D0
B000
B800
3D00
1E00
0E50
0B80
ENDCHAR
STARTCHAR enspace
ENCODING 8192
SWIDTH 500 0
DWIDTH 5 0
BBX 1 1 0 0
BITMAP
00
ENDCHAR
STARTCHAR emspace
ENCODING 8193
SWIDTH 1000 0
DWIDTH 10 0
BBX 1 1 0 0
BITMAP
00
ENDCHAR
STARTCHAR uni2002
ENCODING 8194
SWIDTH 500 0
DWIDTH 5 0
BBX 1 1 0 0
BITMAP
00
ENDCHAR
STARTCHAR uni2003
ENCODING 8195
SWIDTH 1000 0
DWIDTH 10 0
BBX 1 1 0 0
BITMAP
00
ENDCHAR
STARTCHAR space.tab_en
ENCODING 8199
SWIDTH 1100 0
DWIDTH 11 0
BBX 1 1 0 0
BITMAP
00
ENDCHAR
STARTCHAR uni2010
ENCODING 8208
SWIDTH 520 0
DWIDTH 5 0
BBX 5 4 0 1
BITMAP
6000
E000
FF40
1400
ENDCHAR
STARTCHAR figuredash
ENCODING 8210
SWIDTH 834 0
DWIDTH 8 0
BBX 8 4 0 1
BITMAP
6000
B000
BFFD
1550
ENDCHAR
STARTCHAR endash
ENCODING 8211
SWIDTH 834 0
DWIDTH 8 0
BBX 8 4 0 1
BITMAP
6000
B000
BFFD
1550
ENDCHAR
STARTCHAR emdash
ENCODING 8212
SWIDTH 1234 0
DWIDTH 12 0
BBX 12 4 0 1
BITMAP
600000
B00000
BFFFFD
155550
ENDCHAR
STARTCHAR horizontalbar
ENCODING 8213
SWIDTH 1234 0
DWIDTH 12 0
BBX 12 4 0 1
BITMAP
600000
B00000
BFFFFD
155550
ENDCHAR
STARTCHAR quoteleft
ENCODING 8216
SWIDTH 484 0
DWIDTH 5 0
BBX 4 6 0 2
BITMAP
05
61
A0
A0
BE
14
ENDCHAR
STARTCHAR quoteright
ENCODING 8217
SWIDTH 484 0
DWIDTH 5 0
BBX 4 6 0 2
BITMAP
10
A0
B4
B0
79
64
ENDCHAR
STARTCHAR quotesinglbase
ENCODING 8218
SWIDTH 484 0
DWIDTH 5 0
BBX 4 5 0 -3
BITMAP
60
B4
B0
B9
64
ENDCHAR
STARTCHAR quotedblleft
ENCODING 8220
SWIDTH 784 0
DWIDTH 8 0
BBX 8 6 0 2
BITMAP
0554
6185
A040
A080
BFF8
1450
ENDCHAR
STARTCHAR quotedblright
ENCODING 8221
SWIDTH 784 0
DWIDTH 8 0
BBX 7 6 0 2
BITMAP
1040
A040
B494
A080
BAE4
6590
ENDCHAR
STARTCHAR quotedblbase
ENCODING 8222
SWIDTH 784 0
DWIDTH 8 0
BBX 7 6 0 -3
BITMAP
0040
6040
B494
A080
BAE4
6590
ENDCHAR
STARTCHAR dagger
ENCODING 8224
SWIDTH 818 0
DWIDTH 8 0
BBX 8 9 0 -1
BITMAP
0110
0500
6040
A505
BE1D
0A00
0A00
0A50
0BC0
ENDCHAR
STARTCHAR daggerdbl
ENCODING 8225
SWIDTH 818 0
DWIDTH 8 0
BBX 8 9 0 -1
BITMAP
0210
2040
A505
BE1D
1505
A040
A505
AE58
0BC0
ENDCHAR
STARTCHAR bullet
ENCODING 8226
SWIDTH 543 0
DWIDTH 5 0
BBX 5 5 0 0
BITMAP
6000
A000
A000
BF80
1500
ENDCHAR
STARTCHAR ellipsis
ENCODING 8230
SWIDTH 1210 0
DWIDTH 12 0
BBX 12 4 0 -1
BITMAP
605080
A090C0
A5A5D5
BEFEF8
ENDCHAR
STARTCHAR perthousand
ENCODING 8240
SWIDTH 1517 0
DWIDTH 15 0
BBX 15 9 0 -1
BITMAP
05540000
61300000
A2200000
A0114500
B4511110
7EC62120
01C60100
029B5B54
02D7EBE0
ENDCHAR
STARTCHAR minute
ENCODING 8242
SWIDTH 456 0
DWIDTH 5 0
BBX 4 6 0 2
BITMAP
10
60
A0
A0
BD
10
ENDCHAR
STARTCHAR second
ENCODING 8243
SWIDTH 766 0
DWIDTH 8 0
BBX 7 6 0 2
BITMAP
1040
6080
A080
A0C0
BEF4
1050
ENDCHAR
STARTCHAR guilsinglleft
ENCODING 8249
SWIDTH 663 0
DWIDTH 7 0
BBX 6 5 0 0
BITMAP
1000
6090
B000
B940
2BD0
ENDCHAR
STARTCHAR guilsinglright
ENCODING 8250
SWIDTH 663 0
DWIDTH 7 0
BBX 6 6 0 0
BITMAP
2000
7000
7E00
2000
7150
7E40
ENDCHAR
STARTCHAR fraction
ENCODING 8260
SWIDTH 417 0
DWIDTH 4 0
BBX 3 9 0 -1
BITMAP
04
34
30
70
60
A0
90
D4
F4
ENDCHAR
STARTCHAR zero.sups
ENCODING 8304
SWIDTH 656 0
DWIDTH 7 0
BBX 5 6 0 1
BITMAP
5240
9340
9340
9000
A400
2F40
ENDCHAR
STARTCHAR foursuperior
ENCODING 8308
SWIDTH 608 0
DWIDTH 6 0
BBX 6 7 0 1
BITMAP
1140
A240
A240
A400
BF40
17A0
07C0
ENDCHAR
STARTCHAR five.sups
ENCODING 8309
SWIDTH 593 0
DWIDTH 6 0
BBX 5 8 0 0
BITMAP
2500
A180
A000
BA00
6000
A000
BF40
1400
ENDCHAR
STARTCHAR six.sups
ENCODING 8310
SWIDTH 628 0
DWIDTH 6 0
BBX 6 7 0 1
BITMAP
0540
2190
A010
A240
A000
B400
7F40
ENDCHAR
STARTCHAR seven.sups
ENCODING 8311
SWIDTH 577 0
DWIDTH 6 0
BBX 5 8 0 0
BITMAP
1540
A000
FE00
5400
3140
7000
7D00
1000
ENDCHAR
STARTCHAR eight.sups
ENCODING 8312
SWIDTH 638 0
DWIDTH 6 0
BBX 6 7 0 1
BITMAP
0040
2140
7450
6000
6240
B400
7F40
ENDCHAR
STARTCHAR nine.sups
ENCODING 8313
SWIDTH 628 0
DWIDTH 6 0
BBX 6 8 0 0
BITMAP
0140
2240
A010
A010
BA00
3440
7F80
1400
ENDCHAR
STARTCHAR parenleft.sups
ENCODING 8317
SWIDTH 434 0
DWIDTH 4 0
BBX 4 7 0 1
BITMAP
11
90
90
90
90
A0
7D
ENDCHAR
STARTCHAR parenright.sups
ENCODING 8318
SWIDTH 435 0
DWIDTH 4 0
BBX 3 7 0 1
BITMAP
90
B0
34
34
20
50
B4
ENDCHAR
STARTCHAR n.sups
ENCODING 8319
SWIDTH 673 0
DWIDTH 7 0
BBX 6 7 0 1
BITMAP
0040
5200
9340
9240
9240
9240
76D0
ENDCHAR
STARTCHAR zero.sinf
ENCODING 8320
SWIDTH 656 0
DWIDTH 7 0
BBX 5 6 0 -1
BITMAP
5240
9340
9340
9000
A400
2F40
ENDCHAR
STARTCHAR one.sinf
ENCODING 8321
SWIDTH 557 0
DWIDTH 6 0
BBX 5 8 0 -2
BITMAP
1100
6000
B800
2800
2400
A000
BF80
1500
ENDCHAR
STARTCHAR two.sinf
ENCODING 8322
SWIDTH 585 0
DWIDTH 6 0
BBX 5 8 0 -2
BITMAP
1140
7900
7400
1040
A140
E000
FF80
5500
ENDCHAR
STARTCHAR three.sinf
ENCODING 8323
SWIDTH 584 0
DWIDTH 6 0
BBX 5 8 0 -2
BITMAP
1500
B900
7440
3A00
6000
A000
BF40
1400
ENDCHAR
STARTCHAR four.sinf
ENCODING 8324
SWIDTH 620 0
DWIDTH 6 0
BBX 6 7 0 -1
BITMAP
1140
E300
E200
E400
BF00
17A0
0780
ENDCHAR
STARTCHAR five.sinf
ENCODING 8325
SWIDTH 593 0
DWIDTH 6 0
BBX 5 8 0 -2
BITMAP
2500
A180
A000
BA00
6000
A000
BF40
1400
ENDCHAR
STARTCHAR six.sinf
ENCODING 8326
SWIDTH 628 0
DWIDTH 6 0
BBX 6 7 0 -1
BITMAP
0540
2190
A010
A240
A000
B400
7F40
ENDCHAR
STARTCHAR seven.sinf
ENCODING 8327
SWIDTH 577 0
DWIDTH 6 0
BBX 5 8 0 -2
BITMAP
1540
A000
FE00
5400
3140
7000
7D00
1000
ENDCHAR
STARTCHAR eight.sinf
ENCODING 8328
SWIDTH 638 0
DWIDTH 6 0
BBX 6 7 0 -1
BITMAP
0040
2140
7450
6000
6240
B400
7F40
ENDCHAR
STARTCHAR nine.sinf
ENCODING 8329
SWIDTH 628 0
DWIDTH 6 0
BBX 6 8 0 -2
BITMAP
0140
2240
A010
A010
BA00
3440
7F80
1400
ENDCHAR
STARTCHAR parenleft.sinf
ENCODING 8333
SWIDTH 434 0
DWIDTH 4 0
BBX 4 7 0 -1
BITMAP
11
90
90
90
90
A0
7D
ENDCHAR
STARTCHAR parenright.sinf
ENCODING 8334
SWIDTH 435 0
DWIDTH 4 0
BBX 3 7 0 -1
BITMAP
90
B0
34
34
20
50
B4
ENDCHAR
STARTCHAR colonsign
ENCODING 8353
SWIDTH 728 0
DWIDTH 7 0
BBX 7 9 0 -2
BITMAP
0404
1010
60F8
A040
A000
B000
B904
3E54
0BD0
ENDCHAR
STARTCHAR lira
ENCODING 8356
SWIDTH 795 0
DWIDTH 8 0
BBX 8 9 0 -1
BITMAP
0400
2000
6050
A040
D010
E050
B000
B555
7FF8
ENDCHAR
STARTCHAR naira
ENCODING 8358
SWIDTH 853 0
DWIDTH 9 0
BBX 9 9 0 -1
BITMAP
101000
706000
A00000
A04040
D08000
E0D000
B0E000
B5B500
7DBD00
ENDCHAR
STARTCHAR peseta
ENCODING 8359
SWIDTH 812 0
DWIDTH 8 0
BBX 9 9 0 -1
BITMAP
200000
B00000
A0D400
E09140
F00100
B00400
B0F400
B54000
7D0000
ENDCHAR
STARTCHAR dong
ENCODING 8363
SWIDTH 782 0
DWIDTH 8 0
BBX 8 12 0 -4
BITMAP
0040
0610
0B81
1010
6180
A1C0
E000
B400
7AA0
7000
7FE0
1540
ENDCHAR
STARTCHAR Euro
ENCODING 8364
SWIDTH 748 0
DWIDTH 7 0
BBX 7 9 0 -1
BITMAP
0400
2000
7058
A050
A000
F050
B400
7D54
2FF4
ENDCHAR
STARTCHAR peso
ENCODING 8369
SWIDTH 812 0
DWIDTH 8 0
BBX 8 9 0 -1
BITMAP
2000
A000
A0D0
D040
E001
F000
B0E0
B540
BD00
ENDCHAR
STARTCHAR guarani
ENCODING 8370
SWIDTH 788 0
DWIDTH 8 0
BBX 7 10 0 -2
BITMAP
0500
1000
60A8
A0A0
A090
A040
B000
7D08
1F94
0640
ENDCHAR
STARTCHAR cedi
ENCODING 8373
SWIDTH 728 0
DWIDTH 7 0
BBX 7 11 0 -3
BITMAP
0004
0504
1000
60F8
A040
A000
B000
BD04
3E14
0BD0
0100
ENDCHAR
STARTCHAR indianrupee
ENCODING 8377
SWIDTH 713 0
DWIDTH 7 0
BBX 7 9 0 -1
BITMAP
1554
A004
A944
B914
6000
A000
BF80
1794
02E0
ENDCHAR
STARTCHAR turkishlira
ENCODING 8378
SWIDTH 795 0
DWIDTH 8 0
BBX 7 9 0 -1
BITMAP
1000
A040
9440
E440
D0A0
E050
A000
B554
BFD0
ENDCHAR
STARTCHAR ruble
ENCODING 8381
SWIDTH 782 0
DWIDTH 8 0
BBX 7 9 0 -1
BITMAP
1000
7000
B0D0
B040
B000
A064
9050
F540
BD00
ENDCHAR
STARTCHAR liter
ENCODING 8467
SWIDTH 749 0
DWIDTH 7 0
BBX 6 9 0 -2
BITMAP
1000
6040
A080
A000
A050
A000
B400
7FE0
0140
ENDCHAR
STARTCHAR uni2117
ENCODING 8471
SWIDTH 967 0
DWIDTH 10 0
BBX 9 10 0 -2
BITMAP
055500
26AA40
650240
A52140
A55140
A51B40
A61740
B68600
795500
1FF900
ENDCHAR
STARTCHAR uni2120
ENCODING 8480
SWIDTH 1003 0
DWIDTH 10 0
BBX 10 6 0 1
BITMAP
105100
A19000
B55540
A05740
FEF7D0
545100
ENDCHAR
STARTCHAR trademark
ENCODING 8482
SWIDTH 1003 0
DWIDTH 10 0
BBX 10 6 0 1
BITMAP
901100
F5D000
75D540
35D740
3DF7D0
145100
ENDCHAR
STARTCHAR Omega
ENCODING 8486
SWIDTH 877 0
DWIDTH 9 0
BBX 8 9 0 -2
BITMAP
0400
3050
70B0
70B0
70B0
6050
A050
FFFE
1414
ENDCHAR
STARTCHAR estimated
ENCODING 8494
SWIDTH 815 0
DWIDTH 8 0
BBX 8 9 0 -2
BITMAP
1000
6040
A050
A000
A0A9
A000
B400
3FF4
0140
ENDCHAR
STARTCHAR onethird
ENCODING 8531
SWIDTH 1269 0
DWIDTH 13 0
BBX 12 9 0 -1
BITMAP
211400
B82400
783454
2830E5
6020C0
A011E8
BFE140
15E695
00F7F8
ENDCHAR
STARTCHAR twothirds
ENCODING 8532
SWIDTH 1269 0
DWIDTH 13 0
BBX 12 9 0 -1
BITMAP
215400
B52400
692454
6170E5
A050C0
E011E8
FFE140
55E695
00F7F8
ENDCHAR
STARTCHAR oneeighth
ENCODING 8539
SWIDTH 1283 0
DWIDTH 13 0
BBX 12 9 0 -1
BITMAP
251400
B83400
783440
247058
602150
A01118
BFE240
15E695
00F6F8
ENDCHAR
STARTCHAR threeeighths
ENCODING 8540
SWIDTH 1293 0
DWIDTH 13 0
BBX 12 9 0 -1
BITMAP
151800
B92800
742440
3A1488
601080
A0215C
BFA140
14A695
00B6F8
ENDCHAR
STARTCHAR fiveeighths
ENCODING 8541
SWIDTH 1303 0
DWIDTH 13 0
BBX 12 9 0 -1
BITMAP
251800
A16800
A01440
BA1488
601080
A0214C
BFA140
14A695
00BAF9
ENDCHAR
STARTCHAR seveneighths
ENCODING 8542
SWIDTH 1241 0
DWIDTH 12 0
BBX 11 9 0 -1
BITMAP
555400
FE2000
542100
34A114
709244
70D124
7DC200
11D754
01E7F4
ENDCHAR
STARTCHAR arrowleft
ENCODING 8592
SWIDTH 1100 0
DWIDTH 11 0
BBX 8 5 1 -1
BITMAP
2000
7D0A
1F88
06E0
0040
ENDCHAR
STARTCHAR arrowup
ENCODING 8593
SWIDTH 1100 0
DWIDTH 11 0
BBX 7 8 2 -1
BITMAP
0100
0800
1400
2000
A814
AD20
0E40
0A40
ENDCHAR
STARTCHAR arrowright
ENCODING 8594
SWIDTH 1100 0
DWIDTH 11 0
BBX 8 7 1 -1
BITMAP
0300
1510
7000
7A11
6B14
0780
0100
ENDCHAR
STARTCHAR arrowdown
ENCODING 8595
SWIDTH 1100 0
DWIDTH 11 0
BBX 5 8 2 -1
BITMAP
0500
0D00
1400
E000
B800
3D00
1F40
0900
ENDCHAR
STARTCHAR arrowupleft
ENCODING 8598
SWIDTH 1100 0
DWIDTH 11 0
BBX 6 6 2 0
BITMAP
6000
A040
B000
7000
76C0
36D0
ENDCHAR
STARTCHAR arrowupright
ENCODING 8599
SWIDTH 1100 0
DWIDTH 11 0
BBX 6 5 2 0
BITMAP
7400
7840
1000
B6D0
79D0
ENDCHAR
STARTCHAR arrowdownright
ENCODING 8600
SWIDTH 1100 0
DWIDTH 11 0
BBX 7 6 2 0
BITMAP
1040
6000
B840
2000
7940
6BF4
ENDCHAR
STARTCHAR arrowdownleft
ENCODING 8601
SWIDTH 1100 0
DWIDTH 11 0
BBX 6 6 2 0
BITMAP
1440
3000
7000
6000
A160
BE80
ENDCHAR
STARTCHAR uni21AA
ENCODING 8618
SWIDTH 1100 0
DWIDTH 11 0
BBX 8 9 1 -2
BITMAP
1000
71FD
7194
71C0
7004
7E40
1BC4
01D0
0140
ENDCHAR
STARTCHAR uni21AB
ENCODING 8619
SWIDTH 1100 0
DWIDTH 11 0
BBX 8 10 1 -2
BITMAP
0400
1800
2FF8
055C
0018
1040
7815
7E54
0BD0
0140
ENDCHAR
STARTCHAR uni21B0
ENCODING 8624
SWIDTH 1100 0
DWIDTH 11 0
BBX 8 7 1 -2
BITMAP
1040
B814
7E58
0BE8
0168
002E
0004
ENDCHAR
STARTCHAR uni21B1
ENCODING 8625
SWIDTH 1100 0
DWIDTH 11 0
BBX 8 9 1 -2
BITMAP
0080
0280
0410
3041
7184
71D0
7100
7D00
1000
ENDCHAR
STARTCHAR uni21B2
ENCODING 8626
SWIDTH 1100 0
DWIDTH 11 0
BBX 7 8 1 -1
BITMAP
0004
0028
0018
0014
2040
B928
2F90
07D0
ENDCHAR
STARTCHAR uni21B3
ENCODING 8627
SWIDTH 1100 0
DWIDTH 11 0
BBX 8 8 1 -1
BITMAP
2000
A000
A180
B140
B410
7F81
0694
0380
ENDCHAR
STARTCHAR partialdiff
ENCODING 8706
SWIDTH 792 0
DWIDTH 8 0
BBX 7 9 0 -2
BITMAP
1400
3940
3940
2004
A0D0
A040
B400
7FE0
0540
ENDCHAR
STARTCHAR Delta
ENCODING 8710
SWIDTH 830 0
DWIDTH 8 0
BBX 8 9 0 -2
BITMAP
0800
2800
3480
30D0
60E0
A000
A000
BFFD
1550
ENDCHAR
STARTCHAR product
ENCODING 8719
SWIDTH 859 0
DWIDTH 9 0
BBX 8 9 0 -2
BITMAP
2000
B050
B0E0
B0A0
B0A0
B0A0
B0A0
BDBD
1010
ENDCHAR
STARTCHAR summation
ENCODING 8721
SWIDTH 750 0
DWIDTH 8 0
BBX 7 9 0 -2
BITMAP
2000
A014
B424
7D00
1C00
1000
6000
A000
BFF4
ENDCHAR
STARTCHAR minus
ENCODING 8722
SWIDTH 834 0
DWIDTH 8 0
BBX 8 4 0 1
BITMAP
1000
6000
BAA9
6AA4
ENDCHAR
STARTCHAR uni2215
ENCODING 8725
SWIDTH 417 0
DWIDTH 4 0
BBX 3 9 0 -1
BITMAP
04
34
30
70
60
A0
90
D4
F4
ENDCHAR
STARTCHAR uni2219
ENCODING 8729
SWIDTH 464 0
DWIDTH 5 0
BBX 4 4 0 1
BITMAP
60
A0
A5
BD
ENDCHAR
STARTCHAR radical
ENCODING 8730
SWIDTH 841 0
DWIDTH 8 0
BBX 7 10 0 -2
BITMAP
0014
0030
0060
50A0
D090
F840
2C00
1D00
0FE0
0140
ENDCHAR
STARTCHAR infinity
ENCODING 8734
SWIDTH 978 0
DWIDTH 10 0
BBX 9 6 0 0
BITMAP
100000
A15500
A28A00
A05100
B55040
7FFF40
ENDCHAR
STARTCHAR integral
ENCODING 8747
SWIDTH 574 0
DWIDTH 6 0
BBX 6 10 0 -2
BITMAP
0400
1410
3440
3400
3400
3400
3400
5000
D100
F800
ENDCHAR
STARTCHAR approxequal
ENCODING 8776
SWIDTH 834 0
DWIDTH 8 0
BBX 8 6 0 0
BITMAP
1000
7541
BEB8
2000
B555
7BF8
ENDCHAR
STARTCHAR notequal
ENCODING 8800
SWIDTH 834 0
DWIDTH 8 0
BBX 8 8 0 -1
BITMAP
0144
2010
B405
BE1D
2040
B405
BE6C
0F40
ENDCHAR
STARTCHAR lessequal
ENCODING 8804
SWIDTH 814 0
DWIDTH 8 0
BBX 7 8 0 -2
BITMAP
1000
70A4
7000
7900
3000
7000
7FF8
1550
ENDCHAR
STARTCHAR greaterequal
ENCODING 8805
SWIDTH 814 0
DWIDTH 8 0
BBX 7 9 0 -2
BITMAP
2000
7400
7F90
0500
2014
7000
7000
7FF8
1550
ENDCHAR
STARTCHAR block
ENCODING 9608
SWIDTH 1000 0
DWIDTH 10 0
BBX 12 11 -1 -2
BITMAP
7FFFFD
7FFFFD
7FFFFD
7FFFFD
7FFFFD
7FFFFD
7FFFFD
7FFFFD
7FFFFD
7FFFFD
6AAAA9
ENDCHAR
STARTCHAR blacksquare
ENCODING 9632
SWIDTH 1100 0
DWIDTH 11 0
BBX 6 6 2 0
BITMAP
1000
7000
7000
7000
7550
6A90
ENDCHAR
STARTCHAR blackuppointingtriangle
ENCODING 9650
SWIDTH 1100 0
DWIDTH 11 0
BBX 7 6 2 0
BITMAP
0100
0800
1400
2000
6554
AAA0
ENDCHAR
STARTCHAR whiteuppointingtriangle
ENCODING 9651
SWIDTH 1100 0
DWIDTH 11 0
BBX 6 5 3 1
BITMAP
0500
0040
1000
4010
5550
ENDCHAR
STARTCHAR blackrightpointingtriangle
ENCODING 9654
SWIDTH 1100 0
DWIDTH 11 0
BBX 6 6 2 0
BITMAP
6000
7000
7100
7050
7140
7400
ENDCHAR
STARTCHAR whiterightpointingtriangle
ENCODING 9655
SWIDTH 1100 0
DWIDTH 11 0
BBX 6 6 3 1
BITMAP
1000
4400
4040
4010
4140
4400
ENDCHAR
STARTCHAR blackdownpointingtriangle
ENCODING 9660
SWIDTH 1100 0
DWIDTH 11 0
BBX 7 6 2 0
BITMAP
5004
F040
7800
2D00
1F40
0900
ENDCHAR
STARTCHAR whitedownpointingtriangle
ENCODING 9661
SWIDTH 1100 0
DWIDTH 11 0
BBX 6 5 3 1
BITMAP
5550
0010
1040
0400
0100
ENDCHAR
STARTCHAR blackleftpointingtriangle
ENCODING 9664
SWIDTH 1100 0
DWIDTH 11 0
BBX 6 5 2 -1
BITMAP
2000
7D00
1F90
02E0
0040
ENDCHAR
STARTCHAR whiteleftpointingtriangle
ENCODING 9665
SWIDTH 1100 0
DWIDTH 11 0
BBX 5 6 4 1
BITMAP
0100
0440
4040
0040
1040
0540
ENDCHAR
STARTCHAR blackdiamond
ENCODING 9670
SWIDTH 1100 0
DWIDTH 11 0
BBX 4 5 2 -1
BITMAP
50
F4
7D
1F
05
ENDCHAR
STARTCHAR lozenge
ENCODING 9674
SWIDTH 831 0
DWIDTH 8 0
BBX 6 9 0 -2
BITMAP
0400
1800
2090
70D0
B480
7800
2C00
1FE0
0540
ENDCHAR
STARTCHAR uni25D6
ENCODING 9686
SWIDTH 546 0
DWIDTH 5 0
BBX 6 11 0 -2
BITMAP
06A0
1FF0
7FF0
BFF0
BFF0
FFF0
BFF0
BFF0
3FF0
1BF0
01A0
ENDCHAR
STARTCHAR uni25D7
ENCODING 9687
SWIDTH 546 0
DWIDTH 5 0
BBX 7 11 -1 -2
BITMAP
7900
7F80
7FE0
7FF0
7FF4
7FF4
7FF4
7FF0
7FD0
7F80
6900
ENDCHAR
STARTCHAR uni25DC
ENCODING 9692
SWIDTH 1280 0
DWIDTH 13 0
BBX 11 11 1 -2
BITMAP
001AF8
02FFF8
0BFFF8
2FFFF8
3FFFF8
7FFFF8
BFFFF8
BFFFF8
FFFFF8
FFFFF8
AAAAA8
ENDCHAR
STARTCHAR uni25DD
ENCODING 9693
SWIDTH 1280 0
DWIDTH 13 0
BBX 11 11 1 -2
BITMAP
BE9000
FFFD00
FFFF80
FFFFD0
FFFFE0
FFFFF4
FFFFF4
FFFFF8
FFFFF8
FFFFF8
AAAAA8
ENDCHAR
STARTCHAR uni25DE
ENCODING 9694
SWIDTH 1280 0
DWIDTH 13 0
BBX 11 11 1 -2
BITMAP
FFFFF8
FFFFF8
FFFFF8
FFFFF8
FFFFF4
FFFFF4
FFFFE0
FFFFD0
FFFF40
FFF900
AA5000
ENDCHAR
STARTCHAR uni25DF
ENCODING 9695
SWIDTH 1280 0
DWIDTH 13 0
BBX 11 11 1 -2
BITMAP
BFFFF8
FFFFF8
FFFFF8
BFFFF8
BFFFF8
7FFFF8
3FFFF8
1FFFF8
0BFFF8
01BFF8
0016A8
ENDCHAR
STARTCHAR uni261A
ENCODING 9754
SWIDTH 1100 0
DWIDTH 11 0
BBX 8 6 1 0
BITMAP
1005
A900
6E00
0E00
0BA9
059F
ENDCHAR
STARTCHAR uni261B
ENCODING 9755
SWIDTH 1100 0
DWIDTH 11 0
BBX 9 6 1 0
BITMAP
610000
A00240
A00500
A00400
A2A000
B94000
ENDCHAR
STARTCHAR uni261C
ENCODING 9756
SWIDTH 1100 0
DWIDTH 11 0
BBX 8 5 2 1
BITMAP
5556
1406
0406
0506
0156
ENDCHAR
STARTCHAR uni261D
ENCODING 9757
SWIDTH 1100 0
DWIDTH 11 0
BBX 6 8 3 0
BITMAP
1000
1400
1400
0540
0000
1010
1550
6AA0
ENDCHAR
STARTCHAR uni261E
ENCODING 9758
SWIDTH 1100 0
DWIDTH 11 0
BBX 8 6 2 1
BITMAP
1000
5555
5015
5010
5010
5540
ENDCHAR
STARTCHAR uni261F
ENCODING 9759
SWIDTH 1100 0
DWIDTH 11 0
BBX 6 8 3 0
BITMAP
1550
5550
1550
1010
1010
1550
0050
0050
ENDCHAR
STARTCHAR uni27A1
ENCODING 10145
SWIDTH 650 0
DWIDTH 7 0
BBX 8 15 -1 -4
BITMAP
2800
2D00
7F00
7F80
7FE0
7FF4
7FFC
7FFD
7FF8
7FF4
7FD0
7F80
7E00
2D00
2400
ENDCHAR
STARTCHAR uni2B1B
ENCODING 11035
SWIDTH 1280 0
DWIDTH 13 0
BBX 11 11 1 -2
BITMAP
BFFFF8
FFFFF8
FFFFF8
FFFFF8
FFFFF8
FFFFF8
FFFFF8
FFFFF8
FFFFF8
FFFFF8
AAAAA8
ENDCHAR
STARTCHAR uni2B24
ENCODING 11044
SWIDTH 1280 0
DWIDTH 13 0
BBX 12 13 0 -3
BITMAP
000400
01BF90
0BFFF4
1FFFFD
3FFFFE
7FFFFF
7FFFFF
7FFFFF
3FFFFE
1FFFFD
0BFFF4
01BF90
000400
ENDCHAR
STARTCHAR A.salt
ENCODING 57600
SWIDTH 836 0
DWIDTH 8 0
BBX 8 9 0 -2
BITMAP
1000
6050
A0E0
A050
A004
A0E0
A0E0
BDBD
1010
ENDCHAR
STARTCHAR Agrave.salt
ENCODING 57601
SWIDTH 836 0
DWIDTH 8 0
BBX 8 12 0 -2
BITMAP
0400
1800
2E54
1400
6050
A0E0
A050
A004
A0E0
A0E0
BDBD
1010
ENDCHAR
STARTCHAR Aacute.salt
ENCODING 57602
SWIDTH 836 0
DWIDTH 8 0
BBX 8 11 0 -2
BITMAP
0800
2D64
1400
6050
A0E0
A050
A004
A0E0
A0E0
BDBD
1010
ENDCHAR
STARTCHAR Acircumflex.salt
ENCODING 57603
SWIDTH 836 0
DWIDTH 8 0
BBX 8 11 0 -2
BITMAP
0800
2DA4
2400
6050
A0E0
A050
A004
A0E0
A0E0
BDBD
1010
ENDCHAR
STARTCHAR Atilde.salt
ENCODING 57604
SWIDTH 836 0
DWIDTH 8 0
BBX 8 11 0 -2
BITMAP
1800
2D54
2400
6050
A0E0
A050
A004
A0E0
A0E0
BDBD
1010
ENDCHAR
STARTCHAR Adieresis.salt
ENCODING 57605
SWIDTH 836 0
DWIDTH 8 0
BBX 8 12 0 -2
BITMAP
0440
2440
3954
2400
6050
A0E0
A050
A004
A0E0
A0E0
BDBD
1010
ENDCHAR
STARTCHAR Aring.salt
ENCODING 57606
SWIDTH 836 0
DWIDTH 8 0
BBX 8 11 0 -2
BITMAP
1850
2890
2450
6050
A0E0
A050
A004
A0E0
A0E0
BDBD
1010
ENDCHAR
STARTCHAR Amacron.salt
ENCODING 57607
SWIDTH 836 0
DWIDTH 8 0
BBX 8 11 0 -2
BITMAP
1800
2D54
2400
6050
A0E0
A050
A004
A0E0
A0E0
BDBD
1010
ENDCHAR
STARTCHAR Abreve.salt
ENCODING 57608
SWIDTH 836 0
DWIDTH 8 0
BBX 8 12 0 -2
BITMAP
0450
2800
2E54
1400
6050
A0E0
A050
A004
A0E0
A0E0
BDBD
1010
ENDCHAR
STARTCHAR Aogonek.salt
ENCODING 57609
SWIDTH 836 0
DWIDTH 8 0
BBX 8 10 0 -3
BITMAP
1000
6050
A0E0
A050
A004
A0E0
A0E0
BD91
10E5
00BD
ENDCHAR
STARTCHAR E.salt
ENCODING 57610
SWIDTH 743 0
DWIDTH 7 0
BBX 7 9 0 -2
BITMAP
1000
6054
A054
A000
A0A0
A000
B400
3FF4
0140
ENDCHAR
STARTCHAR Egrave.salt
ENCODING 57611
SWIDTH 743 0
DWIDTH 7 0
BBX 7 12 0 -2
BITMAP
0400
2400
3E94
1400
6054
A054
A000
A0A0
A000
B400
3FF4
0140
ENDCHAR
STARTCHAR Eacute.salt
ENCODING 57612
SWIDTH 743 0
DWIDTH 7 0
BBX 7 11 0 -2
BITMAP
1800
2DA4
2400
6054
A054
A000
A0A0
A000
B400
3FF4
0140
ENDCHAR
STARTCHAR Ecircumflex.salt
ENCODING 57613
SWIDTH 743 0
DWIDTH 7 0
BBX 7 11 0 -2
BITMAP
1400
3AA4
2400
6054
A054
A000
A0A0
A000
B400
3FF4
0140
ENDCHAR
STARTCHAR Edieresis.salt
ENCODING 57614
SWIDTH 743 0
DWIDTH 7 0
BBX 7 12 0 -2
BITMAP
0440
2480
3994
2400
6054
A054
A000
A0A0
A000
B400
3FF4
0140
ENDCHAR
STARTCHAR Emacron.salt
ENCODING 57615
SWIDTH 743 0
DWIDTH 7 0
BBX 7 11 0 -2
BITMAP
1800
2D54
2400
6054
A054
A000
A0A0
A000
B400
3FF4
0140
ENDCHAR
STARTCHAR Ebreve.salt
ENCODING 57616
SWIDTH 743 0
DWIDTH 7 0
BBX 7 12 0 -2
BITMAP
0454
2800
2E54
1400
6054
A054
A000
A0A0
A000
B400
3FF4
0140
ENDCHAR
STARTCHAR Edotaccent.salt
ENCODING 57617
SWIDTH 743 0
DWIDTH 7 0
BBX 7 12 0 -2
BITMAP
0100
0A00
0A50
1400
6054
A054
A000
A0A0
A000
B400
3FF4
0140
ENDCHAR
STARTCHAR Eogonek.salt
ENCODING 57618
SWIDTH 743 0
DWIDTH 7 0
BBX 7 9 0 -3
BITMAP
6054
A054
A000
A0A0
A000
B410
3F84
0290
02F4
ENDCHAR
STARTCHAR Ecaron.salt
ENCODING 57619
SWIDTH 743 0
DWIDTH 7 0
BBX 7 12 0 -2
BITMAP
0400
2800
2E64
1400
6054
A054
A000
A0A0
A000
B400
3FF4
0140
ENDCHAR
STARTCHAR I.salt
ENCODING 57620
SWIDTH 471 0
DWIDTH 5 0
BBX 4 9 0 -2
BITMAP
20
B0
B0
B0
B0
B0
B0
BE
10
ENDCHAR
STARTCHAR Igrave.salt
ENCODING 57621
SWIDTH 471 0
DWIDTH 5 0
BBX 5 12 0 -2
BITMAP
1000
A000
F940
6000
B000
B000
B000
B000
B000
B000
BE00
1000
ENDCHAR
STARTCHAR Iacute.salt
ENCODING 57622
SWIDTH 471 0
DWIDTH 5 0
BBX 5 11 0 -2
BITMAP
6000
B640
B000
B000
B000
B000
B000
B000
B000
BE00
1000
ENDCHAR
STARTCHAR Icircumflex.salt
ENCODING 57623
SWIDTH 471 0
DWIDTH 5 0
BBX 5 11 0 -2
BITMAP
9000
EA40
6000
B000
B000
B000
B000
B000
B000
BE00
1000
ENDCHAR
STARTCHAR Idieresis.salt
ENCODING 57624
SWIDTH 471 0
DWIDTH 5 0
BBX 5 12 0 -2
BITMAP
0100
C100
E680
6000
B000
B000
B000
B000
B000
B000
BE00
1000
ENDCHAR
STARTCHAR Itilde.salt
ENCODING 57625
SWIDTH 471 0
DWIDTH 5 0
BBX 5 11 0 -2
BITMAP
8000
E940
6000
B000
B000
B000
B000
B000
B000
BE00
1000
ENDCHAR
STARTCHAR Imacron.salt
ENCODING 57626
SWIDTH 471 0
DWIDTH 5 0
BBX 5 11 0 -2
BITMAP
5000
E540
B000
B000
B000
B000
B000
B000
B000
BE00
1000
ENDCHAR
STARTCHAR Ibreve.salt
ENCODING 57627
SWIDTH 471 0
DWIDTH 5 0
BBX 5 12 -1 -2
BITMAP
1540
7400
3D40
2C00
2C00
2C00
2C00
2C00
2C00
2C00
2F80
0400
ENDCHAR
STARTCHAR Iogonek.salt
ENCODING 57628
SWIDTH 471 0
DWIDTH 5 0
BBX 4 10 0 -3
BITMAP
20
70
70
70
70
70
70
61
B5
7D
ENDCHAR
STARTCHAR Idotaccent.salt
ENCODING 57629
SWIDTH 471 0
DWIDTH 5 0
BBX 4 12 0 -2
BITMAP
10
60
B5
70
B0
B0
B0
B0
B0
B0
BE
10
ENDCHAR
STARTCHAR L.salt
ENCODING 57630
SWIDTH 715 0
DWIDTH 7 0
BBX 7 9 0 -2
BITMAP
2000
B000
B000
B000
B000
B000
B000
BFF4
1540
ENDCHAR
STARTCHAR Lacute.salt
ENCODING 57631
SWIDTH 715 0
DWIDTH 7 0
BBX 7 11 0 -2
BITMAP
2000
B590
7040
B000
B000
B000
B000
B000
B000
BFF4
1540
ENDCHAR
STARTCHAR Lcommaaccent.salt
ENCODING 57632
SWIDTH 715 0
DWIDTH 7 0
BBX 7 12 0 -5
BITMAP
2000
B000
B000
B000
B000
B000
B000
BE64
1D00
0E40
0E40
0A40
ENDCHAR
STARTCHAR Lcaron.salt
ENCODING 57633
SWIDTH 715 0
DWIDTH 7 0
BBX 7 9 0 -2
BITMAP
2080
B0C0
B0E4
B090
B000
B000
B000
BFF4
1540
ENDCHAR
STARTCHAR Ldot.salt
ENCODING 57634
SWIDTH 715 0
DWIDTH 7 0
BBX 7 9 0 -2
BITMAP
2000
B000
B080
B0D4
B0B4
B000
B000
BFF4
1540
ENDCHAR
STARTCHAR Lslash.salt
ENCODING 57635
SWIDTH 725 0
DWIDTH 7 0
BBX 7 9 0 -2
BITMAP
2000
7040
6000
D040
F040
B000
7000
7FF4
1540
ENDCHAR
STARTCHAR M.salt
ENCODING 57636
SWIDTH 1170 0
DWIDTH 12 0
BBX 11 9 0 -2
BITMAP
100000
604440
A0D1C0
A0D1C0
A0D1C0
A0D1C0
A0D1C0
BDFEF8
101040
ENDCHAR
STARTCHAR N.salt
ENCODING 57637
SWIDTH 846 0
DWIDTH 8 0
BBX 8 9 0 -2
BITMAP
1000
6050
A0E0
A0A0
A0A0
A0A0
A0A0
BDBD
1010
ENDCHAR
STARTCHAR Ntilde.salt
ENCODING 57638
SWIDTH 846 0
DWIDTH 8 0
BBX 8 11 0 -2
BITMAP
0800
2D54
2400
6050
A0E0
A0A0
A0A0
A0A0
A0A0
BDBD
1010
ENDCHAR
STARTCHAR Nacute.salt
ENCODING 57639
SWIDTH 846 0
DWIDTH 8 0
BBX 8 11 0 -2
BITMAP
0800
2D54
1400
6050
A0E0
A0A0
A0A0
A0A0
A0A0
BDBD
1010
ENDCHAR
STARTCHAR Ncommaaccent.salt
ENCODING 57640
SWIDTH 846 0
DWIDTH 8 0
BBX 8 12 0 -5
BITMAP
1000
6050
A0E0
A0A0
A0A0
A0A0
A0A0
BE5D
1A04
0B40
0750
0640
ENDCHAR
STARTCHAR Ncaron.salt
ENCODING 57641
SWIDTH 846 0
DWIDTH 8 0
BBX 8 12 0 -2
BITMAP
0400
2C00
2E54
1400
6050
A0E0
A0A0
A0A0
A0A0
A0A0
BDBD
1010
ENDCHAR
STARTCHAR W.salt
ENCODING 57642
SWIDTH 1170 0
DWIDTH 12 0
BBX 11 9 0 -2
BITMAP
209080
A0D1C0
A0D1C0
A0D1C0
A0D1C0
B00400
B40404
3FFFE0
050540
ENDCHAR
STARTCHAR Wcircumflex.salt
ENCODING 57643
SWIDTH 1170 0
DWIDTH 12 0
BBX 11 11 0 -2
BITMAP
014000
02AA40
209180
A0D1C0
A0D1C0
A0D1C0
A0D1C0
B00400
B40404
3FFFE0
050540
ENDCHAR
STARTCHAR Wgrave.salt
ENCODING 57644
SWIDTH 1170 0
DWIDTH 12 0
BBX 11 12 0 -2
BITMAP
004000
034000
02EA40
209180
A0D1C0
A0D1C0
A0D1C0
A0D1C0
B00400
B40404
3FFFE0
050540
ENDCHAR
STARTCHAR Wacute.salt
ENCODING 57645
SWIDTH 1170 0
DWIDTH 12 0
BBX 11 11 0 -2
BITMAP
014000
02AA40
20D080
A0D1C0
A0D1C0
A0D1C0
A0D1C0
B00400
B40404
3FFFE0
050540
ENDCHAR
STARTCHAR Wdieresis.salt
ENCODING 57646
SWIDTH 1170 0
DWIDTH 12 0
BBX 11 12 0 -2
BITMAP
000400
030800
069940
20D180
A0D1C0
A0D1C0
A0D1C0
A0D1C0
B00400
B40404
3FFFE0
050540
ENDCHAR
STARTCHAR X.salt
ENCODING 57647
SWIDTH 837 0
DWIDTH 8 0
BBX 8 9 0 -2
BITMAP
2050
7490
3400
2100
A090
A0E0
A0A0
BDBD
1010
ENDCHAR
STARTCHAR Y.salt
ENCODING 57648
SWIDTH 806 0
DWIDTH 8 0
BBX 7 9 0 -2
BITMAP
6050
A0D0
A0D0
A000
B404
7E00
0E00
0FD0
0100
ENDCHAR
STARTCHAR Yacute.salt
ENCODING 57649
SWIDTH 806 0
DWIDTH 8 0
BBX 7 11 0 -2
BITMAP
1800
29A4
6090
A0D0
A0D0
A000
B404
7E00
0E00
0FD0
0100
ENDCHAR
STARTCHAR Ycircumflex.salt
ENCODING 57650
SWIDTH 806 0
DWIDTH 8 0
BBX 7 11 0 -2
BITMAP
1800
2AE4
6090
A0D0
A0D0
A000
B404
7E00
0E00
0FD0
0100
ENDCHAR
STARTCHAR Ydieresis.salt
ENCODING 57651
SWIDTH 806 0
DWIDTH 8 0
BBX 7 12 0 -2
BITMAP
0440
2480
39E4
60D0
A0D0
A0D0
A000
B404
7E00
0E00
0FD0
0100
ENDCHAR
STARTCHAR Ygrave.salt
ENCODING 57652
SWIDTH 806 0
DWIDTH 8 0
BBX 7 12 0 -2
BITMAP
0400
2800
3AA4
60D0
A0D0
A0D0
A000
B404
7E00
0E00
0FD0
0100
ENDCHAR
STARTCHAR AE.salt
ENCODING 57653
SWIDTH 1113 0
DWIDTH 11 0
BBX 11 8 0 -2
BITMAP
205054
A0E050
A05000
A00490
A0E000
A0E000
BDBFF4
101540
ENDCHAR
STARTCHAR IJ.salt
ENCODING 57654
SWIDTH 1133 0
DWIDTH 11 0
BBX 10 9 0 -2
BITMAP
200140
B00380
B00380
B04380
B0C280
B0C000
B0E000
BEFF90
101500
ENDCHAR
STARTCHAR IJ.stack
ENCODING 57655
SWIDTH 1363 0
DWIDTH 14 0
BBX 13 9 0 -2
BITMAP
60000800
A4142C00
BC102C00
1C052C00
1C0D1800
10050000
A0060040
BFFBFE00
15415000
ENDCHAR
STARTCHAR quoteleft.salt
ENCODING 57656
SWIDTH 407 0
DWIDTH 4 0
BBX 4 4 0 3
BITMAP
15
A0
B9
64
ENDCHAR
STARTCHAR quoteright.salt
ENCODING 57657
SWIDTH 407 0
DWIDTH 4 0
BBX 4 4 0 3
BITMAP
60
B5
B8
60
ENDCHAR
STARTCHAR ampersand.salt
ENCODING 57658
SWIDTH 732 0
DWIDTH 7 0
BBX 7 10 0 -2
BITMAP
0100
0400
3414
7454
2000
A1A0
E000
F440
7E14
0BD0
ENDCHAR
STARTCHAR caron.2
ENCODING 57659
SWIDTH 600 0
DWIDTH 6 0
BBX 3 4 1 3
BITMAP
60
90
E4
A4
ENDCHAR
STARTCHAR indexup
ENCODING 57660
SWIDTH 1100 0
DWIDTH 11 0
BBX 7 9 2 -2
BITMAP
2400
7100
7010
7000
7400
7400
6000
BFF4
1540
ENDCHAR
STARTCHAR indexdown
ENCODING 57661
SWIDTH 1100 0
DWIDTH 11 0
BBX 7 8 2 -1
BITMAP
6000
B404
7000
7000
7050
7280
7400
7800
ENDCHAR
STARTCHAR indexupleft
ENCODING 57662
SWIDTH 1100 0
DWIDTH 11 0
BBX 5 10 1 -2
BITMAP
0400
2800
2D00
0800
2400
7800
2E40
0B00
0780
0100
ENDCHAR
STARTCHAR indexupright
ENCODING 57663
SWIDTH 1100 0
DWIDTH 11 0
BBX 7 8 2 -2
BITMAP
0100
0404
0400
E000
F810
3E00
0F40
0100
ENDCHAR
STARTCHAR indexdownleft
ENCODING 57664
SWIDTH 1100 0
DWIDTH 11 0
BBX 9 7 1 -1
BITMAP
008000
014000
040000
100140
5A0500
EBD000
414000
ENDCHAR
STARTCHAR indexdownright
ENCODING 57665
SWIDTH 1100 0
DWIDTH 11 0
BBX 9 7 1 -1
BITMAP
010000
040000
100000
E80000
AE0A00
0B9B40
024100
ENDCHAR
STARTCHAR indexdownleft.outline
ENCODING 57666
SWIDTH 1100 0
DWIDTH 11 0
BBX 8 7 2 0
BITMAP
0090
0064
0119
0006
1405
5510
0040
ENDCHAR
STARTCHAR indexdownright.outline
ENCODING 57667
SWIDTH 1100 0
DWIDTH 11 0
BBX 8 7 2 0
BITMAP
0200
0940
2510
9404
5001
0455
0140
ENDCHAR
STARTCHAR indexupleft.outline
ENCODING 57668
SWIDTH 1100 0
DWIDTH 11 0
BBX 6 9 3 -1
BITMAP
5000
5400
1100
5040
4050
4060
1580
0600
0400
ENDCHAR
STARTCHAR indexupright.outline
ENCODING 57669
SWIDTH 1100 0
DWIDTH 11 0
BBX 7 9 3 -1
BITMAP
0010
0050
0440
0010
5014
9410
2540
0940
0100
ENDCHAR
STARTCHAR uni261A.salt
ENCODING 57670
SWIDTH 1100 0
DWIDTH 11 0
BBX 9 6 1 0
BITMAP
100500
AA0000
AB0000
078500
02CF40
02C500
ENDCHAR
STARTCHAR uni261B.salt
ENCODING 57671
SWIDTH 1100 0
DWIDTH 11 0
BBX 9 6 1 0
BITMAP
210000
A00640
A00500
A21000
BB4000
538000
ENDCHAR
STARTCHAR indexdown.salt
ENCODING 57672
SWIDTH 1100 0
DWIDTH 11 0
BBX 7 8 2 -1
BITMAP
1400
3D04
1400
6500
AE80
0AD0
01D0
00E0
ENDCHAR
STARTCHAR indexdownleft.salt
ENCODING 57673
SWIDTH 1100 0
DWIDTH 11 0
BBX 8 7 1 -1
BITMAP
0090
0140
0401
1402
2790
A2B8
4010
ENDCHAR
STARTCHAR indexdownright.salt
ENCODING 57674
SWIDTH 1100 0
DWIDTH 11 0
BBX 9 7 1 -1
BITMAP
040000
100000
600000
FD0400
1C9D00
1E9F40
140100
ENDCHAR
STARTCHAR indexup.salt
ENCODING 57675
SWIDTH 1100 0
DWIDTH 11 0
BBX 6 9 2 -2
BITMAP
2000
7000
6100
A000
B010
7410
6000
BFD0
1500
ENDCHAR
STARTCHAR indexupleft.salt
ENCODING 57676
SWIDTH 1100 0
DWIDTH 11 0
BBX 6 8 2 -1
BITMAP
6000
F400
7400
2010
6000
AA00
AA00
0F00
ENDCHAR
STARTCHAR indexupright.salt
ENCODING 57677
SWIDTH 1100 0
DWIDTH 11 0
BBX 7 7 2 -2
BITMAP
0400
0800
9000
F464
7D20
1E00
0400
ENDCHAR
STARTCHAR uni261C.salt
ENCODING 57678
SWIDTH 1100 0
DWIDTH 11 0
BBX 8 5 2 1
BITMAP
5556
1506
0046
0156
0141
ENDCHAR
STARTCHAR uni261D.salt
ENCODING 57679
SWIDTH 1100 0
DWIDTH 11 0
BBX 6 8 3 0
BITMAP
1000
1000
4000
4500
4550
0040
1540
6A80
ENDCHAR
STARTCHAR uni261E.salt
ENCODING 57680
SWIDTH 1100 0
DWIDTH 11 0
BBX 8 5 2 1
BITMAP
5515
5055
5010
5440
1140
ENDCHAR
STARTCHAR uni261F.salt
ENCODING 57681
SWIDTH 1100 0
DWIDTH 11 0
BBX 5 8 4 0
BITMAP
1540
5540
1540
4040
5440
0540
0140
0140
ENDCHAR
STARTCHAR indexdownleft.salt_outline
ENCODING 57682
SWIDTH 1100 0
DWIDTH 11 0
BBX 8 6 2 1
BITMAP
0050
0064
0119
0006
1544
5154
ENDCHAR
STARTCHAR indexdownright.salt_outline
ENCODING 57683
SWIDTH 1100 0
DWIDTH 11 0
BBX 8 7 2 0
BITMAP
0100
0900
2450
5404
0550
0545
0401
ENDCHAR
STARTCHAR indexupleft.salt_outline
ENCODING 57684
SWIDTH 1100 0
DWIDTH 11 0
BBX 6 7 3 0
BITMAP
5400
1100
1440
0450
5060
5590
0640
ENDCHAR
STARTCHAR indexupright.salt_outline
ENCODING 57685
SWIDTH 1100 0
DWIDTH 11 0
BBX 6 8 3 0
BITMAP
0010
0050
0040
0440
5050
9410
2550
0900
ENDCHAR
STARTCHAR block.v
ENCODING 57687
SWIDTH 1000 0
DWIDTH 10 0
BBX 12 11 -1 -2
BITMAP
7FFFFD
7FFFFD
7FFFFD
7FFFFD
7FFFFD
7FFFFD
7FFFFD
7FFFFD
7FFFFD
7FFFFD
6AAAA9
ENDCHAR
STARTCHAR uni25D6.v
ENCODING 57688
SWIDTH 1335 0
DWIDTH 13 0
BBX 11 7 1 0
BITMAP
005500
07FF80
2FFFE0
7FFFF4
7FFFF8
BFFFFC
555554
ENDCHAR
STARTCHAR uni25D7.v
ENCODING 57689
SWIDTH 1335 0
DWIDTH 13 0
BBX 11 7 1 0
BITMAP
6AAAA4
BFFFFC
7FFFF8
3FFFF4
1FFFE0
06FF40
005400
ENDCHAR
STARTCHAR uni27A1.w
ENCODING 57690
SWIDTH 650 0
DWIDTH 7 0
BBX 7 15 0 -4
BITMAP
0064
00B4
02F8
07FC
1FFC
2FFC
BFFC
BFFC
7FFC
2FFC
0BFC
07FC
01F8
00B4
0024
ENDCHAR
STARTCHAR uni27A1.n
ENCODING 57691
SWIDTH 1000 0
DWIDTH 10 0
BBX 16 7 -3 0
BITMAP
1BFFFFE4
7FFFFFFD
1FFFFFF4
02FFFF80
007FFD00
001FF400
00028000
ENDCHAR
STARTCHAR uni27A1.s
ENCODING 57692
SWIDTH 1000 0
DWIDTH 10 0
BBX 16 7 -3 0
BITMAP
00069000
001FF400
00BFFE00
07FFFF90
1FFFFFF4
7FFFFFFD
16AAAA94
ENDCHAR
STARTCHAR uni2B24.salt
ENCODING 57693
SWIDTH 1280 0
DWIDTH 13 0
BBX 11 12 1 -2
BITMAP
005400
0BFF40
7FFFE4
FFFFF8
FFFFF8
FFFFF8
FFFFF8
FFFFF8
FFFFF8
FFFFF8
6FFFE0
06FE40
ENDCHAR
STARTCHAR uni25DD.curve
ENCODING 57694
SWIDTH 1280 0
DWIDTH 13 0
BBX 11 11 1 -2
BITMAP
BFFE40
FFFFE0
FFFFF4
FFFFF8
FFFFF8
FFFFF8
FFFFF8
FFFFF8
FFFFF8
FFFFF8
AAAAA8
ENDCHAR
STARTCHAR uni2B1B.trapezoid_e
ENCODING 57695
SWIDTH 1280 0
DWIDTH 13 0
BBX 12 11 1 -2
BITMAP
BFFFFE
FFFFFD
FFFFFD
FFFFFC
FFFFFC
FFFFF8
FFFFF4
FFFFF4
FFFFF0
FFFFF0
AAAAA0
ENDCHAR
STARTCHAR uni2B1B.trapezoid_w
ENCODING 57696
SWIDTH 1280 0
DWIDTH 13 0
BBX 12 11 0 -2
BITMAP
BFFFFE
BFFFFE
7FFFFE
7FFFFE
3FFFFE
3FFFFE
2FFFFE
1FFFFE
1FFFFE
0FFFFE
0AAAAA
ENDCHAR
STARTCHAR arrowleft.chevron
ENCODING 57697
SWIDTH 1330 0
DWIDTH 13 0
BBX 13 15 0 -4
BITMAP
00100000
00740000
00FFFFC0
02FFFF80
0BFFFF40
1FFFFF00
7FFFFE00
BFFFFD00
7FFFFE00
1FFFFF00
07FFFF40
02FFFF80
00BAAA80
00340000
00100000
ENDCHAR
STARTCHAR arrowup.chevron
ENCODING 57698
SWIDTH 1280 0
DWIDTH 13 0
BBX 15 15 -1 -4
BITMAP
00010000
001B8000
007FF400
01FFFD00
0BFFFF80
2FFFFFE0
6FFFFFE4
0FFFFF80
0FFFFF80
0FFFFF80
0FFFFF80
0FFFFF80
0FFABF80
0F901B80
04000040
ENDCHAR
STARTCHAR arrowright.chevron
ENCODING 57699
SWIDTH 1330 0
DWIDTH 13 0
BBX 13 15 0 -4
BITMAP
00010000
00038000
BFFFD000
7FFFF400
3FFFFC00
2FFFFE00
1FFFFF80
0FFFFFC0
1FFFFF40
2FFFFE00
3FFFF800
7FFFF000
AAABD000
00024000
00010000
ENDCHAR
STARTCHAR arrowdown.chevron
ENCODING 57700
SWIDTH 1280 0
DWIDTH 13 0
BBX 15 15 -1 -4
BITMAP
04000140
0F901B80
0FFEFF80
0FFFFF80
0FFFFF80
0FFFFF80
0FFFFF80
0FFFFF80
6FFFFFE4
2FFFFFE0
0BFFFF40
01FFFD00
007FE400
000B8000
00010000
ENDCHAR
STARTCHAR uni25D6.deco
ENCODING 57701
SWIDTH 560 0
DWIDTH 6 0
BBX 6 13 0 -3
BITMAP
0190
07F0
1BF0
3FF0
7FF0
7FF0
7FF0
7FF0
7FF0
2FF0
1BF0
07E0
0080
ENDCHAR
STARTCHAR uni25D7.deco
ENCODING 57702
SWIDTH 560 0
DWIDTH 6 0
BBX 6 13 -1 -3
BITMAP
2800
7E00
7F80
7FE0
7FE0
7FF0
7FF0
7FF0
7FE0
7FD0
7F80
7E00
1400
ENDCHAR
STARTCHAR uni25D6.v_deco
ENCODING 57703
SWIDTH 1280 0
DWIDTH 13 0
BBX 13 6 0 0
BITMAP
01BF9000
0BFFF400
2FFFFE00
BFFFFF40
BFFFFF40
1AAAA900
ENDCHAR
STARTCHAR uni25D7.v_deco
ENCODING 57704
SWIDTH 1280 0
DWIDTH 13 0
BBX 13 6 0 1
BITMAP
2AAAA900
BFFFFF80
7FFFFF40
2FFFFD00
07FFF400
01AA9000
ENDCHAR
STARTCHAR uni25D6.bevel
ENCODING 57705
SWIDTH 350 0
DWIDTH 4 0
BBX 4 11 0 -2
BITMAP
06
1F
7F
7F
7F
7F
7F
7F
3F
1F
06
ENDCHAR
STARTCHAR uni25D7.bevel
ENCODING 57706
SWIDTH 350 0
DWIDTH 4 0
BBX 4 11 -1 -2
BITMAP
60
7C
7E
7E
7E
7E
7E
7E
7E
78
60
ENDCHAR
STARTCHAR uni25D6.v_bevel
ENCODING 57707
SWIDTH 1280 0
DWIDTH 13 0
BBX 11 4 1 2
BITMAP
055500
1FFF90
7FFFF4
FFFFF8
ENDCHAR
STARTCHAR uni25D7.v_bevel
ENCODING 57708
SWIDTH 1280 0
DWIDTH 13 0
BBX 11 4 1 2
BITMAP
555550
BFFFF8
7FFFF0
1BFF80
ENDCHAR
STARTCHAR uni25D6.spike
ENCODING 57709
SWIDTH 350 0
DWIDTH 4 0
BBX 4 12 0 -2
BITMAP
10
2E
1F
0F
1F
2F
7F
2F
0F
0F
1F
2A
ENDCHAR
STARTCHAR uni25D7.spike
ENCODING 57710
SWIDTH 350 0
DWIDTH 4 0
BBX 4 11 -1 -2
BITMAP
7D
7C
78
78
7D
7F
7D
74
78
7C
6D
ENDCHAR
STARTCHAR uni25D6.v_spike
ENCODING 57711
SWIDTH 1280 0
DWIDTH 13 0
BBX 11 5 1 1
BITMAP
001000
50B418
FAFEB8
FFFFF8
155550
ENDCHAR
STARTCHAR uni25D7.v_spike
ENCODING 57712
SWIDTH 1280 0
DWIDTH 13 0
BBX 11 4 1 2
BITMAP
555554
FFFFF8
FAFEB8
407404
ENDCHAR
STARTCHAR uni25D6.square
ENCODING 57713
SWIDTH 350 0
DWIDTH 4 0
BBX 3 11 1 -2
BITMAP
B8
FC
FC
FC
FC
FC
FC
FC
FC
FC
A8
ENDCHAR
STARTCHAR uni25D7.square
ENCODING 57714
SWIDTH 350 0
DWIDTH 4 0
BBX 4 11 -1 -2
BITMAP
7D
7D
7D
7D
7D
7D
7D
7D
7D
7D
69
ENDCHAR
STARTCHAR uni25D6.v_square
ENCODING 57715
SWIDTH 1280 0
DWIDTH 13 0
BBX 11 3 1 2
BITMAP
BFFFF8
FFFFF8
BFFFF8
ENDCHAR
STARTCHAR uni25D7.v_square
ENCODING 57716
SWIDTH 1280 0
DWIDTH 13 0
BBX 11 3 1 2
BITMAP
FFFFF8
FFFFF8
AAAAA4
ENDCHAR
STARTCHAR uni25D6.rounded
ENCODING 57717
SWIDTH 350 0
DWIDTH 4 0
BBX 4 11 0 -2
BITMAP
0A
2F
3F
7F
7F
7F
7F
7F
3F
2F
0A
ENDCHAR
STARTCHAR uni25D7.rounded
ENCODING 57718
SWIDTH 350 0
DWIDTH 4 0
BBX 4 11 -1 -2
BITMAP
74
7D
7D
7E
7E
7E
7E
7E
7D
7C
64
ENDCHAR
STARTCHAR uni25D6.v_rounded
ENCODING 57719
SWIDTH 1280 0
DWIDTH 13 0
BBX 11 4 1 2
BITMAP
005000
2FFF90
BFFFF4
FFFFF8
ENDCHAR
STARTCHAR uni25D7.v_rounded
ENCODING 57720
SWIDTH 1280 0
DWIDTH 13 0
BBX 11 4 1 2
BITMAP
555550
FFFFF8
BFFFF4
1AFE90
ENDCHAR
STARTCHAR uni21AB.arrow
ENCODING 57721
SWIDTH 1000 0
DWIDTH 10 0
BBX 13 18 -1 -9
BITMAP
7FE40000
7FFF4000
7FFFD000
7FFFF000
7FFFF400
7FFFF800
7FFFF800
7FFFFC00
7FFFFC00
7FFFFC00
6FFFFC00
1FFFFC00
7FFFFF80
1FFFFE00
07FFF800
01FFD000
007F4000
001D0000
ENDCHAR
STARTCHAR uni21AC.arrow
ENCODING 57722
SWIDTH 1000 0
DWIDTH 10 0
BBX 13 19 -1 -2
BITMAP
00040000
002E0000
00BF8000
02FFE000
0BFFF800
2FFFFE00
6FFFFE80
0FFFFC00
7FFFFC00
7FFFFC00
7FFFFC00
7FFFFC00
7FFFF800
7FFFF800
7FFFF400
7FFFE000
7FFFD000
7FFE4000
6AA40000
ENDCHAR
STARTCHAR uni21AB.v_arrow
ENCODING 57723
SWIDTH 1335 0
DWIDTH 13 0
BBX 18 12 -6 -3
BITMAP
0066FFFFF0
00FBFFFFF0
02FFFFFFF0
0BFFFFFFF0
2FFFFFFFF0
BFFFFFFFE0
BFFFFFFFD0
2FFFFFFF80
0BFFFFFE00
02FFFFE400
00B5550000
0024000000
ENDCHAR
STARTCHAR uni21AC.v_arrow
ENCODING 57724
SWIDTH 1335 0
DWIDTH 13 0
BBX 19 13 1 -3
BITMAP
0000004000
BFFFFC9000
BFFFFEF400
BFFFFFFD00
BFFFFFFF40
7FFFFFFFD0
7FFFFFFFF4
2FFFFFFFE0
1FFFFFFFC0
07FFFFFF40
01BFFFFD00
000555B400
0000009000
ENDCHAR
STARTCHAR uni25D6.wings
ENCODING 57725
SWIDTH 900 0
DWIDTH 9 0
BBX 10 15 0 -4
BITMAP
0AA900
0FFE00
BFFFD0
BFFFD0
BFFFD0
BFFFD0
BFFFD0
BFFFD0
BFFFD0
BFFFD0
BFFFD0
BFFFD0
AFFF90
0FFE00
0AA900
ENDCHAR
STARTCHAR uni25D7.wings
ENCODING 57726
SWIDTH 900 0
DWIDTH 9 0
BBX 10 15 -1 -4
BITMAP
06AA00
0BFF00
7FFFE0
7FFFE0
7FFFE0
7FFFE0
7FFFE0
7FFFE0
7FFFE0
7FFFE0
7FFFE0
7FFFE0
6FFFA0
0BFF00
06AA00
ENDCHAR
STARTCHAR uni25D6.v_wings
ENCODING 57727
SWIDTH 1280 0
DWIDTH 13 0
BBX 15 10 -1 -1
BITMAP
05555500
0FFFFF80
5FFFFF94
BFFFFFF8
BFFFFFF8
BFFFFFF8
BFFFFFF8
BFFFFFF8
1FFFFFD0
0FFFFF80
ENDCHAR
STARTCHAR uni25D7.v_wings
ENCODING 57728
SWIDTH 1280 0
DWIDTH 13 0
BBX 15 10 -1 -1
BITMAP
05555500
0FFFFF80
1FFFFFD0
BFFFFFF8
BFFFFFF8
BFFFFFF8
BFFFFFF8
BFFFFFF8
1FFFFF90
0FFFFF80
ENDCHAR
STARTCHAR uni2B1B.chevron_e
ENCODING 57729
SWIDTH 1280 0
DWIDTH 13 0
BBX 13 11 0 -2
BITMAP
BFFFF800
7FFFFD00
3FFFFE00
2FFFFF00
1FFFFF40
0FFFFF80
1FFFFF40
2FFFFF00
3FFFFD00
7FFFFC00
AAAAA800
ENDCHAR
STARTCHAR uni2B1B.chevron_n
ENCODING 57730
SWIDTH 1280 0
DWIDTH 13 0
BBX 11 13 1 -3
BITMAP
01A400
1BFF90
FFFFF8
FFFFF8
FFFFF8
FFFFF8
FFFFF8
FFFFF8
FFFFF8
FFFFF8
FFEFF8
F901F8
900014
ENDCHAR
STARTCHAR uni2B1B.chevron_s
ENCODING 57731
SWIDTH 1280 0
DWIDTH 13 0
BBX 11 13 1 -3
BITMAP
900068
FE46F8
FFFFF8
FFFFF8
FFFFF8
FFFFF8
FFFFF8
FFFFF8
FFFFF8
FFFFF8
BFFFF8
17FE40
006400
ENDCHAR
STARTCHAR uni2B1B.chevron_w
ENCODING 57732
SWIDTH 1280 0
DWIDTH 13 0
BBX 13 11 0 -2
BITMAP
0BFFFF80
1FFFFF40
2FFFFE00
7FFFFD00
BFFFFC00
BFFFF800
7FFFFD00
3FFFFE00
2FFFFF00
1FFFFF40
0AAAAA40
ENDCHAR
STARTCHAR uni2B1B.semichevron_e
ENCODING 57733
SWIDTH 650 0
DWIDTH 7 0
BBX 7 11 0 -2
BITMAP
BFFC
7FFC
3FFC
2FFC
1FFC
0FFC
1FFC
2FFC
3FFC
7FFC
AAA8
ENDCHAR
STARTCHAR uni2B1B.semichevron_w
ENCODING 57734
SWIDTH 650 0
DWIDTH 7 0
BBX 8 11 -1 -2
BITMAP
7FFD
7FFC
7FF8
7FF4
7FE0
7FE0
7FE0
7FF4
7FF8
7FFC
6AA9
ENDCHAR
STARTCHAR uni2B1B.semichevron_n
ENCODING 57735
SWIDTH 1000 0
DWIDTH 10 0
BBX 12 7 -1 0
BITMAP
640019
7F96FD
7FFFFD
7FFFFD
7FFFFD
7FFFFD
7FFFFD
ENDCHAR
STARTCHAR uni2B1B.semichevron_s
ENCODING 57736
SWIDTH 1000 0
DWIDTH 10 0
BBX 12 7 -1 0
BITMAP
7FFFFD
7FFFFD
7FFFFD
7FFFFD
7FFFFD
7E41BD
640019
ENDCHAR
STARTCHAR space.v
ENCODING 57737
SWIDTH 1000 0
DWIDTH 10 0
BBX 1 1 0 0
BITMAP
00
ENDCHAR
STARTCHAR Agrave.v
ENCODING 57738
SWIDTH 1000 0
DWIDTH 10 0
BBX 8 11 1 -2
BITMAP
1800
2D54
1954
1400
3080
6080
A000
A090
A0D0
BDFD
1010
ENDCHAR
STARTCHAR Aacute.v
ENCODING 57739
SWIDTH 1000 0
DWIDTH 10 0
BBX 8 11 1 -2
BITMAP
0400
2954
2D50
1400
3080
6080
A000
A090
A0D0
BDFD
1010
ENDCHAR
STARTCHAR Acircumflex.v
ENCODING 57740
SWIDTH 1000 0
DWIDTH 10 0
BBX 8 11 1 -2
BITMAP
0400
2994
2D54
1400
3080
6080
A000
A090
A0D0
BDFD
1010
ENDCHAR
STARTCHAR Atilde.v
ENCODING 57741
SWIDTH 1000 0
DWIDTH 10 0
BBX 8 11 1 -2
BITMAP
0440
2954
2D50
1400
3080
6080
A000
A090
A0D0
BDFD
1010
ENDCHAR
STARTCHAR Adieresis.v
ENCODING 57742
SWIDTH 1000 0
DWIDTH 10 0
BBX 8 11 1 -2
BITMAP
1440
3594
3D54
1400
3080
6080
A000
A090
A0D0
BDFD
1010
ENDCHAR
STARTCHAR Aring.v
ENCODING 57743
SWIDTH 1000 0
DWIDTH 10 0
BBX 8 11 1 -2
BITMAP
0400
2490
3840
2400
3080
6080
A000
A090
A1D0
BDFD
1010
ENDCHAR
STARTCHAR Amacron.v
ENCODING 57744
SWIDTH 1000 0
DWIDTH 10 0
BBX 8 11 1 -2
BITMAP
0440
2954
2D54
1400
3080
6080
A000
A090
A0D0
BDFD
1010
ENDCHAR
STARTCHAR Abreve.v
ENCODING 57745
SWIDTH 1000 0
DWIDTH 10 0
BBX 8 11 1 -2
BITMAP
1840
3D50
1D50
1400
3080
6080
A000
A090
A0D0
BDFD
1010
ENDCHAR
STARTCHAR Aogonek.v
ENCODING 57746
SWIDTH 1000 0
DWIDTH 10 0
BBX 8 10 1 -3
BITMAP
0400
2400
3080
6040
A000
A0D0
A5D1
A8D0
01E9
00A4
ENDCHAR
STARTCHAR Ccedilla.v
ENCODING 57747
SWIDTH 1000 0
DWIDTH 10 0
BBX 8 9 1 -2
BITMAP
1000
6055
A0F8
A000
A000
A000
B905
2E14
0F80
ENDCHAR
STARTCHAR Cacute.v
ENCODING 57748
SWIDTH 1000 0
DWIDTH 10 0
BBX 7 11 1 -2
BITMAP
0400
2954
2950
2000
A0F8
A050
A000
A000
B400
7FF8
0150
ENDCHAR
STARTCHAR Ccircumflex.v
ENCODING 57749
SWIDTH 1000 0
DWIDTH 10 0
BBX 7 11 1 -2
BITMAP
0400
2994
2954
2000
A0F8
A050
A000
A000
B400
7FF8
0150
ENDCHAR
STARTCHAR Cdotaccent.v
ENCODING 57750
SWIDTH 1000 0
DWIDTH 10 0
BBX 7 11 1 -2
BITMAP
0600
0A50
0540
2000
A0F8
A050
A000
A000
B400
7FF8
0150
ENDCHAR
STARTCHAR Ccaron.v
ENCODING 57751
SWIDTH 1000 0
DWIDTH 10 0
BBX 7 11 1 -2
BITMAP
1800
2E54
1950
2000
A0F8
A050
A000
A000
B400
7FF8
0150
ENDCHAR
STARTCHAR Dcaron.v
ENCODING 57752
SWIDTH 1000 0
DWIDTH 10 0
BBX 7 11 1 -2
BITMAP
1800
3D54
2550
A000
A0D0
A0D0
A090
A000
A004
BFF4
1500
ENDCHAR
STARTCHAR Egrave.v
ENCODING 57753
SWIDTH 1000 0
DWIDTH 10 0
BBX 7 11 1 -2
BITMAP
1810
3D54
2550
A000
A0A8
A000
A0A4
A000
A000
BFF8
1550
ENDCHAR
STARTCHAR Eacute.v
ENCODING 57754
SWIDTH 1000 0
DWIDTH 10 0
BBX 7 11 1 -2
BITMAP
0400
2954
2550
A000
A0A8
A000
A0A4
A000
A000
BFF8
1550
ENDCHAR
STARTCHAR Ecircumflex.v
ENCODING 57755
SWIDTH 1000 0
DWIDTH 10 0
BBX 7 11 1 -2
BITMAP
0400
2994
2550
A000
A0A8
A000
A0A4
A000
A000
BFF8
1550
ENDCHAR
STARTCHAR Edieresis.v
ENCODING 57756
SWIDTH 1000 0
DWIDTH 10 0
BBX 7 11 1 -2
BITMAP
1440
3594
2550
A000
A0A8
A000
A0A4
A000
A000
BFF8
1550
ENDCHAR
STARTCHAR Emacron.v
ENCODING 57757
SWIDTH 1000 0
DWIDTH 10 0
BBX 7 11 1 -2
BITMAP
0440
2954
2550
A000
A0A8
A000
A0A4
A000
A000
BFF8
1550
ENDCHAR
STARTCHAR Ebreve.v
ENCODING 57758
SWIDTH 1000 0
DWIDTH 10 0
BBX 7 11 1 -2
BITMAP
1840
3D50
2550
A000
A0A8
A000
A0A4
A000
A000
BFF8
1550
ENDCHAR
STARTCHAR Edotaccent.v
ENCODING 57759
SWIDTH 1000 0
DWIDTH 10 0
BBX 7 11 1 -2
BITMAP
0500
0E50
1540
A000
A0A8
A000
A0A4
A000
A000
BFF8
1550
ENDCHAR
STARTCHAR Eogonek.v
ENCODING 57760
SWIDTH 1000 0
DWIDTH 10 0
BBX 8 10 1 -3
BITMAP
6000
A055
A054
A000
A0A4
A000
A541
ABC0
01E9
00A4
ENDCHAR
STARTCHAR Ecaron.v
ENCODING 57761
SWIDTH 1000 0
DWIDTH 10 0
BBX 7 11 1 -2
BITMAP
1800
3D54
2550
A000
A0A8
A000
A0A4
A000
A000
BFF8
1550
ENDCHAR
STARTCHAR Gcircumflex.v
ENCODING 57762
SWIDTH 1000 0
DWIDTH 10 0
BBX 7 11 1 -2
BITMAP
0400
2994
2954
2000
A0F4
A050
A090
A000
B400
7FFC
0150
ENDCHAR
STARTCHAR Gbreve.v
ENCODING 57763
SWIDTH 1000 0
DWIDTH 10 0
BBX 7 11 1 -2
BITMAP
1840
3D50
2950
2000
A0F4
A050
A090
A000
B400
7FFC
0150
ENDCHAR
STARTCHAR Gdotaccent.v
ENCODING 57764
SWIDTH 1000 0
DWIDTH 10 0
BBX 7 11 1 -2
BITMAP
0500
0E50
0540
2000
A0F4
A050
A090
A000
B400
7FFC
0150
ENDCHAR
STARTCHAR Gcommaaccent.v
ENCODING 57765
SWIDTH 1000 0
DWIDTH 10 0
BBX 8 11 1 -4
BITMAP
1000
6054
A0F4
A050
A090
A000
7955
1A58
0E50
0A50
0B80
ENDCHAR
STARTCHAR Hcircumflex.v
ENCODING 57766
SWIDTH 1000 0
DWIDTH 10 0
BBX 7 11 1 -2
BITMAP
0400
2994
25E0
A0D0
A090
A000
A040
A0D0
A0D0
BDFC
1010
ENDCHAR
STARTCHAR Igrave.v
ENCODING 57767
SWIDTH 1000 0
DWIDTH 10 0
BBX 7 11 1 -2
BITMAP
1810
3D54
2550
A040
BD08
1D00
0D00
1000
A000
BFF8
1550
ENDCHAR
STARTCHAR Iacute.v
ENCODING 57768
SWIDTH 1000 0
DWIDTH 10 0
BBX 7 11 1 -2
BITMAP
0400
2954
2550
A040
BD08
1D00
0D00
1000
A000
BFF8
1550
ENDCHAR
STARTCHAR Icircumflex.v
ENCODING 57769
SWIDTH 1000 0
DWIDTH 10 0
BBX 7 11 1 -2
BITMAP
0400
2994
2550
A040
BD08
1D00
0D00
1000
A000
BFF8
1550
ENDCHAR
STARTCHAR Idieresis.v
ENCODING 57770
SWIDTH 1000 0
DWIDTH 10 0
BBX 7 11 1 -2
BITMAP
1440
3594
2550
A040
BD08
1D00
0D00
1000
A000
BFF8
1550
ENDCHAR
STARTCHAR Itilde.v
ENCODING 57771
SWIDTH 1000 0
DWIDTH 10 0
BBX 7 11 1 -2
BITMAP
0440
2954
2550
A040
BD08
1D00
0D00
1000
A000
BFF8
1550
ENDCHAR
STARTCHAR Imacron.v
ENCODING 57772
SWIDTH 1000 0
DWIDTH 10 0
BBX 7 11 1 -2
BITMAP
0440
2954
2550
A040
BD08
1D00
0D00
1000
A000
BFF8
1550
ENDCHAR
STARTCHAR Ibreve.v
ENCODING 57773
SWIDTH 1000 0
DWIDTH 10 0
BBX 7 11 1 -2
BITMAP
1840
3D50
2550
A040
BD08
1D00
0D00
1000
A000
BFF8
1550
ENDCHAR
STARTCHAR Iogonek.v
ENCODING 57774
SWIDTH 1000 0
DWIDTH 10 0
BBX 8 10 1 -3
BITMAP
6000
A405
BD08
0D00
0900
6040
B541
6BC0
01E9
00A4
ENDCHAR
STARTCHAR Idotaccent.v
ENCODING 57775
SWIDTH 1000 0
DWIDTH 10 0
BBX 7 11 1 -2
BITMAP
0500
0E50
1540
A040
BD08
1D00
0D00
1000
A000
BFF8
1550
ENDCHAR
STARTCHAR Jcircumflex.v
ENCODING 57776
SWIDTH 1000 0
DWIDTH 10 0
BBX 8 11 1 -2
BITMAP
0100
0A65
0EA5
00D0
00D0
11D0
A1D0
A000
B400
7FE4
0540
ENDCHAR
STARTCHAR Kcommaaccent.v
ENCODING 57777
SWIDTH 1000 0
DWIDTH 10 0
BBX 8 11 1 -4
BITMAP
6040
A080
A000
A000
A0D0
A0D0
A5E5
A958
0E50
0A50
0B80
ENDCHAR
STARTCHAR Lacute.v
ENCODING 57778
SWIDTH 1000 0
DWIDTH 10 0
BBX 7 11 1 -2
BITMAP
1000
A550
A540
A000
A000
A010
A090
A000
A000
BFFC
1550
ENDCHAR
STARTCHAR Lcommaaccent.v
ENCODING 57779
SWIDTH 1000 0
DWIDTH 10 0
BBX 8 11 1 -4
BITMAP
6000
A000
A000
A050
A090
A000
A555
AE58
0E50
0A50
0B80
ENDCHAR
STARTCHAR Lcaron.v
ENCODING 57780
SWIDTH 1000 0
DWIDTH 10 0
BBX 8 9 1 -2
BITMAP
6060
A0A0
A0E4
A0A0
A0D0
A000
A000
BFFD
1550
ENDCHAR
STARTCHAR Ntilde.v
ENCODING 57781
SWIDTH 1000 0
DWIDTH 10 0
BBX 8 11 1 -2
BITMAP
0440
2954
25E0
A050
A000
A000
A080
A0D0
A0D0
BDFD
1010
ENDCHAR
STARTCHAR Nacute.v
ENCODING 57782
SWIDTH 1000 0
DWIDTH 10 0
BBX 8 11 1 -2
BITMAP
0400
2954
25A0
A050
A000
A000
A080
A0D0
A0D0
BDFD
1010
ENDCHAR
STARTCHAR Ncommaaccent.v
ENCODING 57783
SWIDTH 1000 0
DWIDTH 10 0
BBX 8 11 1 -4
BITMAP
6050
A010
A000
A000
A084
A0D0
A5E5
A958
0E50
0A50
0B80
ENDCHAR
STARTCHAR Ncaron.v
ENCODING 57784
SWIDTH 1000 0
DWIDTH 10 0
BBX 8 11 1 -2
BITMAP
1800
3D54
25A0
A050
A000
A000
A080
A0D0
A0D0
BDFD
1010
ENDCHAR
STARTCHAR Ograve.v
ENCODING 57785
SWIDTH 1000 0
DWIDTH 10 0
BBX 7 11 1 -2
BITMAP
1810
3D54
2804
2000
A0D0
A0D0
A0D0
A040
B400
7FE4
0540
ENDCHAR
STARTCHAR Oacute.v
ENCODING 57786
SWIDTH 1000 0
DWIDTH 10 0
BBX 7 11 1 -2
BITMAP
0400
2954
2800
2000
A0D0
A0D0
A0D0
A040
B400
7FE4
0540
ENDCHAR
STARTCHAR Ocircumflex.v
ENCODING 57787
SWIDTH 1000 0
DWIDTH 10 0
BBX 7 11 1 -2
BITMAP
0400
2994
2804
2000
A0D0
A0D0
A0D0
A040
B400
7FE4
0540
ENDCHAR
STARTCHAR Otilde.v
ENCODING 57788
SWIDTH 1000 0
DWIDTH 10 0
BBX 7 11 1 -2
BITMAP
0440
2954
2804
2000
A0D0
A0D0
A0D0
A040
B400
7FE4
0540
ENDCHAR
STARTCHAR Odieresis.v
ENCODING 57789
SWIDTH 1000 0
DWIDTH 10 0
BBX 7 11 1 -2
BITMAP
1440
3594
3804
2000
A0D0
A0D0
A0D0
A040
B400
7FE4
0540
ENDCHAR
STARTCHAR Omacron.v
ENCODING 57790
SWIDTH 1000 0
DWIDTH 10 0
BBX 7 11 1 -2
BITMAP
0440
2954
2804
2000
A0D0
A0D0
A0D0
A040
B400
7FE4
0540
ENDCHAR
STARTCHAR Obreve.v
ENCODING 57791
SWIDTH 1000 0
DWIDTH 10 0
BBX 7 11 1 -2
BITMAP
1840
3D50
2800
2000
A0D0
A0D0
A0D0
A040
B400
7FE4
0540
ENDCHAR
STARTCHAR Ohungarumlaut.v
ENCODING 57792
SWIDTH 1000 0
DWIDTH 10 0
BBX 7 12 1 -2
BITMAP
0450
1890
2994
2804
2000
A0D0
A0D0
A0D0
A040
B400
7FE4
0540
ENDCHAR
STARTCHAR Racute.v
ENCODING 57793
SWIDTH 1000 0
DWIDTH 10 0
BBX 8 11 1 -2
BITMAP
0400
3554
2550
A000
A0C0
A040
A000
A0D0
A0E0
BDFD
1010
ENDCHAR
STARTCHAR Rcommaaccent.v
ENCODING 57794
SWIDTH 1000 0
DWIDTH 10 0
BBX 8 11 1 -4
BITMAP
6000
A040
A080
A000
A040
A0D0
A5E5
A958
0E50
0A50
0B80
ENDCHAR
STARTCHAR Rcaron.v
ENCODING 57795
SWIDTH 1000 0
DWIDTH 10 0
BBX 8 11 1 -2
BITMAP
1800
3D54
2550
A000
A0C0
A040
A000
A0D0
A0E0
BDFD
1010
ENDCHAR
STARTCHAR Sacute.v
ENCODING 57796
SWIDTH 1000 0
DWIDTH 10 0
BBX 7 11 1 -2
BITMAP
0400
2954
2950
2000
A0A8
A000
B940
2540
A000
BFF4
1500
ENDCHAR
STARTCHAR Scircumflex.v
ENCODING 57797
SWIDTH 1000 0
DWIDTH 10 0
BBX 7 11 1 -2
BITMAP
0400
2994
2950
2000
A0A8
A000
B940
2540
A000
BFF4
1500
ENDCHAR
STARTCHAR Scedilla.v
ENCODING 57798
SWIDTH 1000 0
DWIDTH 10 0
BBX 7 9 1 -2
BITMAP
1000
6054
A054
B000
7A90
6000
A414
AD10
1F40
ENDCHAR
STARTCHAR Scaron.v
ENCODING 57799
SWIDTH 1000 0
DWIDTH 10 0
BBX 7 11 1 -2
BITMAP
1800
3D54
1950
2000
A0A8
A000
B940
2540
A000
BFF4
1500
ENDCHAR
STARTCHAR Scommaaccent.v
ENCODING 57800
SWIDTH 1000 0
DWIDTH 10 0
BBX 7 11 1 -4
BITMAP
1000
6054
A054
B000
7A90
6000
A554
AE50
0E50
0A50
0B80
ENDCHAR
STARTCHAR Tcommaaccent.v
ENCODING 57801
SWIDTH 1000 0
DWIDTH 10 0
BBX 8 10 1 -3
BITMAP
6000
A405
BD08
0D00
0D00
0E50
0E50
0E50
0A50
0B80
ENDCHAR
STARTCHAR Tcaron.v
ENCODING 57802
SWIDTH 1000 0
DWIDTH 10 0
BBX 8 11 1 -2
BITMAP
1800
3D54
2550
A040
BD09
5D00
0D00
0D00
0D00
0FD0
0100
ENDCHAR
STARTCHAR Ugrave.v
ENCODING 57803
SWIDTH 1000 0
DWIDTH 10 0
BBX 7 11 1 -2
BITMAP
1810
3D54
25E0
A0D0
A0D0
A0D0
A0D0
A000
B400
7FE4
0540
ENDCHAR
STARTCHAR Uacute.v
ENCODING 57804
SWIDTH 1000 0
DWIDTH 10 0
BBX 7 11 1 -2
BITMAP
0400
2954
25E0
A0D0
A0D0
A0D0
A0D0
A000
B400
7FE4
0540
ENDCHAR
STARTCHAR Ucircumflex.v
ENCODING 57805
SWIDTH 1000 0
DWIDTH 10 0
BBX 7 11 1 -2
BITMAP
0400
2994
25E0
A0D0
A0D0
A0D0
A0D0
A000
B400
7FE4
0540
ENDCHAR
STARTCHAR Udieresis.v
ENCODING 57806
SWIDTH 1000 0
DWIDTH 10 0
BBX 7 11 1 -2
BITMAP
1440
3594
25E0
A0D0
A0D0
A0D0
A0D0
A000
B400
7FE4
0540
ENDCHAR
STARTCHAR Utilde.v
ENCODING 57807
SWIDTH 1000 0
DWIDTH 10 0
BBX 7 11 1 -2
BITMAP
0440
2954
25E0
A0D0
A0D0
A0D0
A0D0
A000
B400
7FE4
0540
ENDCHAR
STARTCHAR Umacron.v
ENCODING 57808
SWIDTH 1000 0
DWIDTH 10 0
BBX 7 11 1 -2
BITMAP
0440
2954
25E0
A0D0
A0D0
A0D0
A0D0
A000
B400
7FE4
0540
ENDCHAR
STARTCHAR Ubreve.v
ENCODING 57809
SWIDTH 1000 0
DWIDTH 10 0
BBX 7 11 1 -2
BITMAP
1840
3D50
25E0
A0D0
A0D0
A0D0
A0D0
A000
B400
7FE4
0540
ENDCHAR
STARTCHAR Uring.v
ENCODING 57810
SWIDTH 1000 0
DWIDTH 10 0
BBX 7 13 1 -2
BITMAP
0410
1490
3850
3D50
25E0
A0D0
A0D0
A0D0
A0D0
A000
B400
7FE4
0540
ENDCHAR
STARTCHAR Uhungarumlaut.v
ENCODING 57811
SWIDTH 1000 0
DWIDTH 10 0
BBX 7 12 1 -2
BITMAP
0450
1890
2994
25E0
A0D0
A0D0
A0D0
A0D0
A000
B400
7FE4
0540
ENDCHAR
STARTCHAR Uogonek.v
ENCODING 57812
SWIDTH 1000 0
DWIDTH 10 0
BBX 7 10 1 -3
BITMAP
6050
A0D0
A0D0
A0D0
A090
A000
B914
2E00
0B90
0680
ENDCHAR
STARTCHAR Wcircumflex.v
ENCODING 57813
SWIDTH 1000 0
DWIDTH 10 0
BBX 7 11 1 -2
BITMAP
0400
2994
25F4
D070
D110
D000
E000
E080
B0D0
7DF8
1000
ENDCHAR
STARTCHAR Wgrave.v
ENCODING 57814
SWIDTH 1000 0
DWIDTH 10 0
BBX 7 11 1 -2
BITMAP
1810
3D54
16F0
D070
D110
D000
E000
E080
B0D0
7DF8
1000
ENDCHAR
STARTCHAR Wacute.v
ENCODING 57815
SWIDTH 1000 0
DWIDTH 10 0
BBX 7 11 1 -2
BITMAP
0400
2954
15B0
D070
D110
D000
E000
E080
B0D0
7DF8
1000
ENDCHAR
STARTCHAR Wdieresis.v
ENCODING 57816
SWIDTH 1000 0
DWIDTH 10 0
BBX 7 11 1 -2
BITMAP
1440
3994
26F4
D070
D110
D000
E000
E080
B0D0
7DF8
1000
ENDCHAR
STARTCHAR Yacute.v
ENCODING 57817
SWIDTH 1000 0
DWIDTH 10 0
BBX 7 11 1 -2
BITMAP
0400
2954
25A0
A090
A0D0
B000
7800
2D00
0E00
0FD0
0100
ENDCHAR
STARTCHAR Ycircumflex.v
ENCODING 57818
SWIDTH 1000 0
DWIDTH 10 0
BBX 7 11 1 -2
BITMAP
0400
2994
25E0
A090
A0D0
B000
7800
2D00
0E00
0FD0
0100
ENDCHAR
STARTCHAR Ydieresis.v
ENCODING 57819
SWIDTH 1000 0
DWIDTH 10 0
BBX 7 11 1 -2
BITMAP
1440
3994
25E4
A090
A0D0
B000
7800
2D00
0E00
0FD0
0100
ENDCHAR
STARTCHAR Ygrave.v
ENCODING 57820
SWIDTH 1000 0
DWIDTH 10 0
BBX 7 11 1 -2
BITMAP
1810
3D54
25E0
A090
A0D0
B000
7800
2D00
0E00
0FD0
0100
ENDCHAR
STARTCHAR Zacute.v
ENCODING 57821
SWIDTH 1000 0
DWIDTH 10 0
BBX 7 11 1 -2
BITMAP
0400
2954
2550
A000
BF40
1500
0000
6000
A000
BFFC
1550
ENDCHAR
STARTCHAR Zdotaccent.v
ENCODING 57822
SWIDTH 1000 0
DWIDTH 10 0
BBX 7 11 1 -2
BITMAP
0500
0E50
1540
A000
BF40
1500
0000
6000
A000
BFFC
1550
ENDCHAR
STARTCHAR Zcaron.v
ENCODING 57823
SWIDTH 1000 0
DWIDTH 10 0
BBX 7 11 1 -2
BITMAP
1800
2D54
2550
A000
BF40
1500
0000
6000
A000
BFFC
1550
ENDCHAR
STARTCHAR AE.v
ENCODING 57824
SWIDTH 1000 0
DWIDTH 10 0
BBX 8 9 1 -2
BITMAP
1400
3005
6145
9100
D005
D140
D240
FBFD
1050
ENDCHAR
STARTCHAR Eth.v
ENCODING 57825
SWIDTH 1000 0
DWIDTH 10 0
BBX 8 9 0 -2
BITMAP
1800
2810
2424
3114
7424
3800
2801
2FF8
0540
ENDCHAR
STARTCHAR Oslash.v
ENCODING 57826
SWIDTH 1000 0
DWIDTH 10 0
BBX 7 10 1 -2
BITMAP
0010
1010
6040
A140
A110
A060
A000
B000
75E4
7940
ENDCHAR
STARTCHAR Thorn.v
ENCODING 57827
SWIDTH 1000 0
DWIDTH 10 0
BBX 7 9 1 -2
BITMAP
6000
A000
A040
A0D0
A000
A004
A0E4
BD00
1000
ENDCHAR
STARTCHAR Dcroat.v
ENCODING 57828
SWIDTH 1000 0
DWIDTH 10 0
BBX 8 9 0 -2
BITMAP
1800
2810
2424
3114
7424
3800
2801
2FF8
0540
ENDCHAR
STARTCHAR Hbar.v
ENCODING 57829
SWIDTH 1000 0
DWIDTH 10 0
BBX 8 9 0 -2
BITMAP
1814
2501
7410
7824
2800
2814
2834
2F7F
0404
ENDCHAR
STARTCHAR IJ.v
ENCODING 57830
SWIDTH 1000 0
DWIDTH 10 0
BBX 6 9 1 -2
BITMAP
6050
A0D0
A0D0
A5D0
B8D0
1000
A000
BFE0
1500
ENDCHAR
STARTCHAR Ldot.v
ENCODING 57831
SWIDTH 1000 0
DWIDTH 10 0
BBX 8 11 1 -4
BITMAP
6000
A000
A000
A050
A090
A000
A555
AA58
0A00
0B90
0540
ENDCHAR
STARTCHAR Lslash.v
ENCODING 57832
SWIDTH 1000 0
DWIDTH 10 0
BBX 8 9 1 -2
BITMAP
6000
A000
9000
D450
E0D0
A000
A000
BFFD
1550
ENDCHAR
STARTCHAR Eng.v
ENCODING 57833
SWIDTH 1000 0
DWIDTH 10 0
BBX 7 8 1 -2
BITMAP
6000
A0D0
A0D0
A0D0
A0D0
A040
BF44
13E0
ENDCHAR
STARTCHAR OE.v
ENCODING 57834
SWIDTH 1000 0
DWIDTH 10 0
BBX 8 9 1 -2
BITMAP
1000
5001
D245
D240
D245
E000
B400
7FFD
0150
ENDCHAR
STARTCHAR Tbar.v
ENCODING 57835
SWIDTH 1000 0
DWIDTH 10 0
BBX 8 9 1 -1
BITMAP
1000
A000
B909
5904
2440
3904
2D00
0E50
0F80
ENDCHAR
STARTCHAR Germandbls.v
ENCODING 57836
SWIDTH 1000 0
DWIDTH 10 0
BBX 7 9 1 -2
BITMAP
6000
A040
A080
A080
A0D0
A080
A040
BFF4
1040
ENDCHAR
STARTCHAR A.salt_v
ENCODING 57837
SWIDTH 1000 0
DWIDTH 10 0
BBX 7 9 1 -2
BITMAP
1000
6040
A0D0
A040
A000
A0D0
A0D0
BDFC
1010
ENDCHAR
STARTCHAR Agrave.salt_v
ENCODING 57838
SWIDTH 1000 0
DWIDTH 10 0
BBX 8 11 1 -2
BITMAP
1810
3D54
2800
2000
A0D0
A090
A000
A090
A0D0
BDFD
1010
ENDCHAR
STARTCHAR Aacute.salt_v
ENCODING 57839
SWIDTH 1000 0
DWIDTH 10 0
BBX 8 11 1 -2
BITMAP
0400
2954
2800
2000
A0D0
A090
A000
A090
A0D0
BDFD
1010
ENDCHAR
STARTCHAR Acircumflex.salt_v
ENCODING 57840
SWIDTH 1000 0
DWIDTH 10 0
BBX 8 11 1 -2
BITMAP
0400
2994
2804
2000
A0D0
A090
A000
A090
A0D0
BDFD
1010
ENDCHAR
STARTCHAR Atilde.salt_v
ENCODING 57841
SWIDTH 1000 0
DWIDTH 10 0
BBX 8 11 1 -2
BITMAP
0440
2954
2800
2000
A0D0
A090
A000
A090
A0D0
BDFD
1010
ENDCHAR
STARTCHAR Adieresis.salt_v
ENCODING 57842
SWIDTH 1000 0
DWIDTH 10 0
BBX 8 11 1 -2
BITMAP
1440
3594
3804
2000
A0D0
A090
A000
A090
A0D0
BDFD
1010
ENDCHAR
STARTCHAR Aring.salt_v
ENCODING 57843
SWIDTH 1000 0
DWIDTH 10 0
BBX 7 11 1 -2
BITMAP
0400
24D0
3440
2000
A0D0
A090
A000
A090
A0D0
BDFC
1010
ENDCHAR
STARTCHAR Amacron.salt_v
ENCODING 57844
SWIDTH 1000 0
DWIDTH 10 0
BBX 8 11 1 -2
BITMAP
0440
2954
2800
2000
A0D0
A090
A000
A090
A0D0
BDFD
1010
ENDCHAR
STARTCHAR Abreve.salt_v
ENCODING 57845
SWIDTH 1000 0
DWIDTH 10 0
BBX 8 11 1 -2
BITMAP
1840
3D50
2800
2000
A0D0
A090
A000
A090
A0D0
BDFD
1010
ENDCHAR
STARTCHAR Aogonek.salt_v
ENCODING 57846
SWIDTH 1000 0
DWIDTH 10 0
BBX 8 9 1 -3
BITMAP
2000
A0D0
A090
A000
A090
A0D0
BDD1
10D5
00F8
ENDCHAR
STARTCHAR E.salt_v
ENCODING 57847
SWIDTH 1000 0
DWIDTH 10 0
BBX 8 9 1 -2
BITMAP
1000
6055
A054
A000
A0A4
A000
B400
3FF8
0150
ENDCHAR
STARTCHAR Egrave.salt_v
ENCODING 57848
SWIDTH 1000 0
DWIDTH 10 0
BBX 7 11 1 -2
BITMAP
1810
3D54
2950
2000
A0A8
A000
A0A4
A000
B400
7FF8
0150
ENDCHAR
STARTCHAR Eacute.salt_v
ENCODING 57849
SWIDTH 1000 0
DWIDTH 10 0
BBX 7 11 1 -2
BITMAP
0400
2954
2950
2000
A0A8
A000
A0A4
A000
B400
7FF8
0150
ENDCHAR
STARTCHAR Ecircumflex.salt_v
ENCODING 57850
SWIDTH 1000 0
DWIDTH 10 0
BBX 7 11 1 -2
BITMAP
0400
2994
2950
2000
A0A8
A000
A0A4
A000
B400
7FF8
0150
ENDCHAR
STARTCHAR Edieresis.salt_v
ENCODING 57851
SWIDTH 1000 0
DWIDTH 10 0
BBX 7 11 1 -2
BITMAP
1440
3594
3950
2000
A0A8
A000
A0A4
A000
B400
7FF8
0150
ENDCHAR
STARTCHAR Emacron.salt_v
ENCODING 57852
SWIDTH 1000 0
DWIDTH 10 0
BBX 7 11 1 -2
BITMAP
0440
2954
2950
2000
A0A8
A000
A0A4
A000
B400
7FF8
0150
ENDCHAR
STARTCHAR Ebreve.salt_v
ENCODING 57853
SWIDTH 1000 0
DWIDTH 10 0
BBX 7 11 1 -2
BITMAP
1840
3D50
2950
2000
A0A8
A000
A0A4
A000
B400
7FF8
0150
ENDCHAR
STARTCHAR Edotaccent.salt_v
ENCODING 57854
SWIDTH 1000 0
DWIDTH 10 0
BBX 7 11 1 -2
BITMAP
0500
0E50
0540
2000
A0A8
A000
A0A4
A000
B400
7FF8
0150
ENDCHAR
STARTCHAR Eogonek.salt_v
ENCODING 57855
SWIDTH 1000 0
DWIDTH 10 0
BBX 8 10 1 -3
BITMAP
1000
6055
A054
A000
A0A4
A000
B941
1BC0
01E9
00A4
ENDCHAR
STARTCHAR Ecaron.salt_v
ENCODING 57856
SWIDTH 1000 0
DWIDTH 10 0
BBX 7 11 1 -2
BITMAP
1800
3D54
1950
2000
A0A8
A000
A0A4
A000
B400
7FF8
0150
ENDCHAR
STARTCHAR I.salt_v
ENCODING 57857
SWIDTH 1000 0
DWIDTH 10 0
BBX 4 9 3 -2
BITMAP
50
D0
D0
D0
D0
D0
E0
FD
10
ENDCHAR
STARTCHAR I_I.salt_v
ENCODING 57858
SWIDTH 1000 0
DWIDTH 10 0
BBX 7 9 1 -2
BITMAP
6050
A0D0
A0D0
A0D0
A0D0
A0D0
A0D0
BDFC
1010
ENDCHAR
STARTCHAR Igrave.salt_v
ENCODING 57859
SWIDTH 1000 0
DWIDTH 10 0
BBX 6 11 2 -2
BITMAP
6040
F550
6940
2400
3400
3400
3400
3400
3800
3F40
0400
ENDCHAR
STARTCHAR Iacute.salt_v
ENCODING 57860
SWIDTH 1000 0
DWIDTH 10 0
BBX 6 11 2 -2
BITMAP
1000
A550
B940
2400
3400
3400
3400
3400
3800
3F40
0400
ENDCHAR
STARTCHAR Icircumflex.salt_v
ENCODING 57861
SWIDTH 1000 0
DWIDTH 10 0
BBX 6 11 2 -2
BITMAP
1000
A650
B950
2400
3400
3400
3400
3400
3800
3F40
0400
ENDCHAR
STARTCHAR Idieresis.salt_v
ENCODING 57862
SWIDTH 1000 0
DWIDTH 10 0
BBX 6 11 2 -2
BITMAP
5100
D650
F950
2400
3400
3400
3400
3400
3800
3F40
0400
ENDCHAR
STARTCHAR Itilde.salt_v
ENCODING 57863
SWIDTH 1000 0
DWIDTH 10 0
BBX 6 11 2 -2
BITMAP
1100
A550
B940
2400
3400
3400
3400
3400
3800
3F40
0400
ENDCHAR
STARTCHAR Imacron.salt_v
ENCODING 57864
SWIDTH 1000 0
DWIDTH 10 0
BBX 6 11 2 -2
BITMAP
1100
A550
B940
2400
3400
3400
3400
3400
3800
3F40
0400
ENDCHAR
STARTCHAR Ibreve.salt_v
ENCODING 57865
SWIDTH 1000 0
DWIDTH 10 0
BBX 5 11 2 -2
BITMAP
6100
F540
7940
2400
3400
3400
3400
3400
3800
3F40
0400
ENDCHAR
STARTCHAR Iogonek.salt_v
ENCODING 57866
SWIDTH 1000 0
DWIDTH 10 0
BBX 4 10 3 -3
BITMAP
11
A0
A0
A0
A0
A0
A0
91
E5
FD
ENDCHAR
STARTCHAR Idotaccent.salt_v
ENCODING 57867
SWIDTH 1000 0
DWIDTH 10 0
BBX 4 11 3 -2
BITMAP
50
E5
A5
90
D0
D0
D0
D0
E0
FD
10
ENDCHAR
STARTCHAR L.salt_v
ENCODING 57868
SWIDTH 1000 0
DWIDTH 10 0
BBX 7 9 1 -2
BITMAP
6000
A000
A000
A000
A000
A000
A000
BFF8
1550
ENDCHAR
STARTCHAR Lacute.salt_v
ENCODING 57869
SWIDTH 1000 0
DWIDTH 10 0
BBX 7 11 1 -2
BITMAP
1000
A550
A540
A000
A000
A000
A000
A000
A000
BFF8
1550
ENDCHAR
STARTCHAR Lcommaaccent.salt_v
ENCODING 57870
SWIDTH 1000 0
DWIDTH 10 0
BBX 8 11 1 -4
BITMAP
6000
A000
A000
A000
A000
A000
A555
AE54
0E50
0A50
0B80
ENDCHAR
STARTCHAR Lcaron.salt_v
ENCODING 57871
SWIDTH 1000 0
DWIDTH 10 0
BBX 8 9 1 -2
BITMAP
6024
A070
A079
A068
A000
A000
A000
BFF8
1550
ENDCHAR
STARTCHAR Ldot.salt_v
ENCODING 57872
SWIDTH 1000 0
DWIDTH 10 0
BBX 8 11 1 -4
BITMAP
6000
A000
A000
A000
A000
A000
A555
AD64
1C00
1E80
0500
ENDCHAR
STARTCHAR Lslash.salt_v
ENCODING 57873
SWIDTH 1000 0
DWIDTH 10 0
BBX 8 9 0 -2
BITMAP
1800
2800
2400
7110
7800
2800
2800
2FFE
0554
ENDCHAR
STARTCHAR L.salt_s_v
ENCODING 57874
SWIDTH 1000 0
DWIDTH 10 0
BBX 7 9 1 -2
BITMAP
1000
A000
A000
A000
A000
A000
A000
BFF8
1550
ENDCHAR
STARTCHAR M.salt_v
ENCODING 57875
SWIDTH 1000 0
DWIDTH 10 0
BBX 9 9 0 -2
BITMAP
040000
345000
708500
708500
708500
708500
748500
7FFF80
104400
ENDCHAR
STARTCHAR N.salt_v
ENCODING 57876
SWIDTH 1000 0
DWIDTH 10 0
BBX 7 9 1 -2
BITMAP
1000
6040
A0D0
A0D0
A0D0
A0D0
A0D0
BDFC
1010
ENDCHAR
STARTCHAR Ntilde.salt_v
ENCODING 57877
SWIDTH 1000 0
DWIDTH 10 0
BBX 7 11 1 -2
BITMAP
0440
2954
2800
2000
A0D0
A0D0
A0D0
A0D0
A0D0
BDFC
1010
ENDCHAR
STARTCHAR Nacute.salt_v
ENCODING 57878
SWIDTH 1000 0
DWIDTH 10 0
BBX 7 11 1 -2
BITMAP
0400
2954
2800
2000
A0D0
A0D0
A0D0
A0D0
A0D0
BDFC
1010
ENDCHAR
STARTCHAR Ncommaaccent.salt_v
ENCODING 57879
SWIDTH 1000 0
DWIDTH 10 0
BBX 8 10 1 -3
BITMAP
1000
6040
A0D0
A0D0
A0D0
A5E5
BE58
0E50
0A50
0B80
ENDCHAR
STARTCHAR Ncaron.salt_v
ENCODING 57880
SWIDTH 1000 0
DWIDTH 10 0
BBX 7 11 1 -2
BITMAP
1800
3D54
1800
2000
A0D0
A0D0
A0D0
A0D0
A0D0
BDFC
1010
ENDCHAR
STARTCHAR W.salt_v
ENCODING 57881
SWIDTH 1000 0
DWIDTH 10 0
BBX 8 9 0 -2
BITMAP
2085
7085
7085
7085
7085
7410
3810
2FFE
0514
ENDCHAR
STARTCHAR Wcircumflex.salt_v
ENCODING 57882
SWIDTH 1000 0
DWIDTH 10 0
BBX 8 11 0 -2
BITMAP
0100
0A65
1599
3085
7085
7085
7085
7410
7810
2FFE
0514
ENDCHAR
STARTCHAR Wgrave.salt_v
ENCODING 57883
SWIDTH 1000 0
DWIDTH 10 0
BBX 8 11 0 -2
BITMAP
0604
0F55
1599
3085
7085
7085
7085
7410
7810
2FFE
0514
ENDCHAR
STARTCHAR Wacute.salt_v
ENCODING 57884
SWIDTH 1000 0
DWIDTH 10 0
BBX 8 11 0 -2
BITMAP
0100
0A55
1595
3085
7085
7085
7085
7410
7810
2FFE
0514
ENDCHAR
STARTCHAR Wdieresis.salt_v
ENCODING 57885
SWIDTH 1000 0
DWIDTH 10 0
BBX 8 11 0 -2
BITMAP
0510
0D65
1599
3085
7085
7085
7085
7410
7810
2FFE
0514
ENDCHAR
STARTCHAR X.salt_v
ENCODING 57886
SWIDTH 1100 0
DWIDTH 11 0
BBX 8 9 1 -2
BITMAP
2460
3860
2810
2004
7060
70B0
70B0
7E7E
1410
ENDCHAR
STARTCHAR Y.salt_v
ENCODING 57887
SWIDTH 1000 0
DWIDTH 10 0
BBX 7 9 1 -2
BITMAP
6050
A0D0
A0D0
A000
B404
3D00
0E00
0FD0
0100
ENDCHAR
STARTCHAR Yacute.salt_v
ENCODING 57888
SWIDTH 1000 0
DWIDTH 10 0
BBX 7 11 1 -2
BITMAP
0400
2954
25A0
A0D0
A0D0
A040
B440
7D04
0E00
0FD0
0100
ENDCHAR
STARTCHAR Ycircumflex.salt_v
ENCODING 57889
SWIDTH 1000 0
DWIDTH 10 0
BBX 7 11 1 -2
BITMAP
0400
2994
25E0
A0D0
A0D0
A040
B440
7D04
0E00
0FD0
0100
ENDCHAR
STARTCHAR Ydieresis.salt_v
ENCODING 57890
SWIDTH 1000 0
DWIDTH 10 0
BBX 7 11 1 -2
BITMAP
1440
3594
25E0
A0D0
A0D0
A040
B440
7D04
0E00
0FD0
0100
ENDCHAR
STARTCHAR Ygrave.salt_v
ENCODING 57891
SWIDTH 1000 0
DWIDTH 10 0
BBX 7 11 1 -2
BITMAP
1810
3D54
25E0
A0D0
A0D0
A040
B440
7D04
0E00
0FD0
0100
ENDCHAR
STARTCHAR AE.salt_v
ENCODING 57892
SWIDTH 1000 0
DWIDTH 10 0
BBX 8 9 1 -2
BITMAP
1000
5001
D245
D000
D005
D140
D240
FBFD
1050
ENDCHAR
STARTCHAR IJ.salt_v
ENCODING 57893
SWIDTH 1000 0
DWIDTH 10 0
BBX 7 17 1 -6
BITMAP
0110
0A00
0E00
0E00
0E00
0E00
0E00
0FD0
0150
00D0
00D0
11D0
A0D0
A000
B400
7FE4
0540
ENDCHAR
STARTCHAR IJ.stack_v
ENCODING 57894
SWIDTH 1000 0
DWIDTH 10 0
BBX 7 16 1 -5
BITMAP
1000
A040
BD08
1D00
0D00
2040
A000
BFF8
0050
00D0
01D0
61D0
A0D0
A000
B954
2FE0
ENDCHAR
STARTCHAR commaaccent.v
ENCODING 57895
SWIDTH 1000 0
DWIDTH 10 0
BBX 4 5 3 -5
BITMAP
10
A1
E5
B8
50
ENDCHAR
STARTCHAR hyphen.v
ENCODING 57896
SWIDTH 1000 0
DWIDTH 10 0
BBX 4 5 3 0
BITMAP
60
A0
A0
BD
50
ENDCHAR
STARTCHAR endash.v
ENCODING 57897
SWIDTH 1000 0
DWIDTH 10 0
BBX 4 8 3 -1
BITMAP
10
A0
A0
A0
A0
A0
B9
64
ENDCHAR
STARTCHAR emdash.v
ENCODING 57898
SWIDTH 1000 0
DWIDTH 10 0
BBX 4 12 3 -3
BITMAP
10
A0
A0
A0
A0
A0
A0
A0
A0
A0
B9
64
ENDCHAR
STARTCHAR parenleft.v
ENCODING 57899
SWIDTH 1000 0
DWIDTH 10 0
BBX 10 5 0 0
BITMAP
100000
900000
D2FF00
F957D0
500140
ENDCHAR
STARTCHAR parenright.v
ENCODING 57900
SWIDTH 1000 0
DWIDTH 10 0
BBX 9 5 0 0
BITMAP
900100
D00000
E00000
BFFF80
155400
ENDCHAR
STARTCHAR bracketleft.v
ENCODING 57901
SWIDTH 1000 0
DWIDTH 10 0
BBX 10 5 0 0
BITMAP
900000
D00000
D2FF00
F957D0
500140
ENDCHAR
STARTCHAR bracketright.v
ENCODING 57902
SWIDTH 1000 0
DWIDTH 10 0
BBX 10 5 0 0
BITMAP
900100
D00000
D00000
FFFFD0
555540
ENDCHAR
STARTCHAR braceleft.v
ENCODING 57903
SWIDTH 1000 0
DWIDTH 10 0
BBX 10 4 0 0
BITMAP
501000
D1BA00
EA6B90
A00240
ENDCHAR
STARTCHAR braceright.v
ENCODING 57904
SWIDTH 1000 0
DWIDTH 10 0
BBX 9 6 0 0
BITMAP
100040
D01100
D00000
F54140
6FEA40
018000
ENDCHAR
STARTCHAR quoteleft.v
ENCODING 57905
SWIDTH 1000 0
DWIDTH 10 0
BBX 4 6 3 0
BITMAP
15
95
D0
D0
FD
50
ENDCHAR
STARTCHAR quoteright.v
ENCODING 57906
SWIDTH 1000 0
DWIDTH 10 0
BBX 3 6 3 0
BITMAP
50
D0
E4
D0
F8
A0
ENDCHAR
STARTCHAR quotedblleft.v
ENCODING 57907
SWIDTH 1000 0
DWIDTH 10 0
BBX 8 6 1 0
BITMAP
0554
6185
A040
A080
BFFC
1450
ENDCHAR
STARTCHAR quotedblright.v
ENCODING 57908
SWIDTH 1000 0
DWIDTH 10 0
BBX 7 6 1 0
BITMAP
1040
A040
B4A4
A080
BAE8
6590
ENDCHAR
STARTCHAR quotesinglbase.v
ENCODING 57909
SWIDTH 1000 0
DWIDTH 10 0
BBX 4 6 3 0
BITMAP
10
90
E4
D1
F9
50
ENDCHAR
STARTCHAR quotedblbase.v
ENCODING 57910
SWIDTH 1000 0
DWIDTH 10 0
BBX 7 6 1 0
BITMAP
1040
A040
B4A4
A080
BAE8
6590
ENDCHAR
STARTCHAR guilsinglleft.v
ENCODING 57911
SWIDTH 1000 0
DWIDTH 10 0
BBX 6 5 2 0
BITMAP
2000
A100
9200
EB90
A680
ENDCHAR
STARTCHAR guilsinglright.v
ENCODING 57912
SWIDTH 1000 0
DWIDTH 10 0
BBX 5 6 2 0
BITMAP
1100
D200
E100
E000
B940
2A00
ENDCHAR
STARTCHAR guillemotleft.v
ENCODING 57913
SWIDTH 1000 0
DWIDTH 10 0
BBX 6 8 2 -1
BITMAP
1000
6000
9200
EA50
6000
6100
9240
FBD0
ENDCHAR
STARTCHAR guillemotright.v
ENCODING 57914
SWIDTH 1000 0
DWIDTH 10 0
BBX 5 8 2 -1
BITMAP
5100
E000
B000
6640
9200
E000
B400
7F40
ENDCHAR
STARTCHAR period.v
ENCODING 57915
SWIDTH 1000 0
DWIDTH 10 0
BBX 4 5 3 1
BITMAP
10
90
D0
D5
FD
ENDCHAR
STARTCHAR comma.v
ENCODING 57916
SWIDTH 1000 0
DWIDTH 10 0
BBX 4 6 3 0
BITMAP
10
90
E4
D1
F9
50
ENDCHAR
STARTCHAR ellipsis.v
ENCODING 57917
SWIDTH 1000 0
DWIDTH 10 0
BBX 12 4 -1 1
BITMAP
605080
A090C0
A595D5
BEFEF8
ENDCHAR
STARTCHAR exclamdown.v
ENCODING 57918
SWIDTH 1000 0
DWIDTH 10 0
BBX 4 9 3 -1
BITMAP
10
D0
F9
A0
D0
D0
D0
E5
FD
ENDCHAR
STARTCHAR questiondown.v
ENCODING 57919
SWIDTH 1000 0
DWIDTH 10 0
BBX 7 9 1 -1
BITMAP
0140
0700
0754
0000
2014
6060
B000
B954
2FF8
ENDCHAR
STARTCHAR dagger.v
ENCODING 57920
SWIDTH 1000 0
DWIDTH 10 0
BBX 8 9 1 -1
BITMAP
0510
0900
6040
A505
BE1C
0A00
0A00
0A50
0B80
ENDCHAR
STARTCHAR daggerdbl.v
ENCODING 57921
SWIDTH 1000 0
DWIDTH 10 0
BBX 8 9 1 -1
BITMAP
0610
5040
A505
BE1D
1504
A040
A505
AE58
0B80
ENDCHAR
STARTCHAR perthousand.v
ENCODING 57922
SWIDTH 1000 0
DWIDTH 10 0
BBX 9 9 0 -2
BITMAP
101000
A11000
A10000
B90000
2D1540
085540
228500
7BFF80
004400
ENDCHAR
STARTCHAR ampersand.salt_v
ENCODING 57923
SWIDTH 1000 0
DWIDTH 10 0
BBX 8 10 1 -2
BITMAP
0200
0400
2415
3854
2000
60A4
A000
B410
7F09
0BD0
ENDCHAR
STARTCHAR quoteleft.salt_v
ENCODING 57924
SWIDTH 1000 0
DWIDTH 10 0
BBX 4 4 1 1
BITMAP
15
A4
A5
B8
ENDCHAR
STARTCHAR quoteright.salt_v
ENCODING 57925
SWIDTH 1000 0
DWIDTH 10 0
BBX 4 4 1 1
BITMAP
14
A5
B4
B4
ENDCHAR
STARTCHAR A.s_v
ENCODING 57926
SWIDTH 1000 0
DWIDTH 10 0
BBX 8 9 1 -2
BITMAP
0400
1400
3080
6080
A000
A090
A0D0
BDFD
1010
ENDCHAR
STARTCHAR C.s_v
ENCODING 57927
SWIDTH 1000 0
DWIDTH 10 0
BBX 7 8 1 -2
BITMAP
2000
A0F8
A050
A000
A000
B400
7FF8
0150
ENDCHAR
STARTCHAR D.s_v
ENCODING 57928
SWIDTH 1000 0
DWIDTH 10 0
BBX 7 9 1 -2
BITMAP
1000
A000
A0D0
A0D0
A090
A000
A004
BFF4
1500
ENDCHAR
STARTCHAR E.s_v
ENCODING 57929
SWIDTH 1000 0
DWIDTH 10 0
BBX 7 9 1 -2
BITMAP
1000
A000
A0A8
A000
A0A4
A000
A000
BFF8
1550
ENDCHAR
STARTCHAR G.s_v
ENCODING 57930
SWIDTH 1000 0
DWIDTH 10 0
BBX 7 8 1 -2
BITMAP
2000
A0F4
A050
A090
A000
B400
7FFC
0150
ENDCHAR
STARTCHAR H.s_v
ENCODING 57931
SWIDTH 1000 0
DWIDTH 10 0
BBX 7 9 1 -2
BITMAP
1010
A0D0
A090
A000
A040
A0D0
A0D0
BDFC
1010
ENDCHAR
STARTCHAR I.s_v
ENCODING 57932
SWIDTH 1000 0
DWIDTH 10 0
BBX 7 9 1 -2
BITMAP
1000
A040
BD08
1D00
0D00
1000
A000
BFF8
1550
ENDCHAR
STARTCHAR J.s_v
ENCODING 57933
SWIDTH 1000 0
DWIDTH 10 0
BBX 7 9 1 -2
BITMAP
0010
00D0
00D0
11D0
A1D0
A000
B400
7FE4
0540
ENDCHAR
STARTCHAR K.s_v
ENCODING 57934
SWIDTH 1000 0
DWIDTH 10 0
BBX 7 9 1 -2
BITMAP
1050
A080
A040
A000
A040
A0D0
A0D0
BDFC
1010
ENDCHAR
STARTCHAR L.s_v
ENCODING 57935
SWIDTH 1000 0
DWIDTH 10 0
BBX 7 9 1 -2
BITMAP
1000
A000
A000
A010
A090
A000
A000
BFFC
1550
ENDCHAR
STARTCHAR N.s_v
ENCODING 57936
SWIDTH 1000 0
DWIDTH 10 0
BBX 8 9 1 -2
BITMAP
1010
A050
A000
A000
A080
A0D0
A0D0
BDFD
1010
ENDCHAR
STARTCHAR O.s_v
ENCODING 57937
SWIDTH 1000 0
DWIDTH 10 0
BBX 7 8 1 -2
BITMAP
2000
A0D0
A0D0
A0D0
A040
B400
7FE4
0540
ENDCHAR
STARTCHAR R.s_v
ENCODING 57938
SWIDTH 1000 0
DWIDTH 10 0
BBX 8 9 1 -2
BITMAP
1000
A000
A0C0
A040
A000
A0D0
A0E0
BDFD
1010
ENDCHAR
STARTCHAR S.s_v
ENCODING 57939
SWIDTH 1000 0
DWIDTH 10 0
BBX 7 8 1 -2
BITMAP
2000
A0A8
A000
B940
2540
A000
BFF4
1500
ENDCHAR
STARTCHAR T.s_v
ENCODING 57940
SWIDTH 1000 0
DWIDTH 10 0
BBX 8 9 1 -2
BITMAP
1000
A040
BD09
5D00
0D00
0D00
0D00
0FD0
0100
ENDCHAR
STARTCHAR U.s_v
ENCODING 57941
SWIDTH 1000 0
DWIDTH 10 0
BBX 7 9 1 -2
BITMAP
1010
A0D0
A0D0
A0D0
A0D0
A000
B400
7FE4
0540
ENDCHAR
STARTCHAR W.s_v
ENCODING 57942
SWIDTH 1000 0
DWIDTH 10 0
BBX 7 9 1 -2
BITMAP
1010
D070
D110
D000
E000
E080
B0D0
7DF8
1000
ENDCHAR
STARTCHAR Y.s_v
ENCODING 57943
SWIDTH 1000 0
DWIDTH 10 0
BBX 6 9 1 -2
BITMAP
1010
A090
A0D0
B000
7800
2D00
0E00
0FD0
0100
ENDCHAR
STARTCHAR Z.s_v
ENCODING 57944
SWIDTH 1000 0
DWIDTH 10 0
BBX 7 9 1 -2
BITMAP
1000
A000
BF40
1500
0000
6000
A000
BFFC
1550
ENDCHAR
STARTCHAR A.salt_s_v
ENCODING 57945
SWIDTH 1000 0
DWIDTH 10 0
BBX 8 8 1 -2
BITMAP
2000
A0D0
A090
A000
A090
A0D0
BDFD
1010
ENDCHAR
STARTCHAR E.salt_s_v
ENCODING 57946
SWIDTH 1000 0
DWIDTH 10 0
BBX 7 8 1 -2
BITMAP
2000
A0A8
A000
A0A4
A000
B400
7FF8
0150
ENDCHAR
STARTCHAR I.salt_s_v
ENCODING 57947
SWIDTH 1000 0
DWIDTH 10 0
BBX 4 9 3 -2
BITMAP
11
90
D0
D0
D0
D0
E0
FD
10
ENDCHAR
STARTCHAR N.salt_s_v
ENCODING 57948
SWIDTH 1000 0
DWIDTH 10 0
BBX 7 8 1 -2
BITMAP
2000
A0D0
A0D0
A0D0
A0D0
A0D0
BDFC
1010
ENDCHAR
STARTCHAR W.salt_s_v
ENCODING 57949
SWIDTH 1000 0
DWIDTH 10 0
BBX 8 9 0 -2
BITMAP
1445
3085
7085
7085
7085
7410
7810
2FFE
0514
ENDCHAR
STARTCHAR Y.salt_s_v
ENCODING 57950
SWIDTH 1000 0
DWIDTH 10 0
BBX 7 9 1 -2
BITMAP
1010
A0D0
A0D0
A040
B440
7D04
0E00
0FD0
0100
ENDCHAR
STARTCHAR uniF6C3
ENCODING 63171
SWIDTH 600 0
DWIDTH 6 0
BBX 4 6 1 -5
BITMAP
10
50
D1
A5
B8
50
ENDCHAR
STARTCHAR fi
ENCODING 64257
SWIDTH 1423 0
DWIDTH 14 0
BBX 14 9 0 -1
BITMAP
10004010
7002C000
B0F6F450
B0007400
B0007400
B0E06000
B0418000
B502D550
7D01FF80
ENDCHAR
STARTCHAR fl
ENCODING 64258
SWIDTH 1513 0
DWIDTH 15 0
BBX 15 9 0 -1
BITMAP
10004000
7001C000
B0F5C000
B001C000
B001C180
B0E1C140
B041C000
B501D554
7D01FFE0
ENDCHAR
STARTCHAR exclam.v
ENCODING 65281
SWIDTH 1000 0
DWIDTH 10 0
BBX 4 9 3 -1
BITMAP
50
D0
D0
D0
E1
E9
90
E5
FD
ENDCHAR
STARTCHAR quotedbl.v
ENCODING 65282
SWIDTH 1000 0
DWIDTH 10 0
BBX 7 6 1 0
BITMAP
1040
7080
7080
7080
7EF8
1450
ENDCHAR
STARTCHAR percent.v
ENCODING 65285
SWIDTH 1000 0
DWIDTH 10 0
BBX 8 9 1 -2
BITMAP
1010
9550
D500
F900
6D04
1445
2280
BAF8
0050
ENDCHAR
STARTCHAR ampersand.v
ENCODING 65286
SWIDTH 1000 0
DWIDTH 10 0
BBX 7 9 1 -2
BITMAP
0400
3450
7450
2010
91A0
E000
F400
7FF4
0540
ENDCHAR
STARTCHAR quotesingle.v
ENCODING 65287
SWIDTH 1000 0
DWIDTH 10 0
BBX 4 6 3 0
BITMAP
11
D0
E0
E0
FD
10
ENDCHAR
STARTCHAR asterisk.v
ENCODING 65290
SWIDTH 1000 0
DWIDTH 10 0
BBX 8 8 1 -1
BITMAP
0100
0600
2000
7845
6804
1894
3EE0
0440
ENDCHAR
STARTCHAR zero.v
ENCODING 65296
SWIDTH 1000 0
DWIDTH 10 0
BBX 7 9 1 -2
BITMAP
1000
6040
A0D0
A0D0
A0D0
A040
B400
7FE4
0540
ENDCHAR
STARTCHAR one.v
ENCODING 65297
SWIDTH 1000 0
DWIDTH 10 0
BBX 7 9 1 -2
BITMAP
2000
B400
7E00
0A00
0A00
1000
A000
BFFC
1550
ENDCHAR
STARTCHAR two.v
ENCODING 65298
SWIDTH 1000 0
DWIDTH 10 0
BBX 7 9 1 -2
BITMAP
2000
B540
7E40
1000
60A4
A000
A000
BFFC
1550
ENDCHAR
STARTCHAR three.v
ENCODING 65299
SWIDTH 1000 0
DWIDTH 10 0
BBX 7 9 1 -2
BITMAP
6000
A540
B940
2400
3E90
2000
A000
BFF4
1500
ENDCHAR
STARTCHAR four.v
ENCODING 65300
SWIDTH 1000 0
DWIDTH 10 0
BBX 7 9 1 -2
BITMAP
6050
A0D0
A0D0
A040
B000
7E90
1AD0
00FC
0010
ENDCHAR
STARTCHAR five.v
ENCODING 65301
SWIDTH 1000 0
DWIDTH 10 0
BBX 7 9 1 -2
BITMAP
6000
A054
A054
A000
BA90
6000
A000
BFF4
1500
ENDCHAR
STARTCHAR six.v
ENCODING 65302
SWIDTH 1000 0
DWIDTH 10 0
BBX 7 9 1 -2
BITMAP
1000
6054
A054
A000
A0D0
A040
B400
7FE4
0540
ENDCHAR
STARTCHAR seven.v
ENCODING 65303
SWIDTH 1000 0
DWIDTH 10 0
BBX 7 9 1 -2
BITMAP
6000
A540
BF90
0400
1814
2820
2800
2F40
0400
ENDCHAR
STARTCHAR eight.v
ENCODING 65304
SWIDTH 1000 0
DWIDTH 10 0
BBX 7 9 1 -2
BITMAP
1400
3080
7480
6110
60D0
A040
B400
7FE4
0540
ENDCHAR
STARTCHAR nine.v
ENCODING 65305
SWIDTH 1000 0
DWIDTH 10 0
BBX 7 9 1 -2
BITMAP
1000
6050
A090
A000
BE90
2400
3404
3FF4
0500
ENDCHAR
STARTCHAR colon.v
ENCODING 65306
SWIDTH 1000 0
DWIDTH 10 0
BBX 4 9 3 -1
BITMAP
10
90
D0
E5
E9
90
D0
D5
FD
ENDCHAR
STARTCHAR semicolon.v
ENCODING 65307
SWIDTH 1000 0
DWIDTH 10 0
BBX 4 9 3 -2
BITMAP
50
D0
E5
E5
D0
E4
D1
F8
50
ENDCHAR
STARTCHAR question.v
ENCODING 65311
SWIDTH 1000 0
DWIDTH 10 0
BBX 7 9 1 -1
BITMAP
1000
B000
BE80
1800
2D58
2960
2800
2940
2F40
ENDCHAR
STARTCHAR A.v
ENCODING 65313
SWIDTH 1000 0
DWIDTH 10 0
BBX 8 9 1 -2
BITMAP
0400
2400
3080
6040
A000
A090
A0D0
BDFD
1010
ENDCHAR
STARTCHAR B.v
ENCODING 65314
SWIDTH 1000 0
DWIDTH 10 0
BBX 7 9 1 -2
BITMAP
6000
A040
A080
A000
A0D0
A040
A000
BFF4
1540
ENDCHAR
STARTCHAR C.v
ENCODING 65315
SWIDTH 1000 0
DWIDTH 10 0
BBX 8 9 1 -2
BITMAP
1000
6055
A0F8
A000
A000
A000
B400
7FF8
0150
ENDCHAR
STARTCHAR D.v
ENCODING 65316
SWIDTH 1000 0
DWIDTH 10 0
BBX 7 9 1 -2
BITMAP
6000
A040
A0D0
A0D0
A090
A000
A004
BFF4
1500
ENDCHAR
STARTCHAR E.v
ENCODING 65317
SWIDTH 1000 0
DWIDTH 10 0
BBX 8 9 1 -2
BITMAP
6000
A055
A054
A000
A0A4
A000
A000
BFF8
1550
ENDCHAR
STARTCHAR F.v
ENCODING 65318
SWIDTH 1000 0
DWIDTH 10 0
BBX 8 9 1 -2
BITMAP
6000
A055
A0A8
A000
A054
A0E0
A000
BD00
1000
ENDCHAR
STARTCHAR G.v
ENCODING 65319
SWIDTH 1000 0
DWIDTH 10 0
BBX 7 9 1 -2
BITMAP
1000
6054
A0E0
A010
A0D0
A000
B400
7FFC
0150
ENDCHAR
STARTCHAR H.v
ENCODING 65320
SWIDTH 1000 0
DWIDTH 10 0
BBX 7 9 1 -2
BITMAP
6050
A0D0
A040
A000
A090
A0D0
A0D0
BDFC
1010
ENDCHAR
STARTCHAR I.v
ENCODING 65321
SWIDTH 1000 0
DWIDTH 10 0
BBX 8 9 1 -2
BITMAP
6000
A405
BD08
0D00
0D00
1000
A000
BFF8
1550
ENDCHAR
STARTCHAR J.v
ENCODING 65322
SWIDTH 1000 0
DWIDTH 10 0
BBX 7 9 1 -2
BITMAP
0050
00D0
00D0
11D0
A1D0
A000
B400
7FE4
0540
ENDCHAR
STARTCHAR K.v
ENCODING 65323
SWIDTH 1000 0
DWIDTH 10 0
BBX 8 9 1 -2
BITMAP
6080
A080
A000
A000
A090
A0D0
A0D0
BDFD
1010
ENDCHAR
STARTCHAR L.v
ENCODING 65324
SWIDTH 1000 0
DWIDTH 10 0
BBX 8 9 1 -2
BITMAP
6000
A000
A000
A010
A0D0
A000
A000
BFFD
1550
ENDCHAR
STARTCHAR M.v
ENCODING 65325
SWIDTH 1000 0
DWIDTH 10 0
BBX 8 9 1 -2
BITMAP
5050
D040
D000
D000
D150
D1E0
D0A0
F8BD
1010
ENDCHAR
STARTCHAR N.v
ENCODING 65326
SWIDTH 1000 0
DWIDTH 10 0
BBX 8 9 1 -2
BITMAP
6050
A050
A000
A000
A080
A0D0
A0D0
BDFD
1010
ENDCHAR
STARTCHAR O.v
ENCODING 65327
SWIDTH 1000 0
DWIDTH 10 0
BBX 7 9 1 -2
BITMAP
1000
6040
A0D0
A090
A0D0
A040
B400
7FE4
0540
ENDCHAR
STARTCHAR P.v
ENCODING 65328
SWIDTH 1000 0
DWIDTH 10 0
BBX 7 9 1 -2
BITMAP
6000
A040
A0E0
A040
A004
A0F4
A000
BD00
1000
ENDCHAR
STARTCHAR Q.v
ENCODING 65329
SWIDTH 1000 0
DWIDTH 10 0
BBX 7 9 1 -2
BITMAP
1000
6040
A0D0
A090
A0D0
A040
B444
7E14
0FC0
ENDCHAR
STARTCHAR R.v
ENCODING 65330
SWIDTH 1000 0
DWIDTH 10 0
BBX 8 9 1 -2
BITMAP
6000
A040
A080
A010
A040
A0D0
A0E0
BDFD
1010
ENDCHAR
STARTCHAR S.v
ENCODING 65331
SWIDTH 1000 0
DWIDTH 10 0
BBX 7 9 1 -2
BITMAP
1000
6054
A054
B000
BE80
2000
A000
BFF4
1500
ENDCHAR
STARTCHAR T.v
ENCODING 65332
SWIDTH 1000 0
DWIDTH 10 0
BBX 8 9 1 -2
BITMAP
6000
A405
BD08
0D00
0D00
0D00
0D00
0FD0
0100
ENDCHAR
STARTCHAR U.v
ENCODING 65333
SWIDTH 1000 0
DWIDTH 10 0
BBX 7 9 1 -2
BITMAP
6050
A0D0
A0D0
A0D0
A0D0
A000
B400
7FE4
0540
ENDCHAR
STARTCHAR V.v
ENCODING 65334
SWIDTH 1000 0
DWIDTH 10 0
BBX 6 9 1 -2
BITMAP
6050
A0D0
A0D0
A0D0
B080
7400
3800
2FE0
0540
ENDCHAR
STARTCHAR W.v
ENCODING 65335
SWIDTH 1000 0
DWIDTH 10 0
BBX 7 9 1 -2
BITMAP
5020
D0B0
D110
D000
E000
E080
B0D0
7DF8
1000
ENDCHAR
STARTCHAR X.v
ENCODING 65336
SWIDTH 1100 0
DWIDTH 11 0
BBX 8 9 1 -2
BITMAP
2060
7460
7800
2C00
1410
34B0
74B0
7EBE
1410
ENDCHAR
STARTCHAR Y.v
ENCODING 65337
SWIDTH 1000 0
DWIDTH 10 0
BBX 6 9 1 -2
BITMAP
6050
A0D0
A090
B400
7C40
2D00
0E00
0FD0
0100
ENDCHAR
STARTCHAR Z.v
ENCODING 65338
SWIDTH 1000 0
DWIDTH 10 0
BBX 7 9 1 -2
BITMAP
6000
A500
BF00
0400
1000
6000
A000
BFFC
1550
ENDCHAR
STARTCHAR uni2B24.salt_v
ENCODING 65339
SWIDTH 1280 0
DWIDTH 13 0
BBX 12 11 0 -2
BITMAP
07FFF4
0FFFF8
2FFFFD
3FFFFE
7FFFFF
7FFFFF
7FFFFF
3FFFFE
2FFFFD
0FFFF8
06AAA0
ENDCHAR
STARTCHAR uni25DD.curve_v
ENCODING 65340
SWIDTH 1280 0
DWIDTH 13 0
BBX 11 11 1 -2
BITMAP
06FFF8
2FFFF8
7FFFF8
BFFFF8
FFFFF8
FFFFF8
FFFFF8
FFFFF8
FFFFF8
FFFFF8
AAAAA8
ENDCHAR
STARTCHAR uni2B1B.trapezoid_e_v
ENCODING 65341
SWIDTH 1280 0
DWIDTH 13 0
BBX 11 12 1 -2
BITMAP
A50000
FFF950
FFFFF8
FFFFF8
FFFFF8
FFFFF8
FFFFF8
FFFFF8
FFFFF8
FFFFF8
FFFFF8
AAAAA8
ENDCHAR
STARTCHAR uni2B1B.trapezoid_w_v
ENCODING 65342
SWIDTH 1280 0
DWIDTH 13 0
BBX 11 12 1 -3
BITMAP
FFFFF8
FFFFF8
FFFFF8
FFFFF8
FFFFF8
FFFFF8
FFFFF8
FFFFF8
FFFFF8
FFFFF8
FFE540
950000
ENDCHAR
STARTCHAR .notdef
ENCODING -1
SWIDTH 1100 0
DWIDTH 11 0
BBX 10 10 0 -2
BITMAP
055550
3BFFE0
7400A0
7400A0
7400A0
7400A0
7400A0
7400A0
7AAAA0
2AAA80
ENDCHAR
STARTCHAR one.sups
ENCODING -1
SWIDTH 557 0
DWIDTH 6 0
BBX 5 8 0 0
BITMAP
1100
6000
B800
2800
2400
A000
BF80
1500
ENDCHAR
STARTCHAR two.sups
ENCODING -1
SWIDTH 585 0
DWIDTH 6 0
BBX 5 8 0 0
BITMAP
1140
7900
7400
1040
A140
E000
FF80
5500
ENDCHAR
STARTCHAR three.sups
ENCODING -1
SWIDTH 584 0
DWIDTH 6 0
BBX 5 8 0 0
BITMAP
1500
B900
7440
3A00
6000
A000
BF40
1400
ENDCHAR
STARTCHAR four.sups
ENCODING -1
SWIDTH 620 0
DWIDTH 6 0
BBX 6 7 0 1
BITMAP
1140
E300
E200
E400
BF00
17A0
0780
ENDCHAR
ENDFONT
